<svg width="41" height="41" viewBox="0 0 41 41" fill="none" xmlns="http://www.w3.org/2000/svg">
<circle cx="20.5" cy="20.5" r="20.5" fill="#FEFEFF"/>
<path fill-rule="evenodd" clip-rule="evenodd" d="M27.7816 28.8335H24.667V21.5419C24.667 20.9658 24.2003 20.5002 23.6253 20.5002H17.3753C16.7993 20.5002 16.3337 20.9658 16.3337 21.5419V28.8335H13.2087L13.2149 20.0658L20.4983 12.6169L27.792 20.1085L27.7816 28.8335ZM18.4166 28.8333H22.5833V22.5833H18.4166V28.8333ZM29.275 17.7499L21.2448 10.3541C20.8521 9.99296 20.1479 9.99296 19.7552 10.3541L11.724 17.7508C11.3438 18.1026 11.125 18.5942 11.125 19.0998V26.9571C11.125 27.9918 12.0073 28.8333 13.0917 28.8333H17.375H23.625H27.9073C28.9917 28.8333 29.875 27.9918 29.875 26.9571V19.0998C29.875 18.5942 29.6563 18.1026 29.275 17.7499Z" fill="#2836D1"/>
</svg>
