<svg xmlns="http://www.w3.org/2000/svg" viewBox="0 0 340.33 52.37"><defs><style>.cls-1{fill:#0f1212;}.cls-2{fill:#fcb614;}.cls-3{fill:#66ef5b;}</style></defs><g id="Layer_2" data-name="Layer 2"><g id="Layer_1-2" data-name="Layer 1"><path class="cls-1" d="M8.67,13A4.41,4.41,0,0,1,5.49,12,3.91,3.91,0,0,1,4.36,9,3.89,3.89,0,0,1,5.52,6.05,4.31,4.31,0,0,1,8.67,4.92,4.45,4.45,0,0,1,11.84,6,3.94,3.94,0,0,1,13,9a3.92,3.92,0,0,1-1.16,2.93A4.34,4.34,0,0,1,8.67,13ZM5.55,53V20.26H12V53Z" transform="translate(-4.36 -4.92)"/><path class="cls-1" d="M41.14,53.61A21.07,21.07,0,0,1,32.79,52a19.18,19.18,0,0,1-6.61-4.64,21.33,21.33,0,0,1-4.33-7.14,25.75,25.75,0,0,1-1.53-9A22.69,22.69,0,0,1,22,22.47a22.4,22.4,0,0,1,4.59-7.07A20.59,20.59,0,0,1,41.71,9a20.42,20.42,0,0,1,6.2,1,20.69,20.69,0,0,1,5.48,2.68,16.44,16.44,0,0,1,4,3.9L52.93,21.2a20.33,20.33,0,0,0-5.49-4.12,13,13,0,0,0-5.73-1.37,14.07,14.07,0,0,0-10.32,4.36A15,15,0,0,0,28.3,25a16.64,16.64,0,0,0-1.12,6.2,18.11,18.11,0,0,0,1.09,6.45,14.28,14.28,0,0,0,3.09,5,13.47,13.47,0,0,0,4.76,3.15,16.83,16.83,0,0,0,6.15,1.09,15,15,0,0,0,4-.56,15.21,15.21,0,0,0,3.74-1.63,16.64,16.64,0,0,0,3.18-2.49l3.36,5.49a13.84,13.84,0,0,1-3.89,3,22.76,22.76,0,0,1-5.49,2.15A24.2,24.2,0,0,1,41.14,53.61Z" transform="translate(-4.36 -4.92)"/><path class="cls-1" d="M111,53V20.26h6.42V27l-1.12.75a9.55,9.55,0,0,1,2.43-4,14.44,14.44,0,0,1,4.31-3,12.91,12.91,0,0,1,11.34.31,9,9,0,0,1,3.74,4.46A19.73,19.73,0,0,1,139.41,33V53H133V33.48a12.43,12.43,0,0,0-.75-4.65,5.12,5.12,0,0,0-2.31-2.68,7.25,7.25,0,0,0-3.86-.72,9.47,9.47,0,0,0-3.43.6,8.19,8.19,0,0,0-2.71,1.65,7.92,7.92,0,0,0-1.81,2.46,7,7,0,0,0-.66,3V53H111Z" transform="translate(-4.36 -4.92)"/><path class="cls-1" d="M145.39,26.49V20.26h20.82v6.23Zm6.8,26.5V11.91h6.42V53Z" transform="translate(-4.36 -4.92)"/><path class="cls-1" d="M172.07,53V20.26h6.49V30.55l-.63-2.5a11.53,11.53,0,0,1,2.34-4.3,12.57,12.57,0,0,1,3.8-3.05,9.53,9.53,0,0,1,4.46-1.13,11.1,11.1,0,0,1,2,.19,7.27,7.27,0,0,1,1.52.44l-1.68,7a11.42,11.42,0,0,0-1.65-.53,7.35,7.35,0,0,0-1.78-.22,8,8,0,0,0-3.21.66,8.32,8.32,0,0,0-2.68,1.8,9.07,9.07,0,0,0-1.84,2.68,8,8,0,0,0-.68,3.34V53Z" transform="translate(-4.36 -4.92)"/><path class="cls-1" d="M201.37,13A4.44,4.44,0,0,1,198.19,12a3.91,3.91,0,0,1-1.12-3,3.88,3.88,0,0,1,1.15-2.93,4.32,4.32,0,0,1,3.15-1.13A4.49,4.49,0,0,1,204.55,6a3.93,3.93,0,0,1,1.12,3,3.91,3.91,0,0,1-1.15,2.93A4.36,4.36,0,0,1,201.37,13Zm-3.12,40V20.26h6.43V53Z" transform="translate(-4.36 -4.92)"/><path class="cls-1" d="M231.73,53.61a13.68,13.68,0,0,1-4.21-.68,15.38,15.38,0,0,1-3.8-1.84,13.27,13.27,0,0,1-2.87-2.56,7.39,7.39,0,0,1-1.52-2.84l1.62-.87v8h-6.42V6.86H221V27.74l-1-.56a6.72,6.72,0,0,1,1.37-2.77A11.5,11.5,0,0,1,224,22a15.91,15.91,0,0,1,3.59-1.74,12,12,0,0,1,3.92-.66,14.3,14.3,0,0,1,7.86,2.19,15.4,15.4,0,0,1,5.42,6,18.73,18.73,0,0,1,2,8.76,19.15,19.15,0,0,1-2,8.79,15.31,15.31,0,0,1-5.39,6.08A14,14,0,0,1,231.73,53.61Zm-1.06-5.86a9.18,9.18,0,0,0,5.11-1.46,10.44,10.44,0,0,0,3.56-4,12.42,12.42,0,0,0,1.31-5.77,12.45,12.45,0,0,0-1.28-5.7,9.83,9.83,0,0,0-3.52-4,10,10,0,0,0-10.35,0,10.06,10.06,0,0,0-3.56,4,12.21,12.21,0,0,0-1.31,5.7,12.42,12.42,0,0,0,1.31,5.77,10.44,10.44,0,0,0,3.56,4A9.28,9.28,0,0,0,230.67,47.75Z" transform="translate(-4.36 -4.92)"/><path class="cls-1" d="M265.27,53.61A11.23,11.23,0,0,1,259.19,52a10.74,10.74,0,0,1-4-4.55,16.09,16.09,0,0,1-1.4-7V20.26h6.42V38.71a10.42,10.42,0,0,0,2,6.8A6.87,6.87,0,0,0,267.89,48a9,9,0,0,0,3.3-.59,8,8,0,0,0,2.59-1.65,7.62,7.62,0,0,0,1.71-2.56,8.28,8.28,0,0,0,.63-3.24V20.26h6.42V53h-6.42V46.13l1.12-.75a10.88,10.88,0,0,1-2.53,4.18,13.1,13.1,0,0,1-4.2,3A12.65,12.65,0,0,1,265.27,53.61Z" transform="translate(-4.36 -4.92)"/><path class="cls-1" d="M288.77,26.49V20.26h20.82v6.23Zm6.8,26.5V11.91H302V53Z" transform="translate(-4.36 -4.92)"/><path class="cls-1" d="M330.41,53.61a18.22,18.22,0,0,1-8.94-2.15,15.8,15.8,0,0,1-6.11-5.89,16.52,16.52,0,0,1-2.22-8.6,19.19,19.19,0,0,1,1.25-7,16.85,16.85,0,0,1,3.46-5.51,15.2,15.2,0,0,1,5.3-3.62,17.38,17.38,0,0,1,6.7-1.28,14.45,14.45,0,0,1,5.92,1.22,14.57,14.57,0,0,1,7.89,8.35,16.91,16.91,0,0,1,1,6.33l-.06,2.74H317.88L316.45,33h22.63l-.94,1.06V32.6a7.22,7.22,0,0,0-1.37-3.68,8.53,8.53,0,0,0-6.92-3.49,11.59,11.59,0,0,0-5.67,1.28,8.23,8.23,0,0,0-3.49,3.74,14,14,0,0,0-1.19,6.08,11.78,11.78,0,0,0,1.44,5.95,9.64,9.64,0,0,0,4.05,3.9A12.91,12.91,0,0,0,331,47.75a12.43,12.43,0,0,0,4.52-.81A16,16,0,0,0,340.08,44l3.24,4.55a14.89,14.89,0,0,1-3.65,2.62A22.76,22.76,0,0,1,335.12,53,18.11,18.11,0,0,1,330.41,53.61Z" transform="translate(-4.36 -4.92)"/><path class="cls-2" d="M105.18,42.38c0,9.49-8.7,14.92-18.19,14.92S70.82,51.87,70.82,42.38a17.18,17.18,0,0,1,34.36,0Z" transform="translate(-4.36 -4.92)"/><path class="cls-1" d="M93.05,50.84l0-.08Z" transform="translate(-4.36 -4.92)"/><path class="cls-1" d="M85.61,53l.08-.06Z" transform="translate(-4.36 -4.92)"/><path class="cls-1" d="M96.69,47.93v0l.21-.25Z" transform="translate(-4.36 -4.92)"/><path class="cls-1" d="M71,48.54l.07.06Z" transform="translate(-4.36 -4.92)"/><path class="cls-1" d="M78.93,52.85l-.14,0Z" transform="translate(-4.36 -4.92)"/><path class="cls-1" d="M99.63,46.7l-.19.07Z" transform="translate(-4.36 -4.92)"/><path class="cls-1" d="M100.7,41.49h0Z" transform="translate(-4.36 -4.92)"/><path class="cls-1" d="M99.87,43.38v0Z" transform="translate(-4.36 -4.92)"/><path class="cls-1" d="M99.89,43.6v0Z" transform="translate(-4.36 -4.92)"/><path class="cls-1" d="M98.71,39.14a.72.72,0,0,0,.18.36Z" transform="translate(-4.36 -4.92)"/><path class="cls-1" d="M68.69,35.53l0,0Z" transform="translate(-4.36 -4.92)"/><path class="cls-1" d="M99.76,39.27l0,.1Z" transform="translate(-4.36 -4.92)"/><path class="cls-1" d="M98.28,49.28c0,.2-.31.37-.23.44C98.14,49.58,98.35,49.44,98.28,49.28Z" transform="translate(-4.36 -4.92)"/><path class="cls-1" d="M65.92,30.73l0-.1Z" transform="translate(-4.36 -4.92)"/><polygon class="cls-1" points="95.39 34.34 95.42 34.23 95.36 34.26 95.39 34.34"/><polygon class="cls-1" points="74.15 20.67 74.15 20.67 74.13 20.7 74.15 20.67"/><path class="cls-1" d="M79.31,25.58l-.15.08Z" transform="translate(-4.36 -4.92)"/><path class="cls-1" d="M98.89,39.5l.1.21Z" transform="translate(-4.36 -4.92)"/><path class="cls-1" d="M87.44,25.56h0Z" transform="translate(-4.36 -4.92)"/><path class="cls-1" d="M79.54,53l.06,0Z" transform="translate(-4.36 -4.92)"/><polygon class="cls-1" points="68.02 49.09 68.02 49.09 68.02 49.09 68.02 49.09"/><path class="cls-1" d="M72.79,54.06a.48.48,0,0,0-.41,0A.6.6,0,0,0,72.79,54.06Z" transform="translate(-4.36 -4.92)"/><path class="cls-1" d="M71.69,53.55l0,0Z" transform="translate(-4.36 -4.92)"/><polygon class="cls-1" points="74.5 51.29 74.5 51.27 74.49 51.29 74.5 51.29"/><path class="cls-1" d="M77.37,56l-.1-.07Z" transform="translate(-4.36 -4.92)"/><polygon class="cls-1" points="64.09 46.46 64.09 46.46 64.09 46.46 64.09 46.46"/><path class="cls-1" d="M63.4,37.67a32.21,32.21,0,0,0,.31,4.94,3.11,3.11,0,0,1,.5,1.21l-.3.11.19.37c-.06.18-.13-.29-.18,0l.23.1c-.11.06.17,1-.21.43a9.5,9.5,0,0,0,.47,1.52c.11.33.31.1.37.49l-.2,0c.24,1.19,1.1,1,1.48,2L66,48.75c.17.12.35.42.39.4.2-.29-.25-.08-.27-.45.25-.11.35.27.51.14,0,.26.26.3.38.47,0,.41.48.74.48,1.09.18.09.51.08.76.36,0,.35-.2.1,0,.42l.16-.07c.19.24.13.23.07.28.23.24.34,0,.57.4l-.27,0a4.89,4.89,0,0,1,.63.57c-.06.06-.2,0-.27-.16,0,.34.38.18.45.28,0-.07-.19-.28,0-.31.15.16.48.11.48.35l-.27,0c.41.17.3,0,.65.34l-.07.06c.36,0,.6.39,1,.66h-.1c.19,0,.35,0,.42,0-.17-.21-.08-.22,0-.36.16.4.58.05,1,.41a.19.19,0,0,1-.31,0c-.3.15-.43.32-.79.25.22.06.45.16.35.23l.18-.18a2.52,2.52,0,0,1,.29.16c.12-.12-.11-.35.2-.3s0,.3.14.23c.46.11.29-.16.65.11l-.17,0c.23.25.71.3.69.59l-.22.06,0,0c-.41.07.3,0,.09.26,0-.16.44,0,.62.14v-.19c.81-.27-.16.32.49.5.44,0-.14-.1.15-.14s.32.3.74.34c.09.1.3.26.26.46.27,0,.74.3.93.12-.39-.24-.48.12-.91-.28l.19-.15c.33.12.79.1,1,.22v-.14c.5,0,.67-.15,1.13,0,0,.19-.24.11-.44.09.28.19.31.09.78.2,0,.15-.32-.05-.4.09.18,0,.36,0,.54,0v0c.11-.26.4.07.73,0,.77.09.91-.29,1.33-.48L81,56c-.18-.12-.15,0-.22,0,.26,0,.55.28.4.38.42-.06-.14-.14.11-.22l.56,0c-.06-.14-.26-.18,0-.27s.36,0,.67,0c0,.07.1.2-.13.2.15.05.39.05.48-.09-.35-.11.56-.14.29-.34l.35.11c-.08,0-.08.09-.2.07.11.2.28-.07.39-.09s.44,0,.47.1l.44,0c.15-.06,0-.14,0-.21l.54,0,0,.47c.2-.13,0-.34.35-.37-.15.25.44.12.22.42a1.48,1.48,0,0,0,1-.09c.14-.2-.33,0-.34-.22.78-.22.73-.68,1.31-.75h-.16c.33-.19.3-.16.46-.36,0,.24.55.48,1.13.28,0-.12-.39-.12-.34-.32.12,0,.25-.08.37-.14l0,.1c.31-.19.72.06.73-.22l.46.19-.19-.09c0-.12.38-.28.44-.35a.83.83,0,0,1,.76-.2c-.1-.05-.34-.17-.06-.34.14.34.67-.15.74,0,.11-.06.38-.05.32-.19l.08.21c-.11-.29.31-.51.6-.74.14.42.34-.22.68,0-.09-.27.5-.43.41-.69.23-.17.35.07.46.11l0-.16a3.61,3.61,0,0,0,1-.38l.07-.39.16,0c0-.08.16-.27,0-.25L96,51.2c-.17-.22.12-.2.29-.49l.09.12c.12-.1.16.05.29.06-.12,0,.07-.76-.32-.56-.09-.06,0-.29.16-.37l.24.12-.06-.32c.14-.2.32-.16.48-.28-.12.15,0,.66.4.27a1.87,1.87,0,0,0-.22.56c.08-.07.14-.1.1.1.23-.35,0-.2.25-.52.14.16.29.13.59-.09l-.31.09v-.08l-.22,0c.07-.06.12-.54.26-.51-.52.1.22-.73-.1-.66l.24-.26c-.07.37.36,0,.46.09,0-.14-.3.11-.27-.07a.82.82,0,0,1,.44-.26v.09l.26-.2c-.07-.11-.32.15-.22-.13l.25-.26c.06.2.29.22.19.46.1-.19.42-.77.1-.65l.13-.21c-.16.09-.53.36-.3-.07l0,0,0-.38.17-.07v-.2l.23,0c.14-.34,0-.36,0-.43s.14-.24.22-.1c.15-.24.32-.7.51-.83,0-.39-.07.06-.14-.21.45-.17.54-1.13.61-1.73-.36.08,0-.18-.3-.35.09.15.37-.51.37,0l0-.33c.23-.18,0,.56.36.28.06-.37-.27-.67-.07-1.08.23.18,0-.34.2-.2.09.1,0,.22,0,.34l.06-.07c.15-.8-.26-.26-.4-.7s.22-.37.33-.39,0-.32,0-.46c.13.31-.19.55-.33.4.29-.2.06-.72,0-.84-.34.67,0,.48-.4,1.09.09.09.34.1.21.47-.11-.25-.14,0-.18.07.15-.06,0,.27.07.39-.14.09-.29-.26-.42.1l.32.12c-.07.14-.23-.1-.21.23-.14-.2-.27,0-.25-.42-.38.45,0,.78.06,1.21L100.2,43a.55.55,0,0,1,0,.38c-.15.23-.09-.24-.21-.2s-.07.27-.1.41h0c0,.12,0,.23-.08.24a2.49,2.49,0,0,0-.22-.32l.09.48c-.09-.08-.29.28-.27,0l-.14.62-.23,0c0,.16,0,.18.11,0-.11.18,0,1-.38.75a3.43,3.43,0,0,1-.37,1.24c0-.49-.51.32-.34-.14-.23.19,0,.36-.13.58s-.33-.08-.29-.31l0,.28,0,0v.27c-.24.12-.22-.09-.39.09l.13.16-.2.06c.11,0,0,.15,0,.3l0,0-.1.2c0-.25-.16.13-.21,0a3.56,3.56,0,0,0-.31.43l.14,0c-.22.4-.16-.13-.42.12l.13.09c-.55.18-.49.76-.9.88.14-.17,0-.27,0-.23a4,4,0,0,0-.79.93.65.65,0,0,0-.64,0c-.2.15-.21.19-.21.34-.25.07-.55.44-.65.3,0,.15-.19.11-.26.26l-.06,0,.1.12c-.55-.09-.55.54-1.08.48l0-.08-.13.15,0-.21c-.25.13-.52.22-.78.33l.2,0c-.16.09-.21.28-.43.27.21-.36-.27.11-.39,0l.14-.13c-.22.11-.22.11-.14.25-.28.18-.32-.2-.54.06l.21-.06c.09.06,0,.24-.15.28l-.06-.1c-.22.14-.61.19-.7.29s-.14-.12-.08-.19c-.47.31-.24.06-.73.33l0-.09-.15.16-.31-.12.13.09a1.23,1.23,0,0,1-.48.15l0-.15c-.48.21-.62-.09-1,.19L86.4,53c-.4.29-.37-.17-.77.16l0-.13-.19.12v-.18l-.12.28-.15-.17-.07.1c-.26-.32-.53,0-.85-.26l.07.22a1.38,1.38,0,0,1-1.23.16,4,4,0,0,0-1.37-.1l0-.18-.37.2c-.19-.15.12-.15.06-.25-.39.09-.17.27-.63.3-.23-.13.09-.13.2-.19a2.71,2.71,0,0,1-1.37,0v.07a3.23,3.23,0,0,1-1-.12l.17-.08-.35-.06.14-.13c-.23-.08-.71,0-.72-.21,0,.07,0,.2-.23.15,0-.27-.56,0-.84-.26l.22,0c-.14-.11-.31,0-.48,0l.08-.09c-.26,0-.53,0-.78-.08,0-.31-.68-.23-.56-.39-.24-.11.17.19-.16.1,0-.14-.31-.06-.23-.22h0l-.22-.08.21-.1a.44.44,0,0,0-.47.16c-.13-.18-.41-.23-.42-.41h.09c-.54-.17-.52-.85-1-.81l.07,0-.27-.18.14-.07a3.05,3.05,0,0,1-.54-.14l0-.07c-.23-.26-.73-.52-1-.84l.08,0c-.44-.25-.27-.39-.6-.57H71l-.21-.24h.11c-.3-.06-.22-.68-.26-.46-.15,0-.38-.16-.49-.13-.22-.27,0-.14,0-.36s-.27-.17-.39-.5l.08,0c-.09-.13-.21-.17-.33-.36l.07,0c-.33-.25,0-.53-.44-.61,0-.17-.18-.41,0-.47a11.19,11.19,0,0,1-.66-1.11c.25-.16-.06-.09,0-.41l-.15.06a4.43,4.43,0,0,1-.08-1,3.37,3.37,0,0,0,0-1.1l.16,0-.2-.12c0-.79,0-1.82.08-2.43a1.47,1.47,0,0,1-.18-.85l0,0a4.74,4.74,0,0,1,.22-1.77l.14.08c-.14-.18.08-.35.12-.48l-.16.12c-.1-.2.11-.41.24-.47l-.1-.31.08,0-.07-.08.24-.07c0-.08.06-.44-.09-.62.08,0,.22-.22.19,0a7.64,7.64,0,0,1,.42-.92l-.14.11c-.15,0-.11-.36,0-.48,0,.25.2.11.34.09,0-.16-.18,0-.23-.06a.87.87,0,0,1,.2-.61V33c0-.24.33-.22.45-.41s.18-.32-.08-.42c.11-.29.22,0,.29-.07s.26-.51.4-.48c-.25-.37.6-.56.36-.81l.3-.09a.35.35,0,0,1-.11-.41c.19-.09.28,0,.39.06l-.17-.31c1-.58,1.84-1.78,3-2.21a5.86,5.86,0,0,1,1.43-1.13l0,.07c.19-.08.4-.12.59-.19l-.47.05a1.09,1.09,0,0,1,.29-.24c.34-.08.72-.2,1.11-.33a4.1,4.1,0,0,0,1.17-.47c.41-.53.44.23.86-.17l-.06.15,1.29-.71c0,.39.36-.06.34.15l0-.17c.13.08.43.07.4.19l.22-.23,0,.16c.32,0,1-.17,1.2.14a6.3,6.3,0,0,1,3,.16c.17-.12.46-.05.68,0l.2.24c.23,0,.54-.16.72,0l0,0c.24,0,.42.21.69.12.24.1.44.28.3.42.15-.29.51.22.5.24l.5.28a9.39,9.39,0,0,1,1.31.79,16.51,16.51,0,0,1,3.6,3.22,18.89,18.89,0,0,1,2.82,4.67c.65,1.57,1.12,3,1.55,3.84.16.11.28.43.46.3.07.25-.2.37,0,.42.09-.35.41.11.59-.24l0,.22c.11,0-.14-.3.06-.25l-.29-.05a.49.49,0,0,1,.18-.35c-.12-.17-.52-.25-.37-.66l0,.11c0-.33.17-.22.22-.29v.07l.13-.29c-.08.22.17.55.14.37.06-.41-.06.11-.11-.19s.13-.14.22-.14l-.06-.34c.14,0,0,.23.15.07l-.21-.4c.33-.13-.23-.43.06-.67.12.29.11,0,.22,0a4.64,4.64,0,0,0-.16-.74l.11.06c0-.16-.14-.21-.16-.29s-.15-.55.08-.59c0-.54-.33-.13-.34-.63.12-.11.14.36.22.11a3.82,3.82,0,0,0-.21-.46c.08,0,.24,0,.28.21a11.25,11.25,0,0,1-.15-1.83A3.26,3.26,0,0,0,99.27,31c0-.24.17.06.31.13-.65-.72-.37-1.35-.84-2l-.12.06a5.05,5.05,0,0,0-.93-1.65c-.45-.49-.89-1-1.33-1.52l0,.18a2.46,2.46,0,0,1-.65-.32c0-.07.31-.11,0-.32l0,.25c-.56-1.07-2.59-2.44-4.23-3.38a19.8,19.8,0,0,0-7.57-2c.39,0,.2.33-.08.24-.78-.63-1.36.08-2.18-.27-1.43.27-2.84.05-4.06.84l-.07-.15c-.22,0-.25.1-.44.19V21.2c-.5.12-1,.48-1.33.51l0,.18c-.27.12-.2-.09-.44.13l0-.08-.26.31c-.1-.3-.77.34-1,.32a12.29,12.29,0,0,1-1.42,1c-.19-.09-.79.32-1.2.54-.72.55-1.66,1.44-2.5,2.23l.17.13-.2.23-.06-.07c-.32,0-.41.55-.67.64.24,0,.16-.14.28-.26s.22.19-.07.36l0,0-.07.23c-.14-.08-.33,0-.46-.05-.57.83-.78,1.49-1.34,2.33-.1-.18-.34.64-.5.32-.21.58.27,0,.32.38-.1.14-.1.34-.21.31s-.23,0-.2-.1l-.15.37,0-.12c-.2.82-.84,1.24-.91,2l.21-.17c0,.77-.41.55-.5,1.26l-.1-.18c0,.24.14.38-.08.7-.19,0-.06-.35-.09-.55-.08.25-.2.89,0,.74,0,.32-.2.38-.29.53s.19-.25.23,0a4.85,4.85,0,0,0-.42,1.51l-.13,0C63.83,37.2,63.43,37.1,63.4,37.67Z" transform="translate(-4.36 -4.92)"/><polygon class="cls-1" points="74.69 51.34 74.5 51.29 74.38 51.41 74.69 51.34"/><path class="cls-1" d="M70.38,52.85h0Z" transform="translate(-4.36 -4.92)"/><path class="cls-1" d="M68.4,51.53c.15.09.08-.05,0-.14Z" transform="translate(-4.36 -4.92)"/><path class="cls-1" d="M84.21,55.88l0,.08Z" transform="translate(-4.36 -4.92)"/><path class="cls-1" d="M97.18,50.48l-.06,0Z" transform="translate(-4.36 -4.92)"/><path class="cls-1" d="M96.41,50.83,96.3,51Z" transform="translate(-4.36 -4.92)"/><path class="cls-1" d="M80.79,56l-.15,0Z" transform="translate(-4.36 -4.92)"/><polygon class="cls-1" points="91.83 46.16 91.67 46.28 91.69 46.31 91.83 46.16"/><path class="cls-1" d="M97.38,50.31l-.2.17Z" transform="translate(-4.36 -4.92)"/><path class="cls-1" d="M89.24,54.69h0C89.1,54.82,89.18,54.76,89.24,54.69Z" transform="translate(-4.36 -4.92)"/><polygon class="cls-1" points="91.35 46.98 91.33 46.99 91.31 47.06 91.35 46.98"/><polygon class="cls-1" points="93.68 44.79 93.64 44.89 93.73 44.82 93.68 44.79"/><path class="cls-1" d="M92.11,53.88v0Z" transform="translate(-4.36 -4.92)"/><ellipse class="cls-1" cx="86.48" cy="33.08" rx="2.2" ry="2.53"/><ellipse class="cls-1" cx="70.93" cy="33.08" rx="2.2" ry="2.53"/><path class="cls-1" d="M82.6,14.39h0Z" transform="translate(-4.36 -4.92)"/><path class="cls-1" d="M83,15.1h0Z" transform="translate(-4.36 -4.92)"/><polygon class="cls-1" points="78.03 9.04 78.02 9.05 78.01 9.02 78.03 9.04"/><path class="cls-1" d="M83.46,16.68h0Z" transform="translate(-4.36 -4.92)"/><path class="cls-1" d="M83.16,15.74l0,0Z" transform="translate(-4.36 -4.92)"/><path class="cls-1" d="M81.7,13.93h0Z" transform="translate(-4.36 -4.92)"/><path class="cls-1" d="M81.73,13.45h0Z" transform="translate(-4.36 -4.92)"/><path class="cls-1" d="M82,13.56v0Z" transform="translate(-4.36 -4.92)"/><path class="cls-1" d="M81.93,13.59h0Z" transform="translate(-4.36 -4.92)"/><path class="cls-1" d="M83.71,22.6l-.06,0Z" transform="translate(-4.36 -4.92)"/><path class="cls-1" d="M83.67,18.15h0Z" transform="translate(-4.36 -4.92)"/><path class="cls-1" d="M83.32,22.62h0Z" transform="translate(-4.36 -4.92)"/><path class="cls-1" d="M81.65,14.19l0,0Z" transform="translate(-4.36 -4.92)"/><path class="cls-1" d="M82.07,18.63h0Z" transform="translate(-4.36 -4.92)"/><polygon class="cls-1" points="78.96 17.7 78.95 17.68 78.97 17.69 78.96 17.7"/><polygon class="cls-1" points="79.46 14.76 79.46 14.76 79.47 14.76 79.46 14.76"/><path class="cls-1" d="M83.9,19.76v0Z" transform="translate(-4.36 -4.92)"/><path class="cls-1" d="M83.65,22.63l0,0Z" transform="translate(-4.36 -4.92)"/><path class="cls-1" d="M83.9,20.64h0Z" transform="translate(-4.36 -4.92)"/><path class="cls-1" d="M83.12,15.69h0Z" transform="translate(-4.36 -4.92)"/><polygon class="cls-1" points="77.72 11.55 77.72 11.55 77.72 11.55 77.72 11.55"/><path class="cls-1" d="M82.13,16.43l0,0Z" transform="translate(-4.36 -4.92)"/><path class="cls-1" d="M82.11,16.54h0Z" transform="translate(-4.36 -4.92)"/><polygon class="cls-1" points="77.56 11.01 77.56 11 77.56 11.01 77.56 11.01"/><path class="cls-1" d="M81.94,16.05h0Z" transform="translate(-4.36 -4.92)"/><polygon class="cls-1" points="77.68 11.94 77.68 11.94 77.68 11.94 77.68 11.94"/><path class="cls-1" d="M81.87,18.07c0-.12.08-.29,0-.4l.1-.11h-.12l0,0h-.07l.07,0h-.11l0-.12.06-.05H81.8l.15-.2h0l0-.05c.12,0-.06,0,0,0l.12,0,0-.05L82,17l.13-.08H82l.06,0H82l0-.06-.06,0v-.07l0,0,0-.05h.1v0l-.05,0,0-.06h0v-.09h0l.06,0h.11l0-.1,0,0-.22.08v0l.09,0v0l.13,0h0l.06-.06h0l-.1-.05,0,0H82l0-.05h.07c.19-.09-.14,0-.12,0l.07,0L82,16.18h-.14l0-.08,0,.08.07,0v-.08H82l.06-.1,0,0,0-.06,0,0v0h0v-.06l.19-.15h-.08v0h-.15l.09,0,0,0,.1,0v-.06l-.07,0,0,0,.11-.05,0,0,0,0,0,0-.06,0,0,0,.07,0,0-.05-.17,0,.11-.06-.16,0,0-.07h.1l.15-.15h0l.08-.07-.22,0L82,15v0h0L82,15H81.9l.06-.06-.06-.06.12,0c-.13,0-.06-.05-.13,0v0l-.08,0c.11,0,.1-.07.11-.11-.15,0,0,0-.14,0l.12-.09h-.14l0,0-.11-.06.08-.05h0l.07,0v0l.06-.06-.06,0h-.09l.23-.08,0,0-.09,0,.09,0-.07,0-.17,0-.07.06,0,0,.06-.06h0l0-.06c.14,0,.08-.08.17-.08l0,0-.16,0,.1,0h-.1l0,0,.09,0,0,0-.13.06.07-.07v0l.1,0h0l.05,0h-.05l0,0h-.07l.06-.05H81.7l-.07-.06.07,0c-.15,0-.08-.08-.08-.13s0,0,.11-.07l-.13,0v0l-.14.06.07-.11h-.07l0,0h0l.14-.11h-.12v0h.12v-.08c.12,0,0,0,.14.05l-.07.07.07,0,0,.05.15,0-.12,0h.07l.1-.07c.12,0,0,.08-.06.13l0,0,0,0,.08,0v0h0v0l.1-.06-.07.06.1,0v.06l.08,0h0s-.11.13,0,.07l0,.13.13,0,0,.07.14-.05,0,0h0l0,0h.1l-.07,0h0l0,0h0v0h.07v0h0l.09,0h-.06l0,.11.06,0,0,.14h.15l0,.06.07.05,0,0h0c.14,0-.05.09.07.1h0l0,0,.08,0,0,.08h0l0,.05.08,0,0,0-.06,0,.06,0v0l-.07,0h0v.08l.08,0,0,.09h0l0,0h0V15l0,0,0,.1,0,0v.08h0l0,0,.07,0-.1,0h0c.14,0,0,0,.15.05l-.09,0c-.16.1.13.14.07.25l.06,0-.07,0,.09,0-.1.08.07,0v.14h0v.1l0,0v0l0,0,0,.07-.06,0,0,.09,0,0,0,.05h0l0,.09.07.06,0,0,0,0h0v0l.07,0-.13,0,.08.05h0l.09.13h0v0h0l-.07.07h0v.15h0v.09h0v0h0l.05.05-.11.06.08,0,0,.08h0l0,.06h0c-.06.05.11,0,0,.09l.08,0-.07.15.06,0h-.06l.15.21h.06l-.07,0,.09.25-.07.1h0V18h.06v.06l0,0,0,.05-.06,0h.08l-.11.07h.06l0,.11,0,0-.07.06h0l0,.07h0l.08,0-.1.05h.08l0,.06c-.14,0,.07.08-.06.1l.07,0-.11,0h.13l-.13,0c.15.11.07.27.19.38l0,.2h0l0,.06-.06,0,0,0,.07.25c-.13.07.13,0,0,.09h.05l-.14.16c.14,0,0,0,.07,0h-.06l.09,0-.07,0h.06s0,.11.09.12l0,.33,0,.07.07,0-.06.07h0l0,.08.11,0c-.12,0,0,0,0,0s.35,1.42-.28,1.79l-.17,0,0,0-.23,0v0l0,0h.11l-.08,0,.13-.07h0l-.09,0h0l0,0,0,0,0,0h-.08v0h0l0,0c-.13,0,.06-.05-.06-.06h-.08v-.07h0l0,0-.08,0,0-.07-.06,0,0,0-.08,0c-.07-.12-.34-.17-.28-.28l-.08,0-.13-.17h0c-.16-.09-.07-.2-.14-.31h0l.08-.06h0c-.13-.08-.11-.28-.18-.42a6.18,6.18,0,0,0-.07-.62l.09,0c-.21,0,0-.11-.12-.16.06-.12-.13-.21,0-.33h-.06v0h0V19.7h.07l0,0h0l.07,0c-.12,0,0-.07-.07-.08l0-.14-.09-.09v-.27h.07v0h0l0-.07v0l.07,0h0l0,0H82l.06-.22c-.06,0,0-.06-.1,0l.17,0v0h-.08v0h0l0-.17h0l0-.1-.06,0,0-.06-.09.05.07-.07-.06,0H82L82,18.13h0Z" transform="translate(-4.36 -4.92)"/><polygon class="cls-1" points="77.55 10.99 77.56 11.01 77.51 11.02 77.55 10.99"/><path class="cls-1" d="M82.08,16.66h0Z" transform="translate(-4.36 -4.92)"/><path class="cls-1" d="M82,16.86h0Z" transform="translate(-4.36 -4.92)"/><path class="cls-1" d="M82,15.46h0Z" transform="translate(-4.36 -4.92)"/><path class="cls-1" d="M81.68,14.31h0Z" transform="translate(-4.36 -4.92)"/><path class="cls-1" d="M81.8,14.35h0Z" transform="translate(-4.36 -4.92)"/><path class="cls-1" d="M82,15.75h0Z" transform="translate(-4.36 -4.92)"/><polygon class="cls-1" points="77.42 9.46 77.44 9.47 77.42 9.47 77.42 9.46"/><path class="cls-1" d="M81.67,14.29v0Z" transform="translate(-4.36 -4.92)"/><path class="cls-1" d="M82,15Z" transform="translate(-4.36 -4.92)"/><polygon class="cls-1" points="77.33 9.55 77.33 9.56 77.32 9.56 77.33 9.55"/><polygon class="cls-1" points="77.26 9.31 77.25 9.32 77.25 9.31 77.26 9.31"/><path class="cls-1" d="M81.84,14.79l0,0Z" transform="translate(-4.36 -4.92)"/><path class="cls-3" d="M82.45,13a7.69,7.69,0,0,1,4.63-2.83c2.83-.39,5.27.47,5.27,1.41S91.17,15,85.08,15C81.68,15,82.45,13,82.45,13Z" transform="translate(-4.36 -4.92)"/><path class="cls-1" d="M85.08,11.27v0Z" transform="translate(-4.36 -4.92)"/><path class="cls-1" d="M86.78,10.83l0,0Z" transform="translate(-4.36 -4.92)"/><polygon class="cls-1" points="79.76 6.87 79.76 6.86 79.69 6.9 79.76 6.87"/><path class="cls-1" d="M90.45,11.13h0Z" transform="translate(-4.36 -4.92)"/><path class="cls-1" d="M88.3,10.75l0,0Z" transform="translate(-4.36 -4.92)"/><path class="cls-1" d="M83.24,11.66l.06,0Z" transform="translate(-4.36 -4.92)"/><path class="cls-1" d="M82.53,12.63h0Z" transform="translate(-4.36 -4.92)"/><path class="cls-1" d="M83,12.41v0Z" transform="translate(-4.36 -4.92)"/><path class="cls-1" d="M83,12.36v0Z" transform="translate(-4.36 -4.92)"/><path class="cls-1" d="M83,13.32l0-.07Z" transform="translate(-4.36 -4.92)"/><path class="cls-1" d="M91.19,12.42h0Z" transform="translate(-4.36 -4.92)"/><path class="cls-1" d="M82.58,13.21v0Z" transform="translate(-4.36 -4.92)"/><path class="cls-1" d="M83.66,11.17l.07-.09Z" transform="translate(-4.36 -4.92)"/><path class="cls-1" d="M91.81,14.11l0,0Z" transform="translate(-4.36 -4.92)"/><polygon class="cls-1" points="78.22 8.29 78.2 8.31 78.22 8.3 78.22 8.29"/><polygon class="cls-1" points="83.99 8.94 83.99 8.94 83.99 8.93 83.99 8.94"/><path class="cls-1" d="M88.15,13.84l0,0Z" transform="translate(-4.36 -4.92)"/><path class="cls-1" d="M82.9,13.25l0,0Z" transform="translate(-4.36 -4.92)"/><path class="cls-1" d="M86.14,14.14h0Z" transform="translate(-4.36 -4.92)"/><path class="cls-1" d="M88.16,10.72h0Z" transform="translate(-4.36 -4.92)"/><polygon class="cls-1" points="85.34 4.71 85.34 4.71 85.34 4.71 85.34 4.71"/><path class="cls-1" d="M89.62,9.68l.09,0Z" transform="translate(-4.36 -4.92)"/><path class="cls-1" d="M89.89,9.69h0Z" transform="translate(-4.36 -4.92)"/><polygon class="cls-1" points="83.82 4.58 83.82 4.58 83.82 4.58 83.82 4.58"/><path class="cls-1" d="M88.52,9.49l0,0Z" transform="translate(-4.36 -4.92)"/><polygon class="cls-1" points="86.39 4.81 86.39 4.81 86.39 4.81 86.39 4.81"/><path class="cls-1" d="M93.08,12.7a2.92,2.92,0,0,0,.16-.77A2.21,2.21,0,0,0,93.1,11a2.77,2.77,0,0,1-.35-.34l.09-.09-.13-.09.05,0h-.09c0-.05-.26-.26,0-.17a2.77,2.77,0,0,0-.37-.28l-.17,0,.05,0c-.22-.22-.4,0-.61-.1h-.1c0,.12.06,0,.11.05l-.13.09-.14,0-.22-.17-.2.08,0-.12,0,.05,0-.06h-.16l.07,0-.19,0h0l0,.1-.13,0,.06,0-.16,0v0l-.26,0h0l-.09.06,0,.11c-.06-.11-.13.09-.25,0l.07,0,.16-.21-.09,0,0,.09h-.07l0,.13,0-.06-.15,0h0c-.07,0-.17,0-.18-.11l0,0h0l0-.08-.14,0v.07c-.16.19,0-.13-.13-.12l0,.07-.17-.05-.08-.14-.21,0,.21,0,0,.07h-.23v.05l-.24.08.09-.06-.18,0,.08-.05-.12,0h0l-.16,0c-.17,0-.19.15-.28.23l0-.07.05,0-.1-.13,0,.08h-.13v.11h-.15l0-.08-.11,0,0,.13-.08,0,0,0-.09,0-.11,0-.1,0v.08l-.12,0,0-.18-.07.14-.07-.15h-.24l.09.08c-.18.08-.14.26-.28.26h0l-.09.12a.2.2,0,0,0-.29-.13l.1.12-.08,0v0l-.17,0-.12-.09,0,0-.09.11-.18,0,0,.12c0-.12-.16,0-.18,0l-.08.05,0-.08-.12.2c0-.15-.07.06-.17,0l-.08.19-.13-.08v.05l-.24,0v.12l0,0,0,.08,0,0-.06.12,0-.05-.08,0,.1.21,0,.1-.07-.07,0,.11-.13,0-.12-.14L83.9,11l0,0-.06.13L83.65,11l.08,0v0l.06,0-.07.11c.15.05-.06.18,0,.21l-.07,0-.13-.1.08.06h-.13v0l-.07,0,.06.07-.08,0,0-.16,0,.16,0,0,.08.07h0v.1h0v.05l-.07,0v.11l-.07,0L83,11.9,83,12c-.16-.06-.24.15-.32.26.12.06,0,0,0,.13l-.1-.08,0,.06c-.09,0,0-.12-.08-.13l-.08.23h-.09l0-.07h0c-.14.12.05.11,0,.22h-.14l0,.09h.14l-.09.18c.18-.07.07-.09.25-.13V12.6l.07,0,0-.1.13.07-.08-.09h.08l0,.14c.15,0,.07-.16.1-.26v0l0-.08,0,.08.06-.07h0l0,0,0,.12v-.13l.08.07.09-.12.07.05,0,0s.06-.26.15-.12c0-.13.09-.14.17-.26,0,.13.15,0,.09.1l.06-.14.07.13,0-.07v0l0-.07.11,0,0-.07h0l0-.08v0l0,0,.06,0,.09-.09,0,0h.12l0,0c.16,0,.13-.16.24-.16v.07l.19-.21.18.07,0-.1.17,0,0-.07,0,0,0-.05c.15.07.11-.15.26-.09v0l0,0,0,.07.18-.07-.06,0,.1-.08c0,.12.06,0,.1,0l0,0,0-.08h.08l0-.09,0,0,.16-.08,0,.07.15-.1v0l0,0,.08,0,0,0,.11,0v.06l.23-.05v0l.17,0v.05l0,0v.07l0-.11,0,.07v0c.07.12.12,0,.2.1l0-.09c.13-.2.4.05.59,0v.07l.08-.09v.09l.14-.12,0,.07.31,0v0h.23l0,.05h.09l0,.06.18,0,0-.07.21,0,0,0,.11,0,0,0,.19,0,.15.07,0,0,.07,0h0l0,.06.1-.12.13.08h0c.13,0,.18.21.3.12l0,0h.08l0,0L90,11v0l.32.06h0c.13,0,.1.06.2,0h0l.08,0,0,0,.11.07.12-.08,0,.09.14,0v0H91c.1,0,0,.12.16,0l0,.1.25,0v.08l0-.05,0,.16-.06,0,.07,0c0,.07,0,0-.07.12l0,.15h0l-.13.3,0,0,0,.07h.05l-.09,0,0,.08h0l0,0-.08,0v.16l0,0-.16.13h0l0,.11-.1-.08.07,0-.08.12v0l-.14,0V13l-.09,0L90.5,13c0,.14-.18.05-.13.16l-.08,0,0,.13-.11-.09,0,.13c-.28,0-.53.22-.84.2a.92.92,0,0,1-.38.2v0h-.15l.12,0-.08,0a1.19,1.19,0,0,0-.57.1c-.1.16-.11-.11-.21,0v-.05a1.79,1.79,0,0,0-.31.22c0-.15-.08,0-.08-.06v.06l-.1-.08-.05.08V14c-.08,0-.25.08-.31,0a1.51,1.51,0,0,1-.75.11l-.16.07-.07-.07-.17.08v0l-.18,0-.11-.1c0,.12-.14,0-.14,0l-.54,0a9.21,9.21,0,0,1-1.1-.12,3.38,3.38,0,0,1-.76-.24,1,1,0,0,1-.36-.36l-.15-.09,0,0-.22,0v0l0,0,.1,0-.09.05.1.15v0l-.1,0h0l-.06,0,0-.08,0,0-.08,0v.08l0,0,.06.09c-.13,0,.06.09,0,.15h-.09l.06.18h0l.05.06,0,.15c0,.15.12,0,.14.12h-.07l.09.09h-.11c.16.31.2.66.54.77l-.1,0c.26.05.27.25.48.33l0,0c.24.23.6.21.89.3l0,0,.16-.06,0,.1,0-.07a4,4,0,0,0,1.18.18c.53,0,1.13,0,1.66-.06v-.09c.19.19.28-.07.47,0,.3-.1.62,0,.88-.19v.05l.1,0v0c.12,0,.23-.09.3-.07V15.4h.1v0l.06-.08c0,.11.18-.05.25,0a1,1,0,0,1,.35-.16h.3l.69-.32,0-.07,0,0,0,0,.2-.07-.08,0,0-.1v0l0-.07.13.1c.19-.14.27-.29.48-.42,0,.07.13-.12.16,0,.09-.12-.08-.06-.07-.16l.07,0,.06.06.07-.06v0c.11-.18.32-.2.41-.37H92.2c.07-.19.17-.07.24-.25l0,.07.08-.17v.16l0-.19.14-.1-.08,0a1.1,1.1,0,0,0,.25-.33l0,0C92.9,12.78,93,12.85,93.08,12.7Z" transform="translate(-4.36 -4.92)"/><polygon class="cls-1" points="83.78 4.57 83.82 4.58 83.84 4.53 83.78 4.57"/><path class="cls-1" d="M90.22,9.69l0,0Z" transform="translate(-4.36 -4.92)"/><path class="cls-1" d="M90.75,9.68v0Z" transform="translate(-4.36 -4.92)"/><path class="cls-1" d="M87,9.77v0Z" transform="translate(-4.36 -4.92)"/><path class="cls-1" d="M84,11h0Z" transform="translate(-4.36 -4.92)"/><path class="cls-1" d="M84.16,10.94l0,0Z" transform="translate(-4.36 -4.92)"/><path class="cls-1" d="M87.76,9.67l0,0Z" transform="translate(-4.36 -4.92)"/><polygon class="cls-1" points="79.85 5.96 79.89 5.94 79.88 5.93 79.85 5.96"/><path class="cls-1" d="M83.9,11l0,0Z" transform="translate(-4.36 -4.92)"/><path class="cls-1" d="M85.84,10.14h0Z" transform="translate(-4.36 -4.92)"/><polygon class="cls-1" points="79.95 5.76 79.96 5.75 79.96 5.73 79.95 5.76"/><polygon class="cls-1" points="79.36 6.15 79.38 6.13 79.35 6.14 79.36 6.15"/><path class="cls-1" d="M85.17,10.3v0Z" transform="translate(-4.36 -4.92)"/><path class="cls-3" d="M77,7.89c3,0,5.4,6,5.4,6S75.67,16.2,72,11.42a.74.74,0,0,1,.09-1C73,9.59,75.13,7.89,77,7.89Z" transform="translate(-4.36 -4.92)"/><path class="cls-1" d="M79.66,9.94l0,0Z" transform="translate(-4.36 -4.92)"/><path class="cls-1" d="M80.66,11.71l0,0Z" transform="translate(-4.36 -4.92)"/><polygon class="cls-1" points="74.52 4.1 74.53 4.09 74.46 4.04 74.52 4.1"/><path class="cls-1" d="M80.56,13.48h0Z" transform="translate(-4.36 -4.92)"/><path class="cls-1" d="M81.35,13.13h0Z" transform="translate(-4.36 -4.92)"/><path class="cls-1" d="M78.74,8.1v0Z" transform="translate(-4.36 -4.92)"/><path class="cls-1" d="M77.4,7.74h0Z" transform="translate(-4.36 -4.92)"/><path class="cls-1" d="M77.85,8.05h0Z" transform="translate(-4.36 -4.92)"/><path class="cls-1" d="M77.91,8h0Z" transform="translate(-4.36 -4.92)"/><path class="cls-1" d="M76.81,8.46l.08-.07Z" transform="translate(-4.36 -4.92)"/><path class="cls-1" d="M76.82,13.45h0Z" transform="translate(-4.36 -4.92)"/><path class="cls-1" d="M76.83,8.07h0Z" transform="translate(-4.36 -4.92)"/><path class="cls-1" d="M79.4,8.44l.11.06Z" transform="translate(-4.36 -4.92)"/><path class="cls-1" d="M75.61,14.85h0Z" transform="translate(-4.36 -4.92)"/><polygon class="cls-1" points="72.46 3.15 72.44 3.14 72.44 3.16 72.46 3.15"/><polygon class="cls-1" points="69.12 6.9 69.12 6.9 69.13 6.9 69.12 6.9"/><path class="cls-1" d="M73.38,11.65l0,0Z" transform="translate(-4.36 -4.92)"/><path class="cls-1" d="M76.89,8.39l0,0Z" transform="translate(-4.36 -4.92)"/><path class="cls-1" d="M72.77,10.89h0Z" transform="translate(-4.36 -4.92)"/><path class="cls-1" d="M81.35,13.07h0Z" transform="translate(-4.36 -4.92)"/><polygon class="cls-1" points="77.9 9.53 77.9 9.53 77.9 9.53 77.9 9.53"/><path class="cls-1" d="M82.34,14.37l-.08.08Z" transform="translate(-4.36 -4.92)"/><path class="cls-1" d="M82,14.51h0Z" transform="translate(-4.36 -4.92)"/><polygon class="cls-1" points="78.19 7.83 78.19 7.83 78.19 7.83 78.19 7.83"/><path class="cls-1" d="M82.8,13.27v0Z" transform="translate(-4.36 -4.92)"/><polygon class="cls-1" points="76.52 9.95 76.52 9.95 76.52 9.95 76.52 9.95"/><path class="cls-1" d="M77.35,15.33c.37,0,.84-.07,1.19,0l.3-.12,0,.12.09,0v.07l0-.08s.25,0,.09.11h.37l.13-.08,0,.06c.28.07.29-.25.54-.22v0l.11-.06c0-.12,0,.07-.12,0l.08-.14.13,0,.29.06.15-.16.09.09v-.06l.07,0L81,14.8l0,.07.19,0-.06,0,.11,0-.06-.09.14,0,0,.06c.1-.06,0-.08.22-.09v0c.08-.1.24-.07.41-.11l0,0,.09-.09-.13-.07c.17.05.09-.14.3-.14l-.06.06,0,.24.15,0,0-.09.11,0-.1-.11.12,0c.11-.07,0-.09.13-.11l0,0c.13,0,.22-.09.37,0v.05h0l.15,0,.17-.09-.11,0c0-.17.11,0,.25,0v-.07c-.12-.17,0,0-.1-.07s0-.09-.06-.25l.11-.08L83,13.4c0,.14.16.18.12.33L83,13.66a1.7,1.7,0,0,1-.16-.35h0c-.11-.17-.21-.21-.26-.36l.13.13c0-.11,0-.11-.09-.27l.11.12-.1-.18h0l-.14-.23c-.09-.19-.22-.14-.34-.2l.06-.05,0,0,.07-.16-.08,0-.06-.12-.09,0-.08-.15H82l-.08-.1h-.14v-.1l0,0-.07-.07,0-.12,0-.11-.07,0-.06-.12.15-.08-.15,0c.09,0,0-.12.12-.11l-.1-.23,0,.12c-.12-.16-.29-.07-.34-.21v0l-.15-.06,0-.32-.09.13L81,10.54h0l-.1-.16,0-.15,0,.06-.13-.07L80.72,10l-.11.06V9.9l-.07-.07.07,0-.23-.09c.13-.09-.07-.07,0-.2l-.22,0,0-.15h0l-.09-.24H80V9l-.08,0,0,0-.15,0,.05,0,0-.1L79.6,9l-.11,0,.05-.09-.1,0-.06-.13.11-.14.16,0,0,0-.14,0V8.5h0v.07l-.13-.06c0,.17-.2,0-.2.07l-.07-.07.06-.15,0,.09,0-.13h0l0-.08,0,.08L79,8.25l.15-.07-.18,0,0,0,0,.1h-.09V8.15h-.06V8.09h-.13V8l-.19-.16-.07,0c0-.18-.27-.18-.43-.22,0,.14,0,0-.11.1s-.11-.14,0-.13h-.08c0-.09.15,0,.09-.13l-.3,0,0-.07.1,0,0,0c-.22-.06-.08.1-.21.14s-.09-.08-.1-.12H77.1l.1.13H77c.18.13.13,0,.29.15l.13-.07v.07l.11,0v.15l0-.12.05.08-.13.09c.1.13.2,0,.32,0l0,0h.1L77.81,8l.1,0h0l.06,0-.1.09L78,8.1l0,.1.15.05,0,.09v0s.28,0,.18.12a.82.82,0,0,1,.32.09c-.14,0,0,.17-.07.12l.15,0-.11.11h.14v.12l.06-.05v.06h.08l0,0,0,.07.1.08,0,0v.12l0,0c0,.17.2.12.22.23l-.07,0,.27.17,0,.2.11,0,.09.16.08.05v0l0,0c0,.17.17.11.15.27h0l0,0-.06,0,.12.18v-.06l.1.09c-.12,0,0,.06,0,.11l0,0,.09,0,0,.14,0-.05h.1l0,0,.13.15-.06.05c.12.09,0,.06.15.15h0l.06,0,0,.1,0,0,.08.1h-.06c.1.1,0,.17.14.24h0c.13.06,0,.12.11.17l0,0,0,0-.06,0,.11,0,0,.07h0c-.09.11,0,.13,0,.25l.07-.06c.25.08.13.44.31.61l-.06,0,.12,0-.09,0,.18.1-.09,0,.17.26h0l.05.1h-.05l0,0h-.06v.06l.1,0c-.12,0,.07.06,0,.08l0,0,.09.06-.06,0,.11.1h-.13l.06,0-.08,0h0l-.06,0,.11.11-.12,0h0l-.15,0v0h0v0l-.29.07v0c-.12.08-.13,0-.23.05v0l-.09,0,0,0h-.16l-.09.13-.1-.06-.17.05v0l-.13.05,0,0c-.1.08-.14-.09-.2.07l-.13-.06a2,2,0,0,1-.35.11l-.1,0v.06c-.18,0-.39-.13-.58-.11v-.06l0,.07a5.87,5.87,0,0,0-.64-.08l-.23.05h0a1.08,1.08,0,0,1-.47,0l0,0-.13,0,0,.05-.13-.07-.08.05v0l0,0,0-.08-.16.07v-.06l-.26-.08,0,0-.14,0,0-.13v.09l-.17,0h0L76,13.22l-.11.07,0-.09-.14-.08c-.09.12-.18-.12-.24,0l0-.08-.11.08V13l-.08.1c-.19-.25-.59-.3-.78-.58a1.77,1.77,0,0,1-.43-.19h0L74,12.18l.07.11-.11,0a1,1,0,0,0-.44-.44c-.2,0,0-.15-.16-.16l.06,0c-.15-.05-.2-.11-.37-.16.12-.08-.06-.06,0-.11l-.05,0v-.13h-.09l0,0-.12-.12,0-.09h0l0-.07,0-.05.07,0,0-.06h0l0-.08H73l.12-.09s.75-.55,1.6-1.06,1.76-.91,2.13-1.21l.06-.17.1,0-.06-.22.06,0-.06,0,0,.11-.08-.07-.16.14h0l-.08-.08h0l-.07-.05L76.64,8l0,.05,0-.08-.08,0V8l-.1.07c0-.12-.1.08-.17,0V7.91L76,8l0,0L76,8l-.16,0c-.14,0,0,.12-.15.11l0-.08L75.55,8l0-.09c-.35,0-.64-.12-.91.08l0-.1c-.18.18-.36,0-.54.13l0,0c-.33,0-.58.26-.87.38h0l-.1.15-.09,0,.07,0a4.38,4.38,0,0,0-1.13.63l-.35.3a4,4,0,0,0-.54.51,1.5,1.5,0,0,0-.17,1.51c-.06-.15.08-.12.09,0a.39.39,0,0,0,.14.38l.24.32c.3.21.36.62.74.71l0,0,.1.06h0l.27.22,0-.05.08.09,0,0h.1l.18.22.38.19.23.25c.19.12.49.24.74.37l0-.07.07,0,0,0,.2.12-.08,0,.1,0h.06v.16c.23.09.42,0,.65.14l.09.13c.16,0,0-.1.1-.15l.08,0,0,.08.1,0,0,0c.21,0,.34.16.53.14l0-.07c.2,0,.14.11.32.09l0,0h.17l-.13.06.18,0,.13.08v-.07a1.34,1.34,0,0,0,.37.08v.05C77.24,15.18,77.21,15.33,77.35,15.33Z" transform="translate(-4.36 -4.92)"/><polygon class="cls-1" points="78.17 7.76 78.19 7.83 78.25 7.85 78.17 7.76"/><path class="cls-1" d="M81.48,14.69l0,0Z" transform="translate(-4.36 -4.92)"/><path class="cls-1" d="M80.9,14.92l0,0Z" transform="translate(-4.36 -4.92)"/><path class="cls-1" d="M81.74,11.58h0Z" transform="translate(-4.36 -4.92)"/><path class="cls-1" d="M79.69,8.72v0Z" transform="translate(-4.36 -4.92)"/><path class="cls-1" d="M79.76,8.94l0,0Z" transform="translate(-4.36 -4.92)"/><path class="cls-1" d="M82.17,12.31l0,0Z" transform="translate(-4.36 -4.92)"/><polygon class="cls-1" points="75.47 4.05 75.5 4.09 75.51 4.08 75.47 4.05"/><path class="cls-1" d="M79.65,8.67l0,.05Z" transform="translate(-4.36 -4.92)"/><path class="cls-1" d="M81,10.54Z" transform="translate(-4.36 -4.92)"/><polygon class="cls-1" points="75.7 4.13 75.7 4.14 75.73 4.14 75.7 4.13"/><polygon class="cls-1" points="75.14 3.58 75.17 3.58 75.15 3.56 75.14 3.58"/><path class="cls-1" d="M80.66,9.88l-.06,0Z" transform="translate(-4.36 -4.92)"/></g></g></svg>