<svg xmlns="http://www.w3.org/2000/svg" viewBox="0 0 58.67 71.52"><defs><style>.cls-1{fill:#ffb800;}.cls-2{fill:none;}.cls-3{fill:#060809;}.cls-4{fill:#0d1011;}.cls-5{fill:#66ef5b;}</style></defs><g id="Layer_2" data-name="Layer 2"><g id="Layer_1-2" data-name="Layer 1"><path id="face_bg" data-name="face bg" class="cls-1" d="M58.67,50.13c0,13.61-12.47,21.39-26.08,21.39S9.39,63.74,9.39,50.13a24.64,24.64,0,0,1,49.28,0Z"/><path class="cls-2" d="M51.6,46.52c0,13.6-12.46,21.39-26.07,21.39S2.33,60.12,2.33,46.52a24.64,24.64,0,1,1,49.27,0Z"/><path class="cls-3" d="M41.53,62.67a.45.45,0,0,0,0-.08A.13.13,0,0,0,41.53,62.67Z"/><path class="cls-3" d="M30.72,66.09l.13-.06C30.76,66.05,30.73,66.07,30.72,66.09Z"/><path class="cls-3" d="M46.78,58.32s0,0,0,0l.3-.38Z"/><path class="cls-3" d="M8.94,59.66l.1.1Z"/><path class="cls-3" d="M20.9,66a.39.39,0,0,1-.19,0C20.8,66,20.87,66,20.9,66Z"/><path class="cls-3" d="M50.27,56.1l-.21.12S50.18,56.2,50.27,56.1Z"/><path class="cls-3" d="M52,48.83l0,0S52,48.85,52,48.83Z"/><path class="cls-3" d="M51,51.56a1.41,1.41,0,0,0,0,.21C51,51.69,51.08,51.58,51,51.56Z"/><path class="cls-3" d="M51,51.87v-.1S51,51.87,51,51.87Z"/><path class="cls-3" d="M50.14,45.45a1.48,1.48,0,0,0,.17.54Z"/><path class="cls-3" d="M5.33,40l0,.06C5.36,40,5.34,40,5.33,40Z"/><path class="cls-3" d="M51.12,45.66v.15A.39.39,0,0,0,51.12,45.66Z"/><path class="cls-3" d="M48.27,59.61c-.06.25-.43.53-.36.59C48.05,60,48.32,59.79,48.27,59.61Z"/><path class="cls-3" d="M3.36,34l.06-.14A.48.48,0,0,0,3.36,34Z"/><path class="cls-3" d="M51.12,45.66l0-.17,0,.06A.2.2,0,0,1,51.12,45.66Z"/><path class="cls-3" d="M20.11,25h0l0,0Z"/><path class="cls-3" d="M21.27,24.9,21,25A.38.38,0,0,0,21.27,24.9Z"/><path class="cls-3" d="M50.31,46l.11.31A1.15,1.15,0,0,0,50.31,46Z"/><path class="cls-3" d="M33.56,25h-.12A.26.26,0,0,0,33.56,25Z"/><path class="cls-3" d="M21.8,66.14l.1,0S21.91,66.14,21.8,66.14Z"/><polygon class="cls-3" points="11.99 66.18 11.98 66.18 11.98 66.18 11.99 66.18"/><path class="cls-3" d="M12.53,66.3a.88.88,0,0,0-.54-.12A1,1,0,0,0,12.53,66.3Z"/><path class="cls-3" d="M11,65.56l0,0S11,65.57,11,65.56Z"/><path class="cls-3" d="M21,69.16h0Z"/><path class="cls-3" d="M19,68.83a.41.41,0,0,0-.13-.08A.32.32,0,0,0,19,68.83Z"/><polygon class="cls-3" points="6.63 62.45 6.63 62.45 6.62 62.45 6.63 62.45"/><path class="cls-3" d="M0,43.52A32.78,32.78,0,0,0,.05,47c.11,1.18.16,2.34.32,3.36A7,7,0,0,1,.92,52l-.28.13.22.51c0,.24-.15-.39-.17,0l.23.16c-.09.06.27,1.39-.16.54a13.75,13.75,0,0,0,.64,2.07c.15.46.33.18.44.7-.05.14-.12-.15-.21-.07a2.67,2.67,0,0,0,.87,1.48,4.25,4.25,0,0,1,1,1.3l-.1-.08c.2.17.45.58.49.56.16-.32-.28-.14-.37-.61.24-.09.42.4.57.27.1.34.33.43.5.67.11.53.67,1,.75,1.43a2.75,2.75,0,0,1,.92.6c.1.42-.21.07.09.49l.17,0c.28.31.2.3.14.33.32.33.41.13.75.59l-.33-.12c.35.25.43.42.87.8-.06.05-.25-.09-.35-.24.08.39.48.28.59.41,0-.08-.29-.35,0-.34.21.2.61.23.65.49L8.44,64c.54.29.37.06.87.53,0,0-.05,0-.08,0a6.78,6.78,0,0,1,1.37.93l-.13,0c.25.1.44.06.55.15-.26-.27-.16-.25-.11-.39.28.45.74.18,1.36.63,0,.07-.27.07-.41-.1-.37.11-.49.25-1,.1.28.11.6.27.48.32l.2-.16.4.22c.14-.1-.2-.38.21-.28s.11.33.22.27c.62.2.35-.11.87.23-.07,0-.19,0-.23-.07a3.59,3.59,0,0,0,.63.37c.21.1.37.2.38.35s-.13.11-.28,0l0,0c-.53,0,.4.1.16.28,0-.16.6.1.85.23l0-.19c1.05-.15-.16.3.73.57.59.09-.2-.12.18-.11a3.4,3.4,0,0,0,1.05.42c.14.11.43.29.41.48.36,0,1,.37,1.27.21-.56-.27-.64.07-1.27-.36l.24-.13c.47.16,1.1.18,1.42.31-.06,0-.08-.1,0-.13a6.15,6.15,0,0,1,1.56.1c.06.18-.32.08-.6,0,.4.21.44.12,1.09.25,0,.15-.44-.06-.54.07l.74,0v0c.14-.24.56.09,1,.06,1.07.14,1.26-.23,1.85-.4.16.07.2.14.13.2-.26-.12-.21,0-.31,0,.36,0,.78.27.57.37.58,0-.2-.14.16-.21l.78,0c-.09-.13-.37-.17,0-.26h.94c-.06.06.15.19-.19.19.22,0,.56,0,.68-.09-.49-.1.79-.14.42-.33l.49.1c-.11,0-.12.09-.28.07.15.19.39-.07.56-.09s.61,0,.66.07a.76.76,0,0,1,.6,0c.23-.07,0-.13.07-.2l.77-.07c.05.1.16.4,0,.45.29-.13.07-.33.51-.37-.22.25.61.08.28.38A2.92,2.92,0,0,0,32.22,69c.22-.21-.45,0-.45-.18,1.11-.29,1.08-.71,1.89-.84h-.21a1.9,1.9,0,0,0,.67-.4c-.09.24.71.4,1.52.14,0-.12-.52-.07-.43-.27s.36-.11.53-.18,0,0-.07.1c.45-.23,1,0,1-.33l.59.13-.24-.06c0-.12.55-.34.65-.42a1.62,1.62,0,0,1,1.06-.32c-.13,0-.43-.12,0-.34.13.32.91-.27,1-.1.16-.08.51-.12.46-.25l.07.2c-.09-.28.5-.59.92-.89.1.41.48-.3.86-.09,0-.27.73-.56.68-.82.31-.23.42,0,.56,0l.09-.19a6,6,0,0,0,1.28-.62l.18-.46H45c0-.09.26-.34,0-.27l.18-.13c-.16-.22.19-.26.46-.63.1,0,.12,0,.07.12.18-.15.19,0,.35,0-.15.07.25-.9-.25-.57-.1,0,.08-.35.26-.47l.26.08v-.37c.21-.26.42-.26.63-.44-.18.21-.1.77.4.23A3.17,3.17,0,0,0,47,61c.11-.1.18-.14.08.1.36-.47,0-.24.41-.68.14.17.31.11.7-.23-.11.07-.25.12-.37.18a.14.14,0,0,1,0-.09c-.12.09-.17.09-.26.06.1-.07.26-.66.4-.66-.6.24.42-.95,0-.79,0-.09.22-.4.33-.37-.16.47.41-.14.48,0,.06-.18-.35.2-.27,0a1.42,1.42,0,0,1,.54-.4l0,.11a2,2,0,0,0,.33-.31c0-.12-.37.26-.21-.11.09-.07.26-.45.32-.39,0,.24.26.23.11.55.14-.26.6-1.07.23-.85l.19-.29c-.19.14-.64.57-.31,0l0,0,.1-.48.21-.13c-.05,0-.06-.1,0-.25s.17-.15.24-.1c.2-.47.09-.48.06-.57.1-.26.19-.34.25-.17A6.44,6.44,0,0,1,51.29,54c.08-.54-.07.08-.11-.26.47-.31.69-1.61.81-2.45-.35.16,0-.23-.25-.45.07.21.39-.74.34,0l.05-.45c.23-.28,0,.77.32.35.09-.52-.21-.91,0-1.49.21.23,0-.47.2-.29a.77.77,0,0,1,0,.48l.07-.11c.16-1.12-.25-.35-.36-.95s.21-.53.32-.56a1.39,1.39,0,0,0,0-.64c.11.43-.19.77-.32.57.27-.29.07-1,0-1.19-.33.95,0,.67-.4,1.55.08.13.31.13.18.66-.09-.35-.13,0-.17.1.14-.09,0,.38,0,.55s-.25-.36-.4.17l.3.14c-.09.21-.22-.12-.22.34-.12-.27-.27,0-.21-.58-.4.67-.05,1.11,0,1.7,0-.06-.05-.08-.06-.14a1,1,0,0,1,0,.52c-.18.34-.05-.32-.18-.25a5.47,5.47,0,0,1-.15.58h0c0,.16,0,.31-.11.34a2.93,2.93,0,0,0-.18-.42l0,.65c-.08-.09-.32.44-.26,0l-.23.89H50c0,.22,0,.24.11,0-.14.28-.21,1.42-.52,1.1A6,6,0,0,1,49,56.16c.17-.67-.61.53-.33-.12-.29.3-.13.5-.27.79s-.34,0-.24-.34l-.11.38,0,0-.07.36c-.3.22-.22-.07-.46.2l.11.18-.24.13c.12,0,0,.17-.13.39l0,0-.17.27c.11-.32-.21.21-.22,0-.18.2-.16.23-.47.61l.16,0c-.37.54-.16-.11-.53.25l.13.08c-.71.36-.77,1-1.31,1.29.22-.23,0-.31.07-.27a8.2,8.2,0,0,0-1.22,1.27c-.28-.06-.33-.06-.81.14-.3.22-.33.26-.36.43-.34.14-.82.62-.92.49,0,.16-.28.17-.4.35l-.07,0,.11.11c-.72,0-.85.69-1.55.74l.08-.08-.21.18c-.07,0,0-.13,0-.21-.36.19-.76.33-1.14.49h.27c-.23.12-.34.32-.65.36.37-.41-.38.16-.52,0l.22-.17c-.33.16-.33.16-.24.29-.42.23-.41-.15-.76.15l.29-.1c.12,0,0,.24-.25.31,0,0-.21,0-.07-.09-.33.18-.89.29-1,.4s-.17-.1-.08-.17c-.72.38-.35.09-1.08.43v-.09l-.24.17-.43-.07.16.07a2.74,2.74,0,0,1-.7.21l.09-.16c-.7.27-.88,0-1.53.29-.05,0,.05-.07.1-.1-.6.31-.52-.13-1.12.23,0,0-.05-.09,0-.13l-.28.13v-.17l-.2.28L30,66.18l-.1.09c-.36-.29-.78,0-1.23-.2l.09.21a2.08,2.08,0,0,1-.85.24,5.24,5.24,0,0,1-1,0,10.31,10.31,0,0,0-2-.08l0-.17-.55.18c-.29-.14.18-.14.09-.23-.58.08-.25.25-.93.27-.34-.13.13-.12.29-.18a5.7,5.7,0,0,1-2-.08s0,0,0,.06a6.09,6.09,0,0,1-1.43-.18c0-.08.14-.07.26-.06a1,1,0,0,0-.53-.09l.2-.11c-.34-.1-1-.1-1.08-.28,0,.07,0,.19-.31.13-.11-.27-.83-.1-1.26-.37.07,0,.42,0,.32,0a1.09,1.09,0,0,0-.69-.06l.1-.08c-.38-.07-.77-.1-1.13-.2-.07-.31-1-.35-.86-.5-.38-.16.27.23-.22.07-.08-.15-.45-.12-.36-.26H15a1.64,1.64,0,0,1-.33-.14l.26-.05c-.28-.1-.55,0-.62.06-.22-.22-.62-.33-.66-.53l.11,0c-.78-.29-.92-1-1.6-1.14,0,0,0-.08.09,0l-.41-.27.17,0a5.2,5.2,0,0,1-.77-.32l.06-.06c-.37-.37-1.1-.8-1.57-1.29l.1,0c-.62-.43-.45-.56-.91-.88l.07,0a3.87,3.87,0,0,1-.32-.37l.13,0c-.37-.16-.45-1-.44-.68-.19-.11-.49-.32-.61-.31-.33-.42,0-.16-.11-.48s-.36-.3-.57-.79l.08,0a5.59,5.59,0,0,1-.46-.58l.08.07c-.4-.42-.08-.73-.6-1,0-.24-.29-.62-.12-.67-.36-.6-.57-1.1-.88-1.73.23-.19-.07-.14,0-.6L5,52.63a9.46,9.46,0,0,1-.22-1.56,8.23,8.23,0,0,0-.11-1.65l.15-.05-.19-.19c-.07-.59,0-1.28,0-1.92a15,15,0,0,1,.06-1.73,3.43,3.43,0,0,1-.15-1.27l0,.05a10.37,10.37,0,0,1,.36-2.66c0,.07.12,0,.13.1-.11-.25.13-.53.18-.72l-.16.2a.78.78,0,0,1,.29-.72l0-.45s0-.06.08-.06l-.06-.09.25-.16c0-.1.14-.64,0-.86.08,0,.26-.37.19-.07a13.45,13.45,0,0,1,.61-1.4l-.17.19c-.15,0,0-.49.13-.68,0,.33.19.11.34,0s-.19.11-.22,0a1.93,1.93,0,0,1,.34-.89l0,.16c.11-.34.39-.38.57-.67s.28-.47,0-.55c.2-.41.24-.06.34-.17s.41-.75.55-.74c-.18-.44.84-.9.63-1.17l.37-.19a.39.39,0,0,1,0-.5c.24-.17.31,0,.43,0l-.11-.34c.71-.48,1.3-1.23,2.06-1.83.37-.32.73-.65,1.11-.94a12.84,12.84,0,0,1,1.2-.73,11.69,11.69,0,0,1,2.21-1.62l-.07.09c.27-.14.58-.22.86-.34l-.67.16a2.72,2.72,0,0,1,.46-.32c.5-.16,1-.37,1.64-.58A9.59,9.59,0,0,0,20.1,25c.67-.58.61.17,1.28-.28-.05.05-.06.1-.11.15.77-.33,1.19-.52,2-.83,0,.37.54-.09.5.11l0-.16c.2.06.64,0,.59.14a3.5,3.5,0,0,1,.35-.23l.05.15c.48,0,1.54-.19,1.8.1a8.67,8.67,0,0,1,2.21-.08,17.7,17.7,0,0,1,2.4.38,2,2,0,0,1,1,.08l.32.27c.35,0,.78-.09,1.07.1a.05.05,0,0,1,0,0c.35.07.64.29,1,.25.37.14.69.36.52.48.14-.27.76.32.75.34l.77.4.9.46c.34.2.7.45,1.11.71a24.12,24.12,0,0,1,5.5,4.87,25.8,25.8,0,0,1,4.16,7.16c.42,1.21.86,2.33,1.1,3.34.14.5.32,1,.43,1.38a8.63,8.63,0,0,0,.33,1.1c.15.17.27.64.44.46.07.37-.18.54,0,.61.07-.51.39.16.55-.35l0,.33c.11.06-.14-.44.05-.36l-.28-.09a.82.82,0,0,1,.17-.5c-.12-.25-.5-.38-.37-1l0,.16c0-.47.16-.31.2-.41v.11l.12-.42c-.07.31.17.8.14.54,0-.58-.06.15-.11-.27,0-.27.12-.21.21-.21,0-.16-.06-.31-.08-.47.13,0,0,.31.14.1l-.23-.58c.31-.16-.25-.63,0-1,.14.42.1-.06.21,0a6.44,6.44,0,0,0-.22-1.06c0-.11.17.26.11.1s-.16-.31-.19-.42-.2-.79,0-.81c0-.76-.33-.23-.4-.93.11-.13.18.52.23.18s-.19-.44-.28-.66a.41.41,0,0,1,.31.33,22.3,22.3,0,0,1-.43-2.5,6.8,6.8,0,0,0-.85-2.25c0-.3.18.11.35.24-.83-1.07-.66-1.81-1.31-2.78l-.11.06a9.3,9.3,0,0,0-1.39-2.22c-.63-.68-1.22-1.41-1.86-2.08l.1.21a4.32,4.32,0,0,1-.84-.5c0-.08.35-.06-.08-.37.05.1.18.29.09.29a7.55,7.55,0,0,0-1-1.1c-.43-.38-.94-.79-1.47-1.21s-1.15-.77-1.74-1.16a19.53,19.53,0,0,0-1.77-1.05,27.05,27.05,0,0,0-10.42-2.71c.53,0,.28.31-.11.22-1.07-.62-1.87.07-3-.24-2,.3-3.88.2-5.6,1.1l-.07-.13c-.29,0-.34.11-.62.23v-.05c-.68.19-1.42.62-1.83.69l0,.17c-.38.16-.25-.06-.6.2l0-.08-.38.36c-.08-.29-1.06.48-1.42.51-.47.25-1.25.94-2,1.29a1.62,1.62,0,0,0-.68.26c-.3.18-.64.41-.92.57a38.37,38.37,0,0,0-3.43,3.05l.16.11-.27.31s-.08,0-.05-.07c-.38.09-.59.75-.92.91.28,0,.22-.2.38-.37s.22.17-.16.45l0,0-.13.3c-.15-.08-.38.1-.51,0-.79,1.13-1.17,2-1.92,3.15-.07-.21-.49.88-.59.49-.34.78.27,0,.26.43-.13.19-.17.45-.28.43s-.24.09-.18-.09l-.23.51s0-.09,0-.15c-.35,1.1-1.09,1.74-1.25,2.78.07.11.17-.37.24-.26-.15,1-.49.79-.68,1.74l-.07-.23a1.58,1.58,0,0,1-.15.95c-.19.05,0-.45,0-.72-.1.34-.28,1.22-.06,1a1.65,1.65,0,0,1-.34.74S1,40,1,40.21a8.58,8.58,0,0,0-.33,1L.47,42.3s-.11,0-.12,0C.48,42.86.11,42.74,0,43.52Z"/><path class="cls-3" d="M21.31,69.22,21,69.16s0,.08-.16.11Z"/><path class="cls-3" d="M9.23,64.52l-.1,0S9.21,64.53,9.23,64.52Z"/><path class="cls-3" d="M6.6,62.61c.19.14.08,0,0-.15S6.57,62.51,6.6,62.61Z"/><path class="cls-3" d="M28.56,68.9s-.07,0-.06.09S28.57,68.92,28.56,68.9Z"/><path class="cls-3" d="M46.74,61.28l-.07,0A.13.13,0,0,0,46.74,61.28Z"/><path class="cls-3" d="M45.74,61.87a.8.8,0,0,0-.15.16A.54.54,0,0,0,45.74,61.87Z"/><path class="cls-3" d="M23.73,69a.41.41,0,0,0-.21,0A.39.39,0,0,0,23.73,69Z"/><path class="cls-3" d="M45.43,62.21l-.22.17v0Z"/><path class="cls-3" d="M47,61a2.75,2.75,0,0,1-.27.24A.64.64,0,0,0,47,61Z"/><path class="cls-3" d="M35.67,67.33l0,0C35.46,67.47,35.58,67.41,35.67,67.33Z"/><polygon class="cls-3" points="44.67 63.23 44.63 63.25 44.6 63.34 44.67 63.23"/><path class="cls-3" d="M47.91,60.2a.37.37,0,0,0-.07.12l.12-.11Z"/><path class="cls-3" d="M39.66,66.06c.05-.09.06-.14.05-.17S39.58,66,39.66,66.06Z"/><g id="eyes"><ellipse class="cls-4" cx="38.12" cy="43.86" rx="3.15" ry="3.63"/><ellipse class="cls-4" cx="15.82" cy="43.86" rx="3.15" ry="3.63"/></g><g id="sprout"><path class="cls-3" d="M26.29,10h0Z"/><path class="cls-3" d="M26.81,11v0Z"/><path class="cls-3" d="M26,9.39h0l0-.05Z"/><path class="cls-3" d="M27.52,13.29v0S27.53,13.28,27.52,13.29Z"/><path class="cls-3" d="M27.09,11.94l0,0S27.06,12,27.09,11.94Z"/><path class="cls-3" d="M25,9.34h0Z"/><path class="cls-3" d="M25,8.65h0Z"/><path class="cls-3" d="M25.36,8.81l0,0Z"/><path class="cls-3" d="M25.33,8.85v0Z"/><path class="cls-3" d="M27.88,21.76s-.05,0-.09.06Z"/><path class="cls-3" d="M27.82,15.39h0Z"/><path class="cls-3" d="M27.33,21.8h0Z"/><path class="cls-3" d="M24.93,9.71c-.06,0,0,0,0,.06S24.85,9.74,24.93,9.71Z"/><path class="cls-3" d="M25.53,16.07v0Z"/><path class="cls-3" d="M27.33,21.8l0,0h0A0,0,0,0,0,27.33,21.8Z"/><polygon class="cls-3" points="28.05 17.59 28.05 17.59 28.06 17.58 28.05 17.59"/><path class="cls-3" d="M28.16,17.7l0,0Z"/><path class="cls-3" d="M27.79,21.82l0,0S27.77,21.83,27.79,21.82Z"/><path class="cls-3" d="M28.15,19h0S28.16,19,28.15,19Z"/><path class="cls-3" d="M27,11.86h0S27.05,11.85,27,11.86Z"/><polygon class="cls-3" points="25.55 12.98 25.55 12.98 25.55 12.98 25.55 12.98"/><path class="cls-3" d="M25.62,12.93s0,0-.07.05S25.56,13,25.62,12.93Z"/><path class="cls-3" d="M25.59,13.07Z"/><polygon class="cls-3" points="25.32 12.21 25.33 12.21 25.32 12.21 25.32 12.21"/><path class="cls-3" d="M25.35,12.38h0Z"/><polygon class="cls-3" points="25.49 13.54 25.49 13.54 25.49 13.54 25.49 13.54"/><path class="cls-3" d="M25.25,15.27c0-.17.12-.41.06-.57a.19.19,0,0,0,.14-.16l-.17,0,0-.05s0,0-.1,0l.11,0c-.06,0-.06-.11-.17,0l0-.17s.13,0,.09-.08,0,0-.1,0,.31-.19.22-.3l0,0s0-.07.05-.07c.18,0-.08,0,0,0s.07,0,.18-.06c-.05,0,0-.05,0-.08s0-.09-.16-.11c.05,0,.19-.07.18-.11s-.1,0-.15,0l.08,0s0,0-.08,0,.11,0,.05-.08l-.08,0s0-.05,0-.09,0,0,0,0,.05,0,0-.06.06,0,.14,0,.11-.07,0-.07l-.08,0c.06-.06.1,0,.06-.09h0c.1-.06,0-.09,0-.14h0s.09,0,.08-.06.08,0,.16,0c-.14,0,.15-.09.06-.14s-.1,0,0,0a1.35,1.35,0,0,0-.32.12s0-.07,0,0l.13,0s0,0,0,0,.14,0,.19,0-.14,0-.08,0,.13,0,.08-.09l0,0s0-.1-.15-.08-.08,0-.06,0h0c-.1.06,0,0-.11,0,.08,0,.06-.06,0-.08h.09c.28-.12-.19,0-.16,0s0,0,.09,0-.11,0-.07-.08a.42.42,0,0,0-.21,0s-.06-.08,0-.12-.1.07.05.1l.1,0s0-.1,0-.12h.07c0-.06.13-.1.08-.15s-.07,0-.07.07,0,0-.06-.09,0,0-.07.06l0-.07h0c.14,0,0,0,0-.09s.17-.13.27-.2H25.5c.07,0,0,0,0,0s-.15,0-.2,0,.08,0,.12,0l0-.07c.08,0,.1,0,.15,0s0,0,0-.08-.11,0-.1,0,0,0,0-.07.05-.08.16-.07l-.07,0s0,0,0,0,0,0,0-.06,0-.05-.09,0,0,0-.06,0,.07,0,.11,0l0-.07a1.15,1.15,0,0,0-.25.06c.05,0,.17,0,.16-.08s-.1,0-.23,0-.1-.06-.08-.1.06,0,.15,0,.27-.16.21-.22h0l.11-.09c-.11,0-.33,0-.32-.05s.12,0,.21,0v-.05l0,0c0-.06-.17-.05,0-.09h-.1c.06,0,.06-.08.08-.09s0-.07-.08-.08.17,0,.18-.05c-.19.05-.09-.06-.19,0s-.07,0,0,0l-.12,0c.17,0,.15-.09.17-.14-.22.06,0-.05-.21,0,.15,0,0-.09.17-.13s-.14,0-.19,0l.05,0c-.08,0-.1-.06-.16-.08l.12-.07h-.06s0,0,.1,0l0,0c.15,0,0,0,.09-.09a.11.11,0,0,0-.08,0s-.08,0-.13,0,.24-.14.32-.1.1-.06.07-.07l-.14,0,.13-.06s-.07,0-.09-.05-.24.13-.25.07-.08.07-.1.09,0,0-.07,0,.07,0,.08-.09-.16,0-.21,0h.12a.11.11,0,0,0,.08,0s.13-.1.06-.09c.19,0,.12-.12.23-.12s0-.05,0,0-.14,0-.22,0,.09,0,.13,0-.08,0-.12,0v0l-.07,0c.06,0,.11,0,.13,0s0,0-.05,0-.18.06-.19.1,0-.11.11-.11l0,0c.06,0,.16,0,.16,0h0l.07-.07h-.06s.05,0,0,0H25s0-.06.09-.07,0,0-.09,0,0-.08-.1-.08,0,0,.09-.05c-.21,0-.12-.11-.12-.19.18,0,0,0,.17-.09-.05,0-.16,0-.18.06v0c-.1,0-.05.08-.19.09s.17-.14.09-.16,0,0-.1,0,0,0,0,.05h0c-.06-.08.14-.08.21-.16s-.11,0-.17,0,0,0,0,0,.09,0,.17,0c-.15,0,0-.07,0-.11s0,.05.21.07c0,0-.17.07-.1.09s.07,0,.09,0,0,0-.05.07.16-.09.21-.05L25,8.73s.12-.05.09,0,.14,0,.15-.1c.17,0,0,.12-.09.19l0,0s0,0,0,.06.07-.06.12-.06l0,0h0s0,0,0,0l.15-.09-.1.1c.05,0,.11,0,.14,0v.08l.12,0s0,0-.06,0-.16.18.06.1c-.07.09,0,.1-.06.2.09-.1.16,0,.19-.06s-.06.07-.07.11a.3.3,0,0,0,.2-.08l0,.05h0l-.06,0c.07,0,.12,0,.15,0l-.1,0h.06c-.05,0-.06,0-.06.05h0v0c.05-.05,0,0,.1,0s0,0,0,.07l-.07,0c-.05.07.1,0,.12,0l-.08,0c.16,0,0,.14.06.17s.11,0,.08,0,0,.12-.06.19c.12,0,.16,0,.23,0s0,0-.08.07,0,.1.1.08c-.07,0,0,0,0,.06h0l-.08,0c.2,0-.08.13.09.15l0,0,0,0,.1,0,0,.12h-.06s-.08.06,0,.08,0,0,.11,0l0,0s0,0-.08,0,.16,0,.08.05v0c-.05,0-.11,0-.1,0a0,0,0,0,0,.06,0c0,.05,0,.09,0,.11s.09,0,.1,0,0,0,0,.12h0l0,0h0s0,.05,0,.08l.06,0c0,.08.14,0,.05.14l0,0c-.1.09.13,0,0,.11h.08l0,0,.09,0-.13.05h.1l0,0c.18,0,.06.07.2.08l-.12,0c-.23.15.18.21.09.36l.1,0-.1.07c.08,0,.07,0,.12,0s-.13.05-.15.12.07,0,.1,0-.07.17,0,.2h0c0,.05,0,.09,0,.14s0,0,0,0,.05,0,0,0l.08,0s0,.11.06.1-.11,0-.1,0,0,.09,0,.13a.06.06,0,0,0,0,0c.05,0,0,0-.06.08l.06,0-.07.13c.15,0,0,.11.1.08s-.07,0-.07,0,0,.05.07,0h0v0l.09,0a.28.28,0,0,1-.18.09c.06,0,0,.07.11.07l0,0c0,.09.28.09.13.18h0l0,.05.06,0-.09.1h.05a.7.7,0,0,1,0,.21h0c-.06.08.06.06,0,.13h0v.05l0,0c-.09,0,.15.09.06.08a.53.53,0,0,1-.15.08c0,.06.07,0,.11,0s-.07.05,0,.1h.05s0,.05,0,.09l0,0c-.09.07.15.05-.05.13,0,0,0,.07.11,0a1.31,1.31,0,0,0-.1.21c.16,0,0,0,.08,0h-.08c0,.1.23.19.21.3h.08l-.09,0a1.09,1.09,0,0,1,.12.36s-.14.09-.1.14h0a.26.26,0,0,0,0,.27h.09c-.1,0,0,0,0,.07h-.06c-.08,0,0,.06.06.07l-.08.05h0l0,0h.11a.29.29,0,0,1-.15.1s.08,0,.09,0l.05.15,0,0c-.08,0-.13.06-.09.08a.23.23,0,0,1,.18,0s-.08,0-.12,0-.08.09,0,.1h0s.12,0,.12.07,0,.06-.15.07.1,0,.12,0,0,.08.06.08c-.21.05.09.12-.09.15l.1,0c-.05,0-.15,0-.17.06a.62.62,0,0,0,.19,0l-.18,0c.21.14.1.37.28.54,0,.08-.11.19-.08.28h0l.06.09L28,17.17s0,0,0,.06.19.23.11.36.19,0,0,.13l.07,0a.88.88,0,0,1-.21.23c.2,0,0,.05.11,0H28c.05,0,.08.06.14.05l-.11,0h.09c0,.05-.05.16.12.18a.46.46,0,0,0,0,.47.1.1,0,0,0-.08.1l.1,0s-.15.08-.09.11h0s0,.07,0,.11.06.07.15.06c-.17,0,0,.08,0,.08s.51,2-.4,2.55a.61.61,0,0,1-.24.06s.12.05,0,.05-.22,0-.32,0l0,0c-.06,0,.06-.05,0,0h.15a.19.19,0,0,0-.11,0c.06,0,.27-.05.18-.1v0c0-.05-.1,0-.13,0h0l-.08,0c.05,0-.08.07-.07.05s0,0,.06,0-.08,0-.12,0v-.05c-.07,0,0,0-.07,0l.08-.06c-.19,0,.08-.07-.09-.09s-.06,0-.12,0v-.1s-.06,0,0,0,0,0,0,0,0-.07-.12-.07.15,0,.08-.09,0,.05-.09,0l0-.07s-.12,0-.1,0c-.1-.17-.49-.25-.4-.41-.09,0-.06,0-.11,0,.11-.12-.2-.16-.2-.26h.08c-.23-.13-.11-.29-.21-.44H26c.07,0,.08-.06.11-.08s-.15,0-.13,0l.09,0c-.19-.13-.16-.41-.26-.62s-.12-.6-.1-.89c0,.05.18,0,.13,0-.3-.07,0-.16-.17-.24.09-.17-.18-.3,0-.47H25.6s0,0,0-.06h0c0-.06,0-.13,0-.16h.1s-.08,0,0-.05h0l.08,0c-.16,0,0-.09-.1-.11s.1-.14.06-.2-.1-.09-.14-.14a1,1,0,0,0,0-.38h.11v0h0c-.13,0,0-.08,0-.1.1,0,0,0,0,0s.16,0,.1-.05h0l.05,0c-.08,0-.13,0-.21,0s.15-.21.1-.32,0-.08-.15,0c.06-.08.13,0,.25,0s0,0,0,0h-.12v0s0,0-.05,0-.12-.15,0-.25,0,0,.08,0-.12-.06,0-.15l-.08,0s.12,0,0-.09-.08.05-.12.07,0-.1.1-.09-.06,0-.09-.06.07,0,.11,0-.06-.11-.08-.16h-.07C25.44,15.31,25.23,15.33,25.25,15.27Z"/><path class="cls-3" d="M25.3,12.19l0,0-.06,0Z"/><path class="cls-3" d="M25.55,13.26h0Z"/><path class="cls-3" d="M25.42,13.54s0,0,.07,0A.16.16,0,0,1,25.42,13.54Z"/><path class="cls-3" d="M25.44,11.53h0Z"/><path class="cls-3" d="M25,9.89h0Z"/><path class="cls-3" d="M25.15,9.94v0S25.14,9.94,25.15,9.94Z"/><path class="cls-3" d="M25.48,11.94s0,0,0,0Z"/><polygon class="cls-3" points="25.13 9.98 25.14 10 25.13 10.01 25.13 9.98"/><path class="cls-3" d="M25,9.86l0,0S25,9.87,25,9.86Z"/><path class="cls-3" d="M25.43,10.89Z"/><polygon class="cls-3" points="25 10.13 25 10.13 24.98 10.14 25 10.13"/><path class="cls-3" d="M24.9,9.77l0,0h0Z"/><path class="cls-3" d="M25.2,10.57l.08,0S25.27,10.56,25.2,10.57Z"/><path class="cls-5" d="M26.08,8.06A11.09,11.09,0,0,1,32.72,4c4.05-.55,7.56.67,7.56,2s-1.7,4.89-10.43,4.82C25,10.85,26.08,8.06,26.08,8.06Z"/><path class="cls-3" d="M29.84,5.52s0,0,0,0A.08.08,0,0,0,29.84,5.52Z"/><path class="cls-3" d="M32.28,4.89l0,0S32.28,4.9,32.28,4.89Z"/><path class="cls-3" d="M28.48,6.27h0l-.09.07Z"/><path class="cls-3" d="M37.55,5.33h0Z"/><path class="cls-3" d="M34.47,4.77l0,0S34.48,4.74,34.47,4.77Z"/><path class="cls-3" d="M27.21,6.09l.08,0S27.24,6.07,27.21,6.09Z"/><path class="cls-3" d="M26.19,7.47h0A0,0,0,0,0,26.19,7.47Z"/><path class="cls-3" d="M26.82,7.17s0,0,0-.06S26.8,7.15,26.82,7.17Z"/><path class="cls-3" d="M26.83,7.09v0S26.84,7.09,26.83,7.09Z"/><path class="cls-3" d="M26.79,8.46s0-.06-.06-.09Z"/><path class="cls-3" d="M38.61,7.18l0,0Z"/><path class="cls-3" d="M26.26,8.31l0,0Z"/><path class="cls-3" d="M27.81,5.38c0-.08.13-.09.1-.13S27.78,5.3,27.81,5.38Z"/><path class="cls-3" d="M39.49,9.6l0,0Z"/><path class="cls-3" d="M26.26,8.31l0,0h0Z"/><polygon class="cls-3" points="34.54 9.25 34.54 9.25 34.55 9.23 34.54 9.25"/><path class="cls-3" d="M34.25,9.2l.06,0A.09.09,0,0,0,34.25,9.2Z"/><path class="cls-3" d="M26.73,8.37l0-.06Z"/><path class="cls-3" d="M31.36,9.64h0Z"/><path class="cls-3" d="M34.26,4.74h0S34.24,4.75,34.26,4.74Z"/><polygon class="cls-3" points="36.48 3.19 36.48 3.19 36.48 3.18 36.48 3.19"/><path class="cls-3" d="M36.35,3.24a.11.11,0,0,0,.13-.06A.2.2,0,0,0,36.35,3.24Z"/><path class="cls-3" d="M36.74,3.25h0Z"/><polygon class="cls-3" points="34.3 2.99 34.3 3 34.3 2.99 34.3 2.99"/><path class="cls-3" d="M34.79,3a0,0,0,0,0,0,0Z"/><polygon class="cls-3" points="37.98 3.32 37.98 3.33 37.98 3.33 37.98 3.32"/><path class="cls-3" d="M41.33,7.58a4.71,4.71,0,0,0,.13-.48c0-.16,0-.36.09-.62a3.25,3.25,0,0,0-.2-1.32,3.7,3.7,0,0,1-.5-.48L41,4.55l-.18-.13c0-.09.14.11.08,0h-.14c0-.07-.37-.38,0-.25a4.09,4.09,0,0,0-.53-.4c-.12-.07-.15.08-.25,0s.06,0,.08-.06c-.32-.31-.58.06-.87-.14h0c-.08,0-.18,0-.19,0,0,.18.09-.06.15.08s-.15,0-.18.12c-.06-.08-.14,0-.2,0s-.27-.12-.32-.25-.17.14-.29.11,0-.1-.05-.17l0,.08c-.09,0-.07-.06-.06-.09s-.11.09-.22,0l.09-.06a.71.71,0,0,1-.27,0c0-.05.06,0,.1,0,0-.14-.13,0-.17,0s.09.08,0,.15-.16.08-.19,0l.09-.07c-.15,0-.09.09-.24,0,0,0,0,0,0,0s-.23,0-.38-.06l0,0c-.07,0-.11.09-.14.08s0,.08,0,.16c-.08-.15-.18.14-.34,0a.06.06,0,0,1,.1,0c.07-.13.1-.25.22-.3-.08,0-.16,0-.13,0l0,.12-.11,0c0,.09.07.15,0,.19s0-.14-.06-.08-.08.13-.21.08,0,0,0,0-.25,0-.26-.16,0-.08.06-.07v0c.12-.11-.1,0-.05-.12,0,.09-.14.05-.21,0l0,.1c-.23.28,0-.19-.19-.17s0,0,0,.1S35.44,3,35.31,3a.33.33,0,0,1-.12-.21c-.08,0-.24-.06-.29,0,.14.09.14-.11.3,0l-.05.1c-.11,0-.26,0-.33,0a.09.09,0,0,1,0,.07c-.16,0-.2.15-.36.12s.07-.08.14-.09c-.1-.08-.11,0-.26,0s.1,0,.12-.07L34.3,3h0c0,.14-.13,0-.23,0s-.28.21-.41.33a.12.12,0,0,1,0-.11c.07.06.05,0,.07,0S33.5,3.1,33.54,3c-.13,0,.06.07,0,.12h-.18c0,.07.09.08,0,.15a.46.46,0,0,1-.21,0s-.05-.1,0-.11a.11.11,0,0,0-.15.06c.12.05-.18.08-.08.18l-.12,0s0-.05.06,0-.09,0-.12.06-.15,0-.16-.06a.1.1,0,0,1-.15,0s0,.07,0,.11l-.19,0a.61.61,0,0,1,0-.25c-.06.07,0,.18-.1.2,0-.13-.16-.07-.1-.22s-.25,0-.34,0,.12,0,.13.12c-.25.1-.2.37-.4.37h.06c-.1.09-.09.07-.14.17a.29.29,0,0,0-.41-.18c0,.06.14.07.14.17L30.94,4s0,0,0-.05-.26-.07-.24.08l-.18-.13.07.06c0,.06-.11.12-.12.15s-.17.09-.26,0,.13.12.05.18c-.08-.18-.23,0-.27-.07s-.14,0-.11.07l0-.11c.06.16-.09.21-.18.3-.08-.22-.1.07-.25-.08.06.14-.15.15-.11.28s-.14-.08-.18-.12v.08c-.08,0-.23,0-.35,0v.17l-.06,0s-.05.1,0,.11l-.05,0c.08.12,0,.07-.09.18s-.05,0,0-.07-.07,0-.12-.08,0,.33.15.31a.08.08,0,0,1,0,.13l-.1-.09,0,.15c-.05.06-.13,0-.19,0s0-.29-.17-.19c.07-.07.06-.16.08-.2s-.05,0,0-.07c-.09.11,0,.1-.09.18-.06-.1-.12-.11-.24-.07l.13,0s0,0,0,0a.11.11,0,0,1,.09,0s0,.21-.1.16c.22.07-.09.26.05.3s-.06.09-.1,0-.15-.06-.19-.13.12,0,.11.08-.13,0-.18,0v0l-.11,0c0,.06.14,0,.09.1s-.09.08-.12,0-.11-.16-.06-.22-.2.19-.06.22l-.06.05c.07,0,.23,0,.12.1V6l0,.14h-.08s0,0,0,.07-.06,0-.09,0,0,.12,0,.16-.07,0-.1,0-.18.17-.27.16,0,0,0,.11c-.22-.08-.33.22-.45.37.17.09,0,.06.08.2,0-.07-.23,0-.15-.13l-.06.09c-.12,0,.06-.17-.11-.19s0,.28-.13.34c-.06-.12,0,.11-.12,0s0-.07,0-.11h0c-.2.17.07.16.05.32s-.16,0-.21,0-.08.08-.08.13c0-.13.18-.09.22,0-.16,0-.16.17-.14.25.27-.09.1-.12.37-.18,0,0-.13-.13,0-.19,0,.1.06,0,.09,0s0-.08,0-.13.09.17.19.1l-.12-.14c.05,0,.09.1.12,0,0,.1.12.08.05.21.22,0,.11-.24.15-.38s0,0,0,0,0-.09,0-.12,0,.1.06.12l.09-.1h0s0-.08.07-.06,0,.12.05.18L27,7c0,.05.15,0,.11.09L27.21,7l.1.07s0-.07,0,0,.09-.37.22-.17c.06-.18.13-.19.24-.37,0,.19.23,0,.14.14.1,0,0-.13.08-.19s.13.1.11.19l0-.1v0l0-.1c.1,0,.09.08.16,0l-.05-.09h.08s0-.07,0-.11v0l0-.07c0,.1.07,0,.09.06s.05,0,.13-.12l-.06,0c.09-.14.07.08.17,0l-.05-.07c.22,0,.19-.23.35-.23-.05.06,0,.13,0,.11s.23-.16.27-.31a.27.27,0,0,0,.26.1c.06,0,.07-.07.05-.14s.2-.13.24-.06.07,0,.08-.09l0,0-.05-.08c.22.11.16-.21.37-.12v0l0-.06s0,.06,0,.11l.26-.1-.08,0s.06-.12.14-.1.09,0,.14.05l0,0c.07,0,.07,0,0-.11s.13.12.19,0l-.07,0a.08.08,0,0,1,0-.13S31,5,31,5s.2-.06.22-.1a.07.07,0,0,1,0,.1c.14-.13.08,0,.22-.15l0,0,0-.07.11.08-.05-.06c.05,0,.08-.06.15,0V4.9c.14-.08.21.07.33-.07s0,0,0,0,.13.1.24-.06c0,0,0,0,0,.07l.06,0v.09l0-.15.06.09,0,0c.1.17.17,0,.28.14l0-.12c.19-.29.57.07.85-.08v.1l.11-.12c.07.07,0,.08,0,.13s.05-.14.2-.18,0,.07-.06.11a.69.69,0,0,1,.45-.07s0,0,0,0a1.2,1.2,0,0,1,.33,0c0,.05,0,.05-.06.06s.09,0,.12,0l0,.09c.08,0,.23-.06.25,0s0-.11.06-.1.19-.06.3,0-.1,0-.07,0,.1,0,.15-.07v.06l.26-.07c0,.15.24,0,.22.1s-.07-.07,0-.08.11,0,.1.08H36l-.06.09a.25.25,0,0,0,.15-.18c.06.06.16,0,.17.12l0,0c.19,0,.26.3.43.16,0,0,0,0,0,0l.11,0,0,.06.2-.07v0a2.66,2.66,0,0,0,.45.07l0,0c.18,0,.14.08.27.06s0,0,0,0l.11,0,0,0c.12-.08.18.2.16.1A.67.67,0,0,0,38,5.38c.11,0,0,.07.06.13s.12,0,.2,0l0,0s.1,0,.16,0l0,0c.15,0,.08.18.24,0,0,.06.11.07.07.15a1,1,0,0,1,.35.07c-.08.13,0,0,0,.11l.05-.07c.1.07-.06.21,0,.23l-.08,0,.09,0a.43.43,0,0,1,0,.07h0s0,.06,0,.09.09.16,0,.22h0a.55.55,0,0,1-.18.42s-.06,0-.07-.06,0,.09-.06.11h.07c0,.09-.06.11-.13.09l0,.11h0l0,0-.12,0a.46.46,0,0,0,0,.22s-.1,0-.08,0-.15.12-.23.19h.06a.1.1,0,0,1,0,.17c0-.1-.08-.1-.14-.13s.07,0,.09.09-.06.17-.11.16v0c0,.07-.16,0-.21,0s-.08.07,0,.18c-.06.08-.09-.05-.12-.05a.11.11,0,0,1-.18.07c.07.21-.26.07-.18.23l-.12,0s.07.14,0,.19-.1-.09-.14-.13l0,.18c-.41,0-.77.32-1.2.3A1.43,1.43,0,0,1,35.5,9V9H35.3l.17,0s-.06.08-.11.09a1.63,1.63,0,0,0-.82.13c-.14.24-.16-.16-.31,0a.11.11,0,0,0,0-.08,3.73,3.73,0,0,0-.44.32c0-.2-.12,0-.12-.09v.09s-.15,0-.15-.11l-.07.11,0-.08c-.11,0-.35.11-.43,0a2.09,2.09,0,0,1-1.08.16c-.05.07-.16.08-.24.1l-.09-.1c-.08,0-.16.17-.25.11v0c-.08,0-.17,0-.24.06s-.19,0-.17-.15c0,.17-.2,0-.2,0L30,9.5a14,14,0,0,1-1.58-.17A4.91,4.91,0,0,1,27.32,9a1.42,1.42,0,0,1-.53-.52c-.07,0-.11-.12-.21-.12s.13,0,.05-.06-.19-.11-.31-.06V8.16s.05.09,0,.05l.14.06a.15.15,0,0,1-.13.06c.05.07.26.13.15.22v0c0,.09-.1,0-.13.06v0l-.09.08c.06-.06-.06-.18-.06-.12s0,0,.06.06-.08,0-.13,0v.11c-.07,0,0-.07-.07,0l.09.13c-.19,0,.09.13-.06.22-.06-.09-.06,0-.12,0A1,1,0,0,0,26,9.3s-.08,0-.06,0,.07.06.08.09.08.18,0,.22c0,.21.17,0,.2.17s-.08-.1-.11,0a.8.8,0,0,0,.13.13s-.11,0-.15,0c.23.44.28.95.78,1.09,0,.11-.07,0-.15.06.38.07.39.37.69.48l0-.07c.34.33.85.3,1.27.43l0-.06c.06-.06.16-.06.24-.08s-.07.15.06.13-.08-.06-.06-.09a5.83,5.83,0,0,0,1.69.26c.77,0,1.62,0,2.39-.09-.12,0-.09-.16,0-.13.28.27.41-.11.69.06.43-.14.88,0,1.25-.28l0,.08c.07,0,.07,0,.14-.06v0c.16,0,.33-.13.43-.11l0-.09c.09,0,.07.06.15,0v0l.08-.12c0,.17.26-.06.36,0a1.67,1.67,0,0,1,.5-.22c.06.07.28,0,.43,0s.65-.31,1-.46l-.06-.09L38,10.5s0,0,0,0,.18-.13.29-.1c-.09-.06-.07,0-.12,0s-.08-.14,0-.14v0l0-.09c0,.07.13.07.18.13.27-.2.39-.41.69-.6,0,.1.19-.17.23,0,.13-.18-.11-.08-.1-.23s.06-.11.11-.07.1.05.07.09l.11-.09s0,0,0,.05c.16-.25.46-.28.58-.53,0,0-.09.06-.11,0,.09-.27.23-.11.33-.36l0,.1c0-.11,0-.18.12-.24s0,.14,0,.22c.07-.07.2-.28.08-.27,0-.11.13-.1.19-.14s-.12.06-.12,0A1.34,1.34,0,0,0,41,7.85s.06,0,.07,0C41.06,7.68,41.25,7.8,41.33,7.58Z"/><path class="cls-3" d="M34.24,3h.06a.07.07,0,0,1,0-.07Z"/><path class="cls-3" d="M37.22,3.25l0,0A0,0,0,0,0,37.22,3.25Z"/><path class="cls-3" d="M38,3.25c-.06,0,0,0,0,.07A.08.08,0,0,0,38,3.25Z"/><path class="cls-3" d="M32.59,3.37s0,0,0,0S32.58,3.36,32.59,3.37Z"/><path class="cls-3" d="M28.23,5.08h0Z"/><path class="cls-3" d="M28.53,5.06l0,0S28.54,5,28.53,5.06Z"/><path class="cls-3" d="M33.69,3.23a.1.1,0,0,0,.05,0A.07.07,0,0,0,33.69,3.23Z"/><polygon class="cls-3" points="28.6 4.97 28.66 4.95 28.65 4.93 28.6 4.97"/><path class="cls-3" d="M28.16,5.12a.13.13,0,0,1,.07,0A.05.05,0,0,0,28.16,5.12Z"/><path class="cls-3" d="M30.94,3.9h0C31,3.84,31,3.87,30.94,3.9Z"/><polygon class="cls-3" points="28.75 4.68 28.76 4.68 28.77 4.64 28.75 4.68"/><path class="cls-3" d="M27.91,5.25s0,0,0,0l0,0Z"/><path class="cls-3" d="M30,4.13s0,.07,0,.08S30,4.18,30,4.13Z"/><path class="cls-5" d="M18.22.68C22.49.68,26,9.22,26,9.22S16.35,12.6,11,5.74a1.06,1.06,0,0,1,.13-1.44C12.51,3.11,15.58.68,18.22.68Z"/><path class="cls-3" d="M22.07,3.62l0,0A.05.05,0,0,0,22.07,3.62Z"/><path class="cls-3" d="M23.51,6.15l0,0S23.5,6.15,23.51,6.15Z"/><path class="cls-3" d="M21,2.3h0l-.09-.08Z"/><path class="cls-3" d="M23.37,8.7h0Z"/><path class="cls-3" d="M24.5,8.2s0,0,0,0S24.54,8.19,24.5,8.2Z"/><path class="cls-3" d="M20.76,1v.09A.06.06,0,0,0,20.76,1Z"/><path class="cls-3" d="M18.84.46v0Z"/><path class="cls-3" d="M19.48.9h.06S19.49.88,19.48.9Z"/><path class="cls-3" d="M19.57.89h0S19.57.9,19.57.89Z"/><path class="cls-3" d="M18,1.49s.07-.05.11-.09Z"/><path class="cls-3" d="M18,8.66v0A0,0,0,0,0,18,8.66Z"/><path class="cls-3" d="M18,.94h0S18,.93,18,.94Z"/><path class="cls-3" d="M21.7,1.47c.08,0,.12.13.15.08S21.77,1.42,21.7,1.47Z"/><path class="cls-3" d="M16.27,10.65h0Z"/><path class="cls-3" d="M18,.94l0,0,0,0S18,.94,18,.94Z"/><polygon class="cls-3" points="13.21 6.32 13.22 6.33 13.23 6.32 13.21 6.32"/><path class="cls-3" d="M13.07,6.07l.06,0S13.09,6.06,13.07,6.07Z"/><path class="cls-3" d="M18.1,1.4l.07-.06A.19.19,0,0,0,18.1,1.4Z"/><path class="cls-3" d="M12.19,5h0Z"/><path class="cls-3" d="M24.5,8.11v0S24.49,8.1,24.5,8.11Z"/><polygon class="cls-3" points="25.8 10.09 25.8 10.09 25.8 10.09 25.8 10.09"/><path class="cls-3" d="M25.92,10a.15.15,0,0,0-.12.12C25.86,10.07,25.91,10,25.92,10Z"/><path class="cls-3" d="M25.38,10.17h0Z"/><polygon class="cls-3" points="26.23 7.65 26.22 7.65 26.23 7.65 26.23 7.65"/><path class="cls-3" d="M26.58,8.4a.07.07,0,0,0,0,0S26.59,8.42,26.58,8.4Z"/><polygon class="cls-3" points="23.83 10.7 23.83 10.69 23.82 10.69 23.83 10.7"/><path class="cls-3" d="M18.76,11.34c.53.05,1.2-.09,1.71,0a.71.71,0,0,1,.44-.17l0,.17.13-.06c.06.05-.1,0,0,.09l.05-.1c0,.06.35,0,.12.16l.53,0c.12,0,.06-.15.19-.12s0,0,0,.1c.4.09.42-.37.78-.33l0,0c.06-.05.17-.06.17-.08-.07-.17-.05.1-.17,0s.12-.09.1-.2.13-.05.2-.07.3,0,.4.08c.06-.05.1-.2.23-.22s0,.11.13.13v-.09c.1,0,.09,0,.1.06s.07-.13.21-.1l-.06.09a.69.69,0,0,1,.28-.06c0,.05-.05.06-.09.05s.12-.08.16-.07-.12,0-.09-.12.12-.14.2-.06l-.06.1c.14-.1.06-.11.3-.14,0,0,0,0,0,0,.12-.15.35-.1.6-.16l0,0c.08-.05.09-.13.14-.14-.16,0-.13,0-.19-.11.25.08.13-.19.42-.19,0,0,0,.1-.08.08,0,.15.09.25,0,.35.09-.05.2-.1.22-.05l-.07-.12.16,0c0-.08-.22-.08-.13-.16s.19.08.16,0c.17-.11,0-.14.2-.16,0,0,0,0-.06,0,.2,0,.32-.13.54,0,0,0,.07.06,0,.07h0c0,.13.1-.07.21,0-.11-.05.13-.11.25-.13l-.15,0c-.06-.24.15,0,.35,0,0,0,0,0,0-.1-.17-.24,0,.06-.14-.1s.05-.14-.09-.36c0,0,0-.14.17-.11-.11-.15-.11-.4-.27-.49,0,.2.23.25.17.47L26.8,9a3.4,3.4,0,0,1-.23-.5s0,0-.07,0c-.15-.24-.29-.29-.36-.51.09,0,.13.09.18.18,0-.15-.06-.15-.13-.39.08,0,.06.16.16.17l-.15-.25h0c-.16,0-.08-.2-.2-.34s-.31-.19-.48-.28c0,0,0-.08.08-.08s0,.06.05.06,0-.24.11-.22c-.1-.11,0,.08-.12,0l-.08-.17c-.06.05,0,.12-.14.06a1.34,1.34,0,0,1-.11-.21s.08-.09.12,0,0-.14-.12-.13-.15-.15-.2,0V6.2s.05,0,.06,0-.08-.07-.11-.11,0-.14,0-.17a.12.12,0,0,1,0-.16s-.06,0-.1,0l-.09-.18c.05,0,.19-.14.22-.12s-.17.07-.22,0c.14,0,0-.18.17-.17S25,5.09,24.88,5s0,.13-.08.17c-.18-.22-.41-.1-.48-.29V5c-.11-.08-.09-.08-.2-.1.12,0,.19-.3.05-.46-.06,0,0,.16-.13.19L24,4.48s0,0,.05,0,0-.28-.14-.23l.07-.2,0,.08c-.05,0-.15-.09-.18-.1s-.13-.15-.11-.26c0,.05-.08.17-.16.09.15-.12-.09-.24,0-.29s0-.14-.1-.1l.1-.06c-.14.09-.24,0-.34-.13.2-.12-.1-.1,0-.28-.13.08-.2-.14-.32-.07s.05-.15.07-.21h-.08c0-.09-.09-.24-.13-.36l-.17,0,0-.07s-.11,0-.11,0l0,0c-.11.1-.09,0-.21-.06s0-.06.06,0,0-.08,0-.14-.34,0-.27.2a.09.09,0,0,1-.15,0l.07-.12-.15.06c-.08,0,0-.14-.08-.2s.29-.07.15-.2c.08.05.17,0,.23.05s0-.06.05-.06c-.14-.07-.09,0-.21-.06.09-.08.08-.14,0-.26v.13h0a.08.08,0,0,1,0,.1s-.22,0-.19-.08c0,.24-.29-.06-.29.09s-.12,0-.09-.09,0-.16.08-.21,0,.13-.06.12-.06-.13-.07-.18h0l-.06-.11s0,.14-.07.11-.11-.08-.08-.12.13-.14.21-.1-.26-.18-.25,0L21,1c0,.08.08.25-.07.16l0,0h-.15V1.06a.05.05,0,0,1-.08,0s0-.07,0-.11-.14,0-.17,0-.08-.07,0-.11-.24-.14-.27-.23,0,0-.1.07c0-.27-.39-.26-.62-.31,0,.19-.06,0-.15.14.06,0-.17-.21,0-.19l-.12,0c-.06-.13.21,0,.13-.18s-.27.11-.43,0c.08-.12-.14,0-.07-.11s.09,0,.14,0l0,0c-.33-.08-.13.14-.3.2S18.59.1,18.58,0s-.13,0-.18,0c.12-.07.21.11.15.18-.07-.16-.28,0-.33,0,.26.19.19,0,.41.23,0,0,.05-.18.19-.11-.1.06,0,.08,0,.1s.1,0,.15,0-.12.16,0,.21l.07-.17s-.06.12.06.11c-.08.08,0,.14-.17.14.14.18.29,0,.45,0,0,0,0,0,0,0s.09,0,.14,0-.1.05-.09.11l.14.05h0c.05,0,.09,0,.09,0a.67.67,0,0,0-.15.13L19.7,1c0,.05.08.14,0,.14a.83.83,0,0,1,.22.08l0,.12c.05,0,.07,0,0-.06s.4,0,.25.17a1.21,1.21,0,0,1,.46.14c-.2,0,.07.23-.1.17.05.1.14,0,.22,0s-.07.17-.16.15l.11,0,0,0h.11c0,.11-.06.11,0,.18l.08-.08v.09s.07,0,.13,0l0,0,.08,0c-.11,0,0,.06,0,.1a.76.76,0,0,0,.15.12l0-.07c.16.06-.06.08,0,.18l.05-.07c0,.24.28.17.32.33a.09.09,0,0,0-.11,0c.11.06.23.22.39.25a.28.28,0,0,0,0,.28c.07.06.08.07.16,0s.19.18.12.24.05.07.12.07l0,0,.06-.06c-.05.25.25.15.22.38h0l.06,0s-.05,0-.09,0l.18.26V4.29c.05,0,.14,0,.15.13-.18,0,.06.08,0,.16l-.06,0c.06.07.06.07.12,0s-.08.16.06.2l0-.07a.1.1,0,0,1,.15,0s0,.08-.05,0,.13.2.18.22S23,5,23,5c.18.13,0,.09.22.21l0,0,.08,0,0,.14,0-.06s.09.07.11.15h-.08c.13.14,0,.25.19.35,0,0,0,0-.05,0,.18.08,0,.17.16.24,0,0,0,0-.06,0l.08,0-.09,0,.15,0-.06.09h.06c-.12.16.06.19,0,.36l.1-.08c.36.12.19.63.45.87l-.09,0,.17.07c0,.1-.1,0-.13,0,.12.11.15,0,.26.13s-.08,0-.13,0c.11.12.29.35.24.37h0c.07,0,.05.1.08.14a.09.09,0,0,1-.08,0s0,0,0,0h-.1s.11.08,0,.08.12,0,.13,0c-.17,0,.11.09,0,.11l-.07,0s.06,0,.13.09l-.08,0,.15.15-.05,0c-.1,0,0,.07-.13,0s.11,0,.08.06,0,0-.12,0h0l-.09-.07a.59.59,0,0,0,.16.15c-.09,0-.09,0-.18-.05v0c0,.05-.28-.2-.22-.05,0,0,0,0,0,0h0l0-.07a.41.41,0,0,1,0,.11v0a1.57,1.57,0,0,0-.43.1l0,0c-.18.11-.19,0-.32.07s0,0,0,0l-.13,0,0-.05c-.08.11-.29-.1-.22,0s-.13.12-.14.18,0-.06-.13-.08-.11.09-.25.07V8.77c-.06,0-.1.05-.19.07l0,0c-.14.12-.2-.12-.29.1-.07,0-.18,0-.18-.09a3.22,3.22,0,0,1-.5.16c0-.16,0,0-.15-.07V9c-.26,0-.56-.18-.83-.15V8.76l-.06.09a6.72,6.72,0,0,0-.92-.11c-.08,0-.21.12-.33.07h0a1.75,1.75,0,0,1-.68,0s0-.07,0-.08-.14,0-.19,0l.05.07c-.08.08-.16,0-.18-.09L18,8.7v0l0,0,0-.13s-.17,0-.24.12-.09-.09,0-.1l-.37-.11.05,0c0,.09-.14.11-.19.06s0-.11,0-.18,0,.08,0,.12a.22.22,0,0,1-.24,0l.05,0c-.1,0-.09-.15-.18-.17s-.13,0-.16.1,0-.1,0-.13-.21,0-.2-.12c-.13.18-.26-.16-.35,0A1.12,1.12,0,0,0,16,8c0,.05-.07.14-.15.12s0-.15,0-.2l-.12.15c-.28-.36-.84-.43-1.12-.83A2.25,2.25,0,0,1,14,7h0c-.05-.06-.11-.1-.16-.17A.83.83,0,0,0,14,7c-.06,0-.11,0-.15,0a1.68,1.68,0,0,0-.63-.64c-.3,0,0-.21-.23-.23l.08,0a4.06,4.06,0,0,0-.52-.22c.16-.13-.1-.1,0-.16l-.07,0c0-.07-.05-.16,0-.19h-.13l.05-.06c0-.05-.11-.11-.16-.18s0-.06,0-.12h0c-.13,0-.12-.08-.06-.11S12.12,5,12.12,5l.1,0s-.11-.12,0-.09V5s0,0,0-.11.2-.09.23,0c-.1-.13.19-.12.19-.12S13.72,4,14.94,3.23s2.52-1.3,3-1.74c0-.08.14-.14.09-.24s.13.11.14,0,0-.22-.08-.31l.08,0c0-.06-.11.08-.09,0l0,.16A.19.19,0,0,1,18,1c-.06.07-.08.28-.23.2l0,0c-.11,0-.08-.09-.11-.11h0L17.61,1c.08,0,.19-.1.13-.08s0,0-.06.07-.06-.07-.06-.12l-.12,0c0-.08.08,0,0-.08l-.14.1c-.06-.18-.15.11-.25,0,.1-.07,0-.06,0-.12l-.26.08s0-.07,0-.06-.07.07-.1.07-.19.06-.22-.06c-.21,0,0,.18-.22.16,0-.06.13-.06,0-.1l-.17.08s0-.12.07-.13c-.5.07-.91-.17-1.3.12-.1-.05,0-.07,0-.15-.26.25-.52.05-.78.19l0,.07c-.46,0-.82.37-1.25.54h.08c0,.1-.1.16-.14.23s0-.16-.14-.06.1,0,.11,0a6.53,6.53,0,0,0-1.63.91c-.16.15-.32.29-.5.43l-.36.32a2.33,2.33,0,0,0-.41.42A2.15,2.15,0,0,0,9.75,6c-.08-.2.12-.16.14,0a.57.57,0,0,0,.19.54c.15.13.36.3.35.46.43.31.52.88,1.07,1l-.05.07c0,.07.08,0,.14.09h0c.11.14.34.22.39.32L12,8.4c.08.06,0,.09.11.12l0,0h.15c-.11.12.22.21.25.31a1.79,1.79,0,0,1,.56.27c0,.1.2.24.32.36.28.17.7.34,1.06.54l0-.1.1,0s0,0,0,0,.24.06.28.17c0-.11-.06,0-.11-.07s.06-.15.14-.05v0l.09,0c0,.08,0,.15,0,.23.33.13.61,0,.93.2-.06.08.25.06.13.19.23,0,0-.14.14-.22s.13,0,.12.06,0,.11,0,.11l.14,0s0,0-.05,0c.3,0,.48.22.75.19,0-.05-.09,0-.06-.09.28-.06.2.16.46.12l-.07.07c.09,0,.14-.1.25,0s-.12.06-.19.09c.09,0,.31.05.26-.06.11,0,.13.09.19.12s-.09-.07,0-.11a2,2,0,0,0,.53.13s0,.06,0,.07C18.6,11.13,18.56,11.34,18.76,11.34Z"/><path class="cls-3" d="M26.19,7.55l0,.1s0,0,.09,0Z"/><path class="cls-3" d="M24.68,10.43l0,0S24.68,10.44,24.68,10.43Z"/><path class="cls-3" d="M23.86,10.76c.05,0,0,0,0-.06A.06.06,0,0,0,23.86,10.76Z"/><path class="cls-3" d="M25.07,6h0S25.07,6,25.07,6Z"/><path class="cls-3" d="M22.12,1.87v0Z"/><path class="cls-3" d="M22.22,2.18l.05,0Z"/><path class="cls-3" d="M25.67,7s0,0,.06,0A.09.09,0,0,0,25.67,7Z"/><polygon class="cls-3" points="22.33 2.23 22.37 2.29 22.38 2.28 22.33 2.23"/><path class="cls-3" d="M22.06,1.8l.06.07A.09.09,0,0,0,22.06,1.8Z"/><path class="cls-3" d="M24,4.47h0C24.07,4.5,24,4.48,24,4.47Z"/><polygon class="cls-3" points="22.66 2.35 22.66 2.36 22.69 2.36 22.66 2.35"/><path class="cls-3" d="M21.85,1.55s0,0,0,0l0,0Z"/><path class="cls-3" d="M23.51,3.53l-.08,0S23.47,3.58,23.51,3.53Z"/></g></g></g></svg>