<svg width="172" height="50" viewBox="0 0 172 50" fill="none" xmlns="http://www.w3.org/2000/svg">
<path d="M2.4924 4.04584C1.91198 4.09526 1.33535 3.91557 0.887939 3.54584C0.690815 3.35032 0.538006 3.1154 0.439696 2.85675C0.341385 2.5981 0.299829 2.32166 0.317799 2.04584C0.305084 1.77301 0.350646 1.50059 0.451504 1.24641C0.552362 0.992232 0.706242 0.762022 0.903075 0.570844C1.11644 0.376179 1.36701 0.225881 1.64 0.128836C1.91298 0.0317919 2.20283 -0.0100298 2.4924 0.005844C3.07631 -0.0284838 3.65052 0.165384 4.09182 0.545844C4.29087 0.740632 4.44597 0.975049 4.54686 1.23362C4.64774 1.49218 4.69214 1.76902 4.6771 2.04584C4.68673 2.31608 4.6397 2.58536 4.53896 2.83667C4.43821 3.08797 4.28596 3.31583 4.09182 3.50584C3.87491 3.69682 3.62171 3.84295 3.34706 3.93568C3.07242 4.02841 2.78185 4.06586 2.4924 4.04584V4.04584ZM0.918211 24.0458V7.67584H4.17255V24.0458H0.918211Z" fill="white"/>
<path d="M18.8752 24.3509C17.4302 24.3701 15.9964 24.0962 14.6622 23.5459C13.3967 23.0165 12.2597 22.2255 11.3271 21.2259C10.3689 20.19 9.62645 18.9768 9.14244 17.6559C8.61693 16.2134 8.35551 14.6895 8.37048 13.1559C8.36021 11.6566 8.64825 10.1699 9.21812 8.78095C9.75717 7.46788 10.5431 6.26828 11.534 5.24595C13.2609 3.47016 15.5675 2.35894 18.0434 2.10992C20.5193 1.86089 23.0041 2.49021 25.0559 3.88595C25.8369 4.41593 26.5197 5.07563 27.0741 5.83595L24.8238 8.14595C24.025 7.30866 23.0883 6.61207 22.0538 6.08595C21.1588 5.64286 20.1733 5.40855 19.1729 5.40095C18.2005 5.39097 17.2364 5.57936 16.3406 5.95439C15.4449 6.32943 14.6365 6.88309 13.9659 7.58095C13.2898 8.29461 12.7603 9.13183 12.4069 10.0459C12.0235 11.0349 11.8318 12.0866 11.8418 13.1459C11.8269 14.245 12.0133 15.3377 12.3917 16.3709C12.7294 17.3031 13.2605 18.1548 13.9508 18.8709C14.6286 19.5599 15.4475 20.097 16.3524 20.4459C17.3398 20.8199 18.3883 21.0097 19.4453 21.0059C20.8234 21.0001 22.1737 20.6215 23.3505 19.9109C23.9353 19.5633 24.4742 19.1451 24.955 18.6659L26.6503 21.4109C26.0912 22.0226 25.4266 22.5306 24.6876 22.9109C23.8146 23.3856 22.8836 23.7469 21.9176 23.9859C20.9231 24.2344 19.9008 24.3571 18.8752 24.3509V24.3509Z" fill="white"/>
<path d="M54.123 24.0459V7.67591H57.3623V11.0459L56.7972 11.4209C57.0333 10.6643 57.4544 9.97726 58.0232 9.42091C58.6487 8.79252 59.386 8.284 60.1978 7.92091C61.1005 7.51331 62.0851 7.31539 63.0767 7.34225C64.0683 7.36912 65.0406 7.62005 65.9194 8.07591C66.7803 8.59159 67.444 9.37596 67.8064 10.3059C68.2657 11.499 68.4867 12.7692 68.4573 14.0459V24.0459H65.2231V14.2859C65.2468 13.4941 65.1184 12.7051 64.8447 11.9609C64.6281 11.3919 64.2152 10.9172 63.6792 10.6209C63.0757 10.3259 62.4019 10.2014 61.7316 10.2609C61.1411 10.2552 60.5545 10.3569 60.001 10.5609C59.496 10.7462 59.0317 11.0263 58.6337 11.3859C58.251 11.7327 57.9407 12.1506 57.7205 12.6159C57.4997 13.0856 57.386 13.5977 57.3875 14.1159V24.0459H54.123Z" fill="white"/>
<path d="M71.4744 10.7909V7.67586H81.9791V10.7909H71.4744ZM74.9053 24.0409V3.50586H78.1445V24.0459L74.9053 24.0409Z" fill="white"/>
<path d="M84.9358 24.0455V7.67547H88.2103V12.8205L87.8924 11.5705C88.1259 10.7782 88.5285 10.0449 89.0731 9.42047C89.6096 8.80371 90.2605 8.29453 90.9904 7.92047C91.6824 7.55226 92.4552 7.35824 93.2407 7.35547C93.5792 7.35712 93.9169 7.38891 94.2498 7.45047C94.5127 7.4962 94.7698 7.56996 95.0167 7.67047L94.169 11.1705C93.8991 11.0604 93.6207 10.9718 93.3365 10.9055C93.0431 10.8314 92.7413 10.7944 92.4384 10.7955C91.8815 10.7944 91.3302 10.9067 90.8188 11.1255C90.3134 11.3357 89.8542 11.6414 89.4666 12.0255C89.0789 12.4136 88.7644 12.8674 88.5383 13.3655C88.3084 13.882 88.1915 14.4409 88.1952 15.0055V24.0455H84.9358Z" fill="white"/>
<path d="M99.7191 4.04415C99.1392 4.08874 98.5644 3.9096 98.1146 3.54415C97.9194 3.34744 97.7683 3.11221 97.6709 2.85377C97.5735 2.59533 97.5322 2.31948 97.5495 2.04415C97.5369 1.77327 97.5821 1.5028 97.6821 1.25038C97.7821 0.997956 97.9346 0.769244 98.1297 0.57915C98.3431 0.383865 98.5934 0.232485 98.8662 0.133782C99.1391 0.0350796 99.4289 -0.00898251 99.7191 0.00414967C100.303 -0.0310616 100.878 0.158853 101.324 0.53415C101.517 0.732117 101.667 0.967544 101.764 1.22567C101.861 1.48379 101.904 1.75904 101.889 2.03415C101.9 2.30565 101.854 2.57653 101.754 2.82959C101.655 3.08265 101.503 3.31237 101.308 3.50415C100.871 3.88448 100.3 4.07852 99.7191 4.04415V4.04415ZM98.1449 24.0442V7.67415H101.414V24.0442H98.1449Z" fill="white"/>
<path d="M115.037 24.3501C114.315 24.3474 113.599 24.2327 112.913 24.0101C112.234 23.7924 111.589 23.4829 110.996 23.0901C110.453 22.7358 109.965 22.3045 109.548 21.8101C109.189 21.3991 108.927 20.914 108.781 20.3901L109.598 19.9551V23.9551H106.359V0.955078H109.623V11.4151L109.119 11.1351C109.237 10.6262 109.474 10.1519 109.81 9.75008C110.186 9.28172 110.633 8.87505 111.137 8.54508C111.702 8.18174 112.31 7.88949 112.948 7.67508C113.584 7.45605 114.253 7.3445 114.926 7.34508C116.327 7.3195 117.706 7.70009 118.892 8.44008C120.057 9.18011 121.002 10.216 121.627 11.4401C122.317 12.7973 122.663 14.3006 122.636 15.8201C122.657 17.3438 122.311 18.8507 121.627 20.2151C121.013 21.4529 120.074 22.5033 118.907 23.2551C117.751 23.9842 116.407 24.3647 115.037 24.3501V24.3501ZM114.502 21.4201C115.416 21.4346 116.313 21.1806 117.081 20.6901C117.844 20.1888 118.463 19.4996 118.877 18.6901C119.328 17.7952 119.555 16.8055 119.538 15.8051C119.552 14.8179 119.331 13.8413 118.892 12.9551C118.498 12.1385 117.883 11.4462 117.116 10.9551C116.533 10.5901 115.878 10.3516 115.195 10.2551C114.513 10.1586 113.817 10.2064 113.154 10.3952C112.491 10.5841 111.876 10.9099 111.349 11.3511C110.823 11.7922 110.396 12.3389 110.098 12.9551C109.648 13.8383 109.422 14.8161 109.437 15.8051C109.419 16.8055 109.646 17.7952 110.098 18.6901C110.511 19.4996 111.13 20.1888 111.894 20.6901C112.672 21.1832 113.579 21.4372 114.502 21.4201Z" fill="white"/>
<path d="M131.959 24.3508C130.881 24.3758 129.817 24.0967 128.892 23.5458C128.013 22.9949 127.312 22.2052 126.874 21.2708C126.379 20.1706 126.137 18.975 126.167 17.7708V7.67578H129.406V16.9008C129.331 18.1162 129.688 19.3193 130.416 20.3008C130.761 20.7168 131.201 21.0462 131.698 21.2625C132.196 21.4788 132.739 21.5759 133.281 21.5458C133.85 21.5517 134.415 21.4516 134.946 21.2508C135.431 21.0608 135.875 20.7807 136.253 20.4258C136.626 20.0617 136.919 19.6262 137.116 19.1458C137.332 18.6327 137.44 18.0816 137.434 17.5258V7.67578H140.673V24.0458H137.434V20.6108L137.999 20.2358C137.742 21.0184 137.309 21.733 136.733 22.3258C136.134 22.9611 135.414 23.4712 134.613 23.8258C133.777 24.1877 132.872 24.3667 131.959 24.3508V24.3508Z" fill="white"/>
<path d="M143.796 10.7909V7.67586H154.301V10.7909H143.796ZM147.227 24.0409V3.50586H150.472V24.0459L147.227 24.0409Z" fill="white"/>
<path d="M164.826 24.3496C163.254 24.3793 161.701 24.0092 160.315 23.2746C159.036 22.5902 157.97 21.5717 157.233 20.3296C156.47 19.0246 156.082 17.5374 156.112 16.0296C156.102 14.8343 156.316 13.6474 156.743 12.5296C157.138 11.5072 157.731 10.5713 158.489 9.77463C159.241 8.99084 160.153 8.37395 161.163 7.96463C162.236 7.53096 163.385 7.31339 164.543 7.32463C165.565 7.31864 166.576 7.52651 167.51 7.93463C168.424 8.3276 169.248 8.9002 169.932 9.61781C170.617 10.3354 171.147 11.1831 171.491 12.1096C171.859 13.1236 172.031 14.1975 171.996 15.2746L171.965 16.6446H158.504L157.783 14.0446H169.2L168.726 14.5746V13.8446C168.666 13.1779 168.419 12.5409 168.015 12.0046C167.613 11.4618 167.087 11.0208 166.48 10.7176C165.873 10.4143 165.203 10.2574 164.523 10.2596C163.53 10.2293 162.546 10.4496 161.662 10.8996C160.905 11.3279 160.302 11.9823 159.942 12.7696C159.515 13.7258 159.31 14.7646 159.342 15.8096C159.31 16.8559 159.561 17.8916 160.068 18.8096C160.539 19.6464 161.25 20.3253 162.112 20.7596C163.049 21.2286 164.089 21.4637 165.139 21.4446C165.918 21.4508 166.691 21.3135 167.419 21.0396C168.266 20.6838 169.044 20.1866 169.72 19.5696L171.355 21.8446C170.811 22.3704 170.19 22.8121 169.513 23.1546C168.784 23.541 168.014 23.8478 167.218 24.0696C166.436 24.2661 165.632 24.3603 164.826 24.3496Z" fill="white"/>
<path d="M51.1864 18.7345C51.1864 23.4795 46.7968 26.1945 42.0087 26.1945C37.2205 26.1945 33.8501 23.5045 33.8501 18.7345C33.8501 16.4563 34.7633 14.2714 36.3889 12.6605C38.0145 11.0495 40.2193 10.1445 42.5182 10.1445C44.8172 10.1445 47.022 11.0495 48.6475 12.6605C50.2731 14.2714 51.1864 16.4563 51.1864 18.7345V18.7345Z" fill="#FCB614"/>
<path d="M41.3125 24.0459L41.373 24.0059L41.3125 24.0459Z" fill="#0F1212"/>
<path d="M46.9231 21.5059L47.029 21.3809L46.9231 21.5059Z" fill="#0F1212"/>
<path d="M33.9409 21.8145L33.9762 21.8445L33.9409 21.8145Z" fill="#0F1212"/>
<path d="M48.3862 20.8945L48.2903 20.9295L48.3862 20.8945Z" fill="#0F1212"/>
<path d="M47.9321 17.1152C47.9445 17.1826 47.976 17.245 48.0229 17.2952L47.9321 17.1152Z" fill="#0F1212"/>
<path d="M47.705 22.1855C47.705 22.2855 47.5486 22.3705 47.5889 22.4055C47.6343 22.3355 47.7403 22.2655 47.705 22.1855Z" fill="#0F1212"/>
<path d="M48.4468 17.1741L48.4619 17.1191L48.4316 17.1341L48.4468 17.1741Z" fill="#0F1212"/>
<path d="M37.7301 10.3398L37.72 10.3548L37.7301 10.3398Z" fill="#0F1212"/>
<path d="M38.1338 10.3359L38.0581 10.3759L38.1338 10.3359Z" fill="#0F1212"/>
<path d="M48.0129 17.2949L48.0634 17.3999L48.0129 17.2949Z" fill="#0F1212"/>
<path d="M34.8441 24.5752C34.8116 24.5604 34.7764 24.5527 34.7406 24.5527C34.7049 24.5527 34.6696 24.5604 34.6372 24.5752C34.7039 24.6002 34.7774 24.6002 34.8441 24.5752Z" fill="#0F1212"/>
<path d="M37.9067 25.6495V25.6445L37.9016 25.6495H37.9067Z" fill="#0F1212"/>
<path d="M37.1549 25.5448L37.1045 25.5098L37.1549 25.5448Z" fill="#0F1212"/>
<path d="M30.1064 16.3798C30.0988 17.2061 30.1545 18.0318 30.2729 18.8498C30.3989 19.0317 30.4849 19.2378 30.5252 19.4548L30.3738 19.5098L30.4697 19.6948C30.4394 19.7848 30.4041 19.5498 30.3788 19.6948L30.4949 19.7448C30.4394 19.7748 30.5807 20.2448 30.3889 19.9598C30.445 20.2196 30.5243 20.474 30.6261 20.7198C30.6816 20.8848 30.7825 20.7698 30.8128 20.9648H30.7119C30.8329 21.5598 31.2669 21.4648 31.4586 21.9648L31.4283 21.9198C31.5141 21.9798 31.6049 22.1298 31.6251 22.1198C31.726 21.9748 31.4989 22.0798 31.4889 21.8948C31.615 21.8398 31.6604 22.0298 31.7462 21.9648C31.7462 22.0948 31.8774 22.1148 31.9379 22.1998C31.9379 22.4048 32.1801 22.5698 32.1801 22.7448C32.2709 22.7898 32.4374 22.7848 32.5635 22.9248C32.5635 23.0998 32.4626 22.9748 32.5635 23.1348L32.6443 23.0998C32.7401 23.2198 32.7099 23.2148 32.6796 23.2398C32.7956 23.3598 32.8511 23.2398 32.9672 23.4398H32.831C32.9462 23.5241 33.0527 23.6196 33.1488 23.7248C33.1185 23.7548 33.0479 23.7248 33.0126 23.6448C33.0126 23.8148 33.1993 23.7348 33.2396 23.7848C33.2396 23.7498 33.1438 23.6448 33.2396 23.6298C33.3153 23.7098 33.4818 23.6848 33.4818 23.8048H33.3456C33.5525 23.8898 33.497 23.8048 33.6735 23.9748L33.6382 24.0048C33.8199 24.0048 33.941 24.1998 34.1428 24.3348H34.3093C34.2235 24.2298 34.2689 24.2248 34.3093 24.1548C34.39 24.3548 34.6019 24.1798 34.8138 24.3598C34.8054 24.3686 34.7952 24.3755 34.7839 24.3803C34.7726 24.3851 34.7605 24.3875 34.7482 24.3875C34.736 24.3875 34.7239 24.3851 34.7126 24.3803C34.7013 24.3755 34.6911 24.3686 34.6826 24.3598C34.5313 24.4348 34.4657 24.5198 34.2841 24.4848C34.3951 24.5148 34.5111 24.5648 34.4606 24.5998L34.5111 24.5048C34.5615 24.5285 34.6104 24.5552 34.6574 24.5848C34.718 24.5248 34.6019 24.4098 34.7583 24.4348C34.9147 24.4598 34.7583 24.5848 34.829 24.5498C35.0611 24.6048 34.9753 24.4698 35.1569 24.6048H35.0711C35.1872 24.7298 35.4294 24.7548 35.4193 24.8998L35.3083 24.9298C35.1014 24.9648 35.4597 24.9298 35.3537 25.0598C35.3537 24.9798 35.5757 25.0598 35.6665 25.1298V25.0348C36.0752 24.8998 35.5858 25.1948 35.9137 25.2848C36.1357 25.2848 35.8431 25.2348 35.9894 25.2148C36.1357 25.1948 36.1509 25.3648 36.3628 25.3848C36.4082 25.4348 36.5142 25.5148 36.494 25.6148C36.6302 25.6148 36.8673 25.7648 36.9632 25.6748C36.7664 25.5548 36.721 25.7348 36.5041 25.5348L36.5999 25.4598C36.7664 25.5198 36.9985 25.5098 37.1045 25.5698V25.5048C37.3568 25.5048 37.4425 25.4298 37.6746 25.5048C37.6746 25.5998 37.5535 25.5598 37.4526 25.5498C37.5939 25.6448 37.609 25.5948 37.8462 25.6498C37.8462 25.7248 37.6847 25.6498 37.6443 25.6948H37.9168C37.9723 25.5648 38.1186 25.7298 38.2851 25.6948C38.6736 25.7398 38.7443 25.5498 38.9562 25.4548L38.9864 25.5448C38.8956 25.4848 38.9108 25.5448 38.8754 25.5448C39.0066 25.5448 39.1529 25.6848 39.0773 25.7348C39.2892 25.7048 39.0066 25.6648 39.1328 25.6248H39.4153C39.385 25.5548 39.2841 25.5348 39.4153 25.4898C39.5465 25.4448 39.5969 25.4898 39.7534 25.4898C39.7534 25.5248 39.8038 25.5898 39.6878 25.5898C39.7635 25.5898 39.8845 25.5898 39.9299 25.5448C39.7534 25.4898 40.2125 25.4748 40.0763 25.3748L40.2529 25.4298C40.2125 25.4298 40.2125 25.4748 40.152 25.4648C40.2075 25.5648 40.2932 25.4298 40.3487 25.4198C40.4042 25.4098 40.5707 25.4198 40.5859 25.4698H40.8079C40.8835 25.4398 40.8079 25.3998 40.8079 25.3648H41.0803V25.5998C41.1812 25.5348 41.0803 25.4298 41.2569 25.4148C41.1812 25.5398 41.4789 25.4748 41.3679 25.6248C41.5361 25.6703 41.7152 25.6543 41.8725 25.5798C41.9431 25.4798 41.706 25.5798 41.7009 25.4698C42.0945 25.3598 42.0692 25.1298 42.3619 25.0948H42.2811C42.4476 24.9998 42.4325 25.0148 42.5132 24.9148C42.5132 25.0348 42.7907 25.1548 43.0834 25.0548C43.0834 24.9948 42.8866 24.9948 42.9118 24.8948C42.9784 24.8848 43.042 24.861 43.0985 24.8248V24.8748C43.2549 24.7798 43.4618 24.9048 43.4668 24.7648L43.6989 24.8598L43.6031 24.8148C43.6031 24.7548 43.7948 24.6748 43.8251 24.6398C43.8754 24.5926 43.9369 24.5588 44.0039 24.5413C44.0709 24.5238 44.1413 24.5233 44.2085 24.5398C44.1581 24.5398 44.037 24.4548 44.1782 24.3698C44.2489 24.5398 44.5163 24.2948 44.5516 24.3698C44.6071 24.3398 44.7433 24.3698 44.7131 24.2748L44.7534 24.3798C44.6979 24.2348 44.9098 24.1248 45.0562 24.0098C45.1268 24.2198 45.2277 23.8998 45.3993 24.0098C45.3538 23.8748 45.6515 23.7948 45.6061 23.6648C45.7222 23.5798 45.7827 23.6998 45.8382 23.7198V23.6398C46.0151 23.602 46.1852 23.5379 46.3428 23.4498L46.3781 23.2548H46.4588C46.4588 23.2148 46.5395 23.1198 46.4588 23.1298H46.5547C46.4689 23.0198 46.6152 23.0298 46.701 22.8848L46.7464 22.9448C46.8069 22.8948 46.8271 22.9698 46.8927 22.9748C46.8322 22.9748 46.928 22.5948 46.7313 22.6948C46.6859 22.6648 46.7313 22.5498 46.812 22.5098L46.9331 22.5698L46.923 22.4248C46.9936 22.3248 47.0844 22.3448 47.1652 22.2848C47.1046 22.3598 47.1652 22.6148 47.367 22.4198C47.3146 22.5064 47.2771 22.601 47.256 22.6998C47.2964 22.6648 47.3266 22.6498 47.3014 22.7498C47.4225 22.5748 47.3014 22.6498 47.4326 22.4898C47.5032 22.5698 47.5789 22.5548 47.7303 22.4448L47.5739 22.4898V22.4498H47.4275C47.4629 22.4198 47.4881 22.1848 47.5587 22.1948C47.2964 22.2448 47.6697 21.8298 47.5083 21.8648L47.6294 21.7348C47.594 21.9198 47.811 21.7348 47.8615 21.7798C47.8615 21.7098 47.7101 21.8348 47.7252 21.7448C47.7844 21.6804 47.8618 21.6351 47.9472 21.6148V21.6598L48.0784 21.5598C48.0431 21.5048 47.917 21.6348 47.9674 21.4948L48.0935 21.3648C48.1238 21.4648 48.2399 21.4798 48.1894 21.5948C48.2348 21.4998 48.4013 21.2098 48.2399 21.2698L48.3055 21.1648C48.2247 21.2098 48.038 21.3448 48.1541 21.1298V20.9398L48.2399 20.9048V20.8048H48.3509C48.4265 20.6348 48.3509 20.6248 48.3509 20.5898C48.3509 20.5548 48.4215 20.4698 48.4619 20.5398C48.5375 20.4198 48.6233 20.1898 48.7192 20.1248C48.7192 19.9298 48.6839 20.1548 48.6485 20.0198C48.8756 19.9348 48.921 19.4548 48.9563 19.1548C48.7747 19.1948 48.9563 19.0648 48.805 18.9798C48.8504 19.0548 48.9916 18.7248 48.9916 18.9798V18.8148C49.1077 18.7248 48.9916 19.0948 49.1733 18.9548C49.2035 18.7698 49.037 18.6198 49.138 18.4148C49.254 18.5048 49.138 18.2448 49.2389 18.3148C49.3398 18.3848 49.2389 18.4248 49.2389 18.4848L49.2691 18.4498C49.3448 18.0498 49.138 18.3198 49.0673 18.0998C48.9967 17.8798 49.1783 17.9148 49.2338 17.9048C49.2893 17.8948 49.2338 17.7448 49.2338 17.6748C49.2994 17.8298 49.138 17.9498 49.0623 17.8748C49.2136 17.7748 49.0976 17.5148 49.0623 17.4548C48.8907 17.7898 49.0623 17.6948 48.8605 17.9998C48.9059 18.0448 49.032 18.0498 48.9664 18.2348C48.9109 18.1098 48.8958 18.2348 48.8756 18.2698C48.9513 18.2398 48.8756 18.4048 48.9109 18.4648C48.8403 18.5098 48.7646 18.3348 48.699 18.5148L48.8605 18.5748C48.8251 18.6448 48.7444 18.5248 48.7545 18.6898C48.6839 18.5898 48.6183 18.6898 48.6284 18.4798C48.4366 18.7048 48.6284 18.8698 48.6586 19.0848V19.0448C48.6839 19.1057 48.6839 19.1739 48.6586 19.2348C48.583 19.3498 48.6132 19.1148 48.5527 19.1348C48.4921 19.1548 48.5174 19.2698 48.5022 19.3398C48.5022 19.3998 48.5022 19.4548 48.4619 19.4598C48.4295 19.4034 48.3924 19.3499 48.3509 19.2998L48.3963 19.5398C48.3509 19.4998 48.25 19.6798 48.26 19.5398L48.1894 19.8498H48.0734C48.0734 19.9248 48.0734 19.9348 48.1289 19.8498C48.0734 19.9398 48.1289 20.3498 47.9371 20.2248C47.9153 20.4413 47.8519 20.6518 47.7504 20.8448C47.7504 20.5998 47.4931 21.0048 47.5789 20.7748C47.4629 20.8698 47.5789 20.9548 47.5133 21.0648C47.4477 21.1748 47.3468 21.0248 47.367 20.9098V21.0498V21.1848C47.2459 21.2448 47.256 21.1398 47.1652 21.2298L47.2358 21.3098L47.1349 21.3398C47.1904 21.3398 47.1349 21.4148 47.1349 21.4898L47.0844 21.5898C47.0844 21.4648 47.0037 21.6548 46.9785 21.5898C46.9219 21.6582 46.8697 21.73 46.8221 21.8048H46.923C46.812 22.0048 46.8423 21.7398 46.7111 21.8648L46.7767 21.9098C46.4992 21.9998 46.5294 22.2898 46.3226 22.3498C46.3932 22.2648 46.3226 22.2148 46.3226 22.2348C46.1659 22.3681 46.0314 22.525 45.924 22.6998C45.8746 22.6726 45.819 22.6584 45.7625 22.6584C45.706 22.6584 45.6505 22.6726 45.6011 22.6998C45.5002 22.7748 45.4951 22.7948 45.4951 22.8698C45.369 22.9048 45.2176 23.0898 45.1672 23.0198C45.1672 23.0948 45.0713 23.0748 45.036 23.1498H45.0057L45.0562 23.2098C44.7787 23.1648 44.7787 23.4798 44.5112 23.4498V23.4098L44.4457 23.4848V23.3798C44.3195 23.4448 44.1833 23.4898 44.0521 23.5448H44.153C44.0723 23.5898 44.0471 23.6848 43.9361 23.6798C44.042 23.4998 43.7998 23.7348 43.7393 23.6798L43.8099 23.6148C43.6989 23.6698 43.6989 23.6698 43.7393 23.7398C43.598 23.8298 43.5778 23.6398 43.4668 23.7698L43.5728 23.7398C43.6182 23.7698 43.5728 23.8598 43.4971 23.8798L43.4668 23.8298C43.3558 23.8998 43.1591 23.9248 43.1136 23.9748C43.0682 24.0248 43.043 23.9148 43.0733 23.8798C42.8362 24.0348 42.9522 23.9098 42.705 24.0448V24.0048L42.6293 24.0848L42.4577 24.0048L42.5233 24.0498C42.4481 24.0897 42.3659 24.1152 42.2811 24.1248V24.0498C42.039 24.1548 41.9683 24.0048 41.7766 24.1448L41.711 24.0298C41.5092 24.1748 41.5243 23.9448 41.3225 24.1098V24.0448L41.2266 24.1048V24.0148L41.1661 24.1548L41.0904 24.0698L41.0551 24.1198C40.9239 23.9598 40.7877 24.1198 40.6262 23.9898L40.6615 24.0998C40.5711 24.1591 40.4682 24.1972 40.3606 24.211C40.253 24.2249 40.1437 24.2142 40.041 24.1798C39.8152 24.1237 39.5813 24.1068 39.3497 24.1298V24.0548L39.163 24.1548C39.0672 24.0798 39.2236 24.0798 39.1933 24.0298C38.9965 24.0748 39.1075 24.1648 38.8754 24.1798C38.7594 24.1148 38.9209 24.1148 38.9764 24.0848C38.7499 24.1448 38.5115 24.1448 38.2851 24.0848V24.1198C38.1148 24.1252 37.9447 24.105 37.7806 24.0598L37.8663 24.0198L37.6898 24.0048L37.7604 23.9398C37.6443 23.8998 37.4022 23.9398 37.3971 23.8348C37.3971 23.8698 37.3971 23.9348 37.2811 23.9098C37.2811 23.7748 36.9985 23.9098 36.8573 23.7798H36.9682C36.8976 23.7248 36.8118 23.7798 36.7261 23.7798L36.7664 23.7348C36.634 23.7416 36.5012 23.7281 36.3729 23.6948C36.3729 23.5398 36.0298 23.5798 36.0903 23.4998C35.9692 23.4448 36.1761 23.5948 36.0096 23.5498C36.0096 23.4798 35.8532 23.5198 35.8936 23.4398L35.7826 23.3998L35.8885 23.3498C35.8455 23.3372 35.7996 23.3381 35.7571 23.3524C35.7147 23.3668 35.6777 23.3938 35.6514 23.4298C35.5858 23.3398 35.4445 23.3148 35.4395 23.2248H35.4849C35.2124 23.1398 35.2225 22.7998 34.9803 22.8198H35.0156L34.8794 22.7298L34.9501 22.6948C34.8558 22.6791 34.7629 22.6557 34.6726 22.6248L34.7028 22.5898C34.5868 22.4598 34.3345 22.3298 34.1983 22.1698H34.2386C34.0166 22.0448 34.1024 21.9748 33.9359 21.8848L33.83 21.7648H33.8855C33.7341 21.7348 33.7745 21.4248 33.7543 21.5348C33.6786 21.5348 33.5626 21.4548 33.5071 21.4698C33.3961 21.3348 33.5071 21.3998 33.5071 21.2898C33.5071 21.1798 33.3708 21.2048 33.3103 21.0398H33.3506C33.3052 20.9748 33.2447 20.9548 33.1841 20.8598H33.2195C33.053 20.7348 33.2195 20.5948 32.9975 20.5548C32.9975 20.4698 32.9066 20.3498 32.9975 20.3198C32.8769 20.1406 32.7657 19.9554 32.6645 19.7648C32.7906 19.6848 32.6342 19.7198 32.6645 19.5598L32.5888 19.5898C32.5576 19.425 32.5441 19.2574 32.5484 19.0898C32.5787 18.9077 32.5787 18.7219 32.5484 18.5398H32.6291L32.5282 18.4798C32.52 18.0744 32.5334 17.6688 32.5686 17.2648C32.4964 17.1352 32.4648 16.9873 32.4778 16.8398C32.4589 16.5405 32.4965 16.2404 32.5888 15.9548L32.6594 15.9948C32.5888 15.9048 32.6998 15.8198 32.72 15.7548L32.6392 15.8148C32.5888 15.7148 32.6947 15.6098 32.7603 15.5798L32.7099 15.4248H32.7502L32.7149 15.3848L32.836 15.3498C32.836 15.3098 32.8663 15.1298 32.7906 15.0398C32.831 15.0398 32.9016 14.9298 32.8865 15.0398C32.9468 14.882 33.0176 14.7283 33.0984 14.5798L33.0277 14.6348C32.952 14.6348 32.9722 14.4548 33.0277 14.3948C33.0277 14.5198 33.1286 14.4498 33.1993 14.4398C33.2699 14.4298 33.1085 14.4398 33.0832 14.4098C33.0779 14.2993 33.1138 14.1907 33.1841 14.1048V14.0598C33.1841 13.9398 33.3506 13.9498 33.4112 13.8548C33.4717 13.7598 33.502 13.6948 33.3708 13.6448C33.4263 13.4998 33.4818 13.6448 33.5171 13.6098C33.5525 13.5748 33.6483 13.3548 33.719 13.3698C33.5928 13.1848 34.0217 13.0898 33.9006 12.9648L34.052 12.9198C34.022 12.8959 34.0005 12.8631 33.9905 12.8263C33.9805 12.7894 33.9826 12.7504 33.9965 12.7148C34.0923 12.6698 34.1377 12.7148 34.1932 12.7448L34.1075 12.5898C34.612 12.2998 35.0358 11.6998 35.6211 11.4848C35.8243 11.2559 36.0627 11.0601 36.3275 10.9048V10.9398C36.4233 10.8998 36.5293 10.8798 36.6252 10.8448L36.388 10.8698C36.4287 10.821 36.4783 10.7803 36.5343 10.7498C36.7059 10.7098 36.8976 10.6498 37.0944 10.5848C37.3022 10.5371 37.5013 10.4578 37.6847 10.3498C37.8916 10.0848 37.9067 10.4648 38.1186 10.2648L38.0883 10.3398L38.7594 10.0048C38.7594 10.1998 38.941 9.97479 38.9309 10.0798V9.99479C38.9965 10.0348 39.1479 10.0298 39.1328 10.0898L39.2438 9.97479V10.0548C39.4052 10.0548 39.7483 9.96979 39.8492 10.1248C40.353 10.0311 40.872 10.0585 41.3629 10.2048C41.4486 10.1448 41.595 10.1798 41.706 10.2048L41.8069 10.3248C41.9229 10.3248 42.0793 10.2448 42.1701 10.3248C42.2912 10.3248 42.3821 10.4298 42.5183 10.3848C42.6394 10.4348 42.7403 10.5248 42.6696 10.5948C42.7453 10.4498 42.927 10.7048 42.9169 10.7148L43.1742 10.8548C43.4053 10.9679 43.6264 11.1 43.8352 11.2498C44.5161 11.6965 45.1279 12.2388 45.6515 12.8598C46.2367 13.5662 46.7159 14.3527 47.0744 15.1948C47.4023 15.9798 47.6394 16.6948 47.8564 17.1148C47.9371 17.1698 47.9977 17.3298 48.0885 17.2648C48.1238 17.3898 47.9876 17.4498 48.0885 17.4748C48.1339 17.2998 48.2954 17.5298 48.3862 17.3548V17.4648C48.4417 17.4648 48.3155 17.3148 48.4165 17.3398L48.2701 17.3148C48.2719 17.2809 48.281 17.2478 48.2966 17.2176C48.3123 17.1875 48.3342 17.1609 48.361 17.1398C48.3004 17.0548 48.0986 17.0148 48.1743 16.8098V16.8648C48.1743 16.6998 48.26 16.7548 48.2853 16.7198V16.7548L48.3509 16.6098C48.3055 16.7198 48.4366 16.8848 48.4215 16.7948C48.4518 16.5898 48.3912 16.8498 48.366 16.6998C48.3408 16.5498 48.4316 16.6298 48.477 16.6298L48.4366 16.4398C48.5073 16.4398 48.4366 16.5548 48.5123 16.4748L48.4064 16.2748C48.5729 16.2098 48.2903 16.0598 48.4366 15.9398C48.4972 16.0848 48.4921 15.9398 48.5476 15.9398C48.5309 15.8145 48.5039 15.6907 48.4669 15.5698L48.5224 15.5998C48.5224 15.5198 48.4518 15.4948 48.4417 15.4548C48.4316 15.4148 48.366 15.1798 48.482 15.1598C48.482 14.8898 48.3155 15.0948 48.3105 14.8448C48.371 14.7898 48.3811 15.0248 48.4215 14.8998C48.3913 14.8209 48.356 14.7441 48.3155 14.6698C48.3318 14.667 48.3486 14.6675 48.3646 14.6713C48.3807 14.6751 48.3959 14.6821 48.4091 14.692C48.4224 14.7018 48.4334 14.7143 48.4416 14.7285C48.4498 14.7427 48.455 14.7585 48.4568 14.7748C48.4064 14.4724 48.381 14.1663 48.3811 13.8598C48.391 13.5767 48.3267 13.2959 48.1945 13.0448C48.1945 12.9248 48.2802 13.0748 48.3509 13.1098C48.0229 12.7498 48.1642 12.4348 47.927 12.1098L47.8665 12.1398C47.7766 11.8387 47.6274 11.5583 47.4275 11.3148C47.2055 11.0698 46.9835 10.8148 46.7615 10.5548V10.6448C46.6404 10.6166 46.5245 10.5693 46.4184 10.5048C46.4184 10.4698 46.5749 10.4498 46.4184 10.3448V10.4698C46.1359 9.93479 45.1117 9.24979 44.2842 8.77979C43.09 8.20034 41.792 7.86049 40.4648 7.77979C40.6615 7.77979 40.5657 7.94479 40.4244 7.89979C40.0309 7.58479 39.7382 7.93979 39.3245 7.76479C38.603 7.89979 37.8916 7.76479 37.276 8.18479L37.2407 8.10979C37.1297 8.10979 37.1146 8.15979 37.0187 8.20479V8.16479C36.7664 8.22479 36.5142 8.40479 36.3477 8.41979V8.50479C36.2114 8.56479 36.2467 8.45979 36.1257 8.56979V8.50479L35.9945 8.65979C35.944 8.50979 35.606 8.82979 35.4899 8.81979C35.2639 9.00382 35.0245 9.17094 34.7735 9.31979C34.6776 9.27479 34.3749 9.47979 34.168 9.58979C33.8047 9.86479 33.3305 10.3148 32.9066 10.7048L32.9924 10.7698L32.8915 10.8848L32.8612 10.8498C32.6998 10.8498 32.6544 11.1248 32.5232 11.1698C32.6443 11.1698 32.6039 11.0998 32.6645 11.0398C32.725 10.9798 32.7755 11.1348 32.6291 11.2198L32.5938 11.3348C32.5232 11.2948 32.4273 11.3348 32.3617 11.3098C32.0741 11.7248 31.9682 12.0548 31.6856 12.4748C31.6352 12.3848 31.5141 12.7948 31.4334 12.6348C31.3274 12.9248 31.5696 12.6348 31.5948 12.8248C31.5444 12.8948 31.5444 12.9948 31.4838 12.9798C31.4233 12.9648 31.3728 12.9798 31.3879 12.9298L31.3123 13.1148V13.0548C31.2114 13.4648 30.8884 13.6748 30.8531 14.0548L30.9591 13.9698C30.9591 14.3548 30.7522 14.2448 30.7068 14.5998L30.6563 14.5098C30.6563 14.6298 30.727 14.6998 30.616 14.8598C30.5201 14.8598 30.5857 14.6848 30.5706 14.5848C30.5302 14.7098 30.4697 15.0298 30.5706 14.9598C30.5706 15.1148 30.4697 15.1448 30.4243 15.2198C30.3788 15.2948 30.5201 15.0948 30.5403 15.2198C30.4235 15.4677 30.3485 15.7328 30.3183 16.0048H30.2729C30.3233 16.1448 30.1215 16.0948 30.1064 16.3798Z" fill="white"/>
<path d="M38.0026 25.6754L37.9067 25.6504L37.8462 25.7104L38.0026 25.6754Z" fill="#0F1212"/>
<path d="M32.6292 23.3102C32.7048 23.3552 32.6695 23.3102 32.6292 23.2402V23.3102Z" fill="#0F1212"/>
<path d="M46.7616 22.9609L46.7061 23.0459L46.7616 22.9609Z" fill="#0F1212"/>
<path d="M46.6556 23.0859L46.5698 23.1459L46.5799 23.1609L46.6556 23.0859Z" fill="#0F1212"/>
<path d="M47.2511 22.6992L47.1501 22.7842L47.2511 22.6992Z" fill="#0F1212"/>
<path d="M43.144 24.8906C43.0733 24.9556 43.1137 24.9256 43.144 24.8906V24.8906Z" fill="#0F1212"/>
<path d="M46.4084 23.4941L46.3983 23.4991L46.3882 23.5341L46.4084 23.4941Z" fill="#0F1212"/>
<path d="M47.5839 22.4004L47.5637 22.4504L47.6091 22.4154L47.5839 22.4004Z" fill="#0F1212"/>
<path d="M43.9513 17.8093C44.5644 17.8093 45.0613 17.2429 45.0613 16.5443C45.0613 15.8457 44.5644 15.2793 43.9513 15.2793C43.3383 15.2793 42.8413 15.8457 42.8413 16.5443C42.8413 17.2429 43.3383 17.8093 43.9513 17.8093Z" fill="white"/>
<path d="M36.1054 17.8093C36.7184 17.8093 37.2154 17.2429 37.2154 16.5443C37.2154 15.8457 36.7184 15.2793 36.1054 15.2793C35.4923 15.2793 34.9954 15.8457 34.9954 16.5443C34.9954 17.2429 35.4923 17.8093 36.1054 17.8093Z" fill="white"/>
<path d="M39.6878 4.52563L39.6828 4.53063L39.6777 4.51562L39.6878 4.52563Z" fill="#0F1212"/>
<path d="M40.1569 8.8557L40.1519 8.8457L40.1619 8.8507L40.1569 8.8557Z" fill="#0F1212"/>
<path d="M39.4254 6.58016C39.4254 6.52016 39.4657 6.43516 39.4254 6.38016L39.4758 6.32516H39.3547V6.26516H39.385L39.4607 6.16516H39.5263V6.14016L39.4859 6.09516L39.5566 6.00516H39.491V5.97516H39.4607V5.94016H39.4859V5.91016V5.86516H39.5717V5.81516L39.4607 5.85516H39.5717L39.602 5.82516L39.5515 5.80016H39.491H39.5263C39.6221 5.75516 39.4556 5.80016 39.4657 5.80016H39.496V5.77016H39.4254H39.4607V5.73016H39.491L39.5212 5.68016V5.65016V5.62016L39.6171 5.54516V5.51516H39.5566L39.6121 5.49016H39.5263L39.5818 5.46016H39.5061V5.42516H39.5566L39.6322 5.35016L39.6726 5.31516H39.5616L39.491 5.12016H39.4405L39.4708 5.09016L39.4405 5.00516H39.5011C39.4355 5.00516 39.4708 4.98016 39.4355 5.00516H39.3951C39.4506 5.00516 39.4456 4.97016 39.4506 4.95016H39.38L39.4405 4.90516H39.3547L39.2992 4.87516H39.3396H39.3749L39.4052 4.84516H39.3547L39.4708 4.80516H39.3547L39.3194 4.83516L39.3547 4.76016V4.73016C39.4254 4.73016 39.3951 4.69016 39.4405 4.69016H39.4052L39.3396 4.72016L39.3547 4.68516L39.3194 4.65516H39.3547C39.279 4.65516 39.3144 4.61516 39.3144 4.59016C39.3144 4.56516 39.3144 4.59016 39.3699 4.55516H39.3043L39.2336 4.58516L39.2538 4.50516H39.2185L39.2891 4.45016V4.41016C39.3497 4.41016 39.2891 4.41016 39.3598 4.41016L39.3245 4.44516H39.3547V4.50516H39.4052L39.4556 4.47016C39.5162 4.47016 39.4556 4.51016 39.4254 4.53516H39.4657L39.5162 4.50516H39.4859H39.5364V4.55516H39.5767C39.5767 4.55516 39.5212 4.62016 39.5767 4.59016V4.65516H39.6423V4.69016H39.713H39.7786V4.74516H39.8088V4.81516H39.8896V4.84516H39.9198C39.9905 4.84516 39.8946 4.89016 39.9551 4.89516H39.9955V4.93516V4.96016V5.00516H40.0359V5.05016V5.10016V5.14016C40.1065 5.14016 40.0359 5.14016 40.1116 5.16516H40.0661C39.9854 5.21516 40.1317 5.23516 40.1015 5.29016H40.1418L40.0914 5.33016H40.1267V5.40016V5.45016V5.50516H40.0964V5.53016V5.57516L40.1317 5.60516H40.1015H40.1418L40.1872 5.67016L40.1519 5.70516V5.78016V5.82516L40.0964 5.85516H40.1368V5.89516V6.00516C40.1065 6.00516 40.1923 6.00516 40.1368 6.05016H40.1771L40.1418 6.12516L40.2175 6.23016L40.2629 6.35516L40.2276 6.40516V6.55516H40.2579V6.58516L40.2024 6.62016H40.2326V6.67516L40.1973 6.70516V6.74016H40.2377L40.1872 6.76516H40.2276V6.79516C40.157 6.79516 40.2629 6.83516 40.1973 6.84516C40.273 6.90016 40.2326 6.98016 40.2932 7.03516V7.13516V7.16516H40.2629L40.2982 7.29016C40.2326 7.32516 40.3638 7.29016 40.2982 7.33516L40.2276 7.41516H40.273C40.273 7.41516 40.273 7.47016 40.3184 7.47516V7.67516H40.3638L40.3336 7.71016V7.75016H40.3891C40.3891 7.75016 40.5656 8.46016 40.2478 8.64516H40.0611L40.1267 8.61016H40.0409C39.9753 8.61016 40.0712 8.61016 40.0106 8.58016H39.9703V8.54516H39.9299V8.50516H39.8593C39.824 8.44516 39.6877 8.42016 39.718 8.36516H39.6776L39.6121 8.28016C39.5313 8.23516 39.5767 8.18016 39.5414 8.12516L39.5818 8.10016C39.5162 8.06016 39.5263 7.96016 39.491 7.89016C39.4556 7.82016 39.491 7.68516 39.4556 7.58016H39.5011C39.3951 7.58016 39.5011 7.52516 39.4405 7.50016C39.4708 7.44016 39.3749 7.39516 39.4405 7.33516H39.4102V7.37516H39.4758C39.4153 7.37516 39.4758 7.34016 39.4405 7.33516V7.26516L39.3951 7.22016V7.10516H39.4304V7.07016H39.491L39.5212 6.96016C39.491 6.96016 39.5212 6.93016 39.4708 6.96016H39.5162V6.87516V6.82516H39.4859V6.79516L39.4405 6.82016L39.4758 6.78516V6.61016L39.4254 6.58016Z" fill="white"/>
<path d="M39.4457 5.5L39.4508 5.51L39.4255 5.515L39.4457 5.5Z" fill="#0F1212"/>
<path d="M39.3801 4.73438L39.3902 4.73937H39.3801V4.73438Z" fill="#0F1212"/>
<path d="M39.3346 4.7793L39.3397 4.7843H39.3296L39.3346 4.7793Z" fill="#0F1212"/>
<path d="M39.2994 4.66016L39.2943 4.66516L39.2893 4.66016H39.2994Z" fill="#0F1212"/>
<path d="M39.7181 4.04517C40.2981 3.30856 41.1282 2.80573 42.0542 2.63017C43.4821 2.43517 44.7132 2.86517 44.7132 3.33517C44.7132 3.80517 44.1178 5.04517 41.0451 5.04517C39.3549 5.04517 39.7181 4.04517 39.7181 4.04517Z" fill="#66EF5B"/>
<path d="M40.5607 3.44055V3.43555L40.5254 3.45555L40.5607 3.44055Z" fill="#0F1212"/>
<path d="M40.3286 3.13094L40.3639 3.08594L40.3286 3.13094Z" fill="#0F1212"/>
<path d="M39.7835 4.15039L39.7734 4.16039L39.7835 4.15539V4.15039Z" fill="#0F1212"/>
<path d="M42.6899 4.4757H42.695V4.4707L42.6899 4.4757Z" fill="#0F1212"/>
<path d="M45.0814 3.89516C45.1261 3.7694 45.1533 3.63819 45.1622 3.50516C45.1716 3.34697 45.1476 3.18857 45.0915 3.04016C45.0245 2.99071 44.9621 2.9355 44.9049 2.87516L44.9503 2.83016L44.9049 2.78516C44.9049 2.78516 44.7737 2.65516 44.9049 2.70016C44.8461 2.64917 44.7837 2.60238 44.7182 2.56016H44.6576C44.5466 2.45016 44.4558 2.56016 44.3499 2.51016H44.2994C44.2994 2.57016 44.3297 2.51016 44.3549 2.51016L44.2893 2.55516H44.2187L44.0774 2.50516L43.9765 2.54516V2.47016H43.8352V2.50516H43.588L43.5426 2.53516V2.60516C43.5073 2.55016 43.477 2.65016 43.4164 2.60516H43.4518L43.5325 2.50516H43.4871V2.55016H43.4518V2.58516H43.3912C43.3559 2.58516 43.3054 2.58516 43.3004 2.53016V2.50516H43.2298C43.149 2.60016 43.2298 2.44016 43.1642 2.44516V2.50516L43.0784 2.48016L43.038 2.41016V2.44516H42.8867L42.7858 2.50516L42.8312 2.47516H42.7403L42.7807 2.44516H42.6394C42.5537 2.44516 42.5436 2.52016 42.4982 2.56016V2.50516L42.4477 2.44016V2.50516H42.3821V2.56016H42.3317V2.50516H42.2762V2.57016H42.0844V2.61016H42.0239V2.50516L41.9886 2.57516L41.9532 2.50516H41.8322L41.8776 2.54516C41.7867 2.58516 41.8069 2.67516 41.7363 2.67516L41.6909 2.73516C41.6879 2.72235 41.6824 2.71025 41.6747 2.69954C41.667 2.68884 41.6573 2.67975 41.646 2.67278C41.6348 2.66582 41.6223 2.66112 41.6092 2.65895C41.5961 2.65678 41.5827 2.65719 41.5698 2.66016V2.66016L41.6202 2.72016H41.4941L41.4336 2.67516L41.373 2.75516H41.2721V2.81516C41.2721 2.75516 41.1914 2.81516 41.1813 2.81516H41.1409V2.80016L41.0804 2.90016C41.0804 2.82516 41.0451 2.93016 40.9946 2.90016L40.9542 3.00516L40.8685 2.95516V3.00516H40.7676V3.06516V3.10516L40.7373 3.16516H40.6969L40.7474 3.27016V3.32016L40.7121 3.28516V3.34016H40.6465L40.5859 3.27516L40.4497 3.09516L40.4194 3.16016L40.3236 3.09516H40.3942L40.3639 3.10016C40.4396 3.10016 40.3336 3.19016 40.3639 3.20516H40.3286L40.263 3.15516L40.3034 3.18516H40.2025L40.2327 3.22016H40.1924L40.2327 3.25516V3.30516V3.33016H40.1974V3.38516H40.1621L39.9956 3.50516V3.55516C39.9149 3.52516 39.8745 3.63016 39.8341 3.68516C39.8947 3.71516 39.8341 3.68516 39.8341 3.75016L39.7837 3.71016V3.74016C39.7383 3.74016 39.7837 3.68016 39.7433 3.67516L39.703 3.79016H39.6576V3.74516C39.5869 3.80516 39.6828 3.80016 39.6576 3.85516H39.5869V3.90016H39.6576L39.6121 4.00516C39.703 3.97016 39.6475 3.96016 39.7383 3.94016V3.84516H39.7736V3.79516L39.8392 3.83016L39.7988 3.78516H39.8594V3.85516C39.9351 3.85516 39.8947 3.77516 39.9098 3.72516L39.9401 3.69016L39.9805 3.72516L40.0259 3.66516L40.0612 3.69016C40.0612 3.69016 40.0915 3.56016 40.1369 3.63016C40.1369 3.56516 40.1823 3.56016 40.2226 3.50016C40.2226 3.56516 40.2983 3.50016 40.2681 3.55016L40.2983 3.48016L40.3336 3.54516V3.50516V3.47016H40.3639V3.43516H40.4951V3.39516H40.5254L40.5708 3.35016H40.6313C40.7121 3.35016 40.6969 3.27016 40.7524 3.27016V3.30516L40.8685 3.20016L40.9593 3.23516V3.18516H41.0451V3.15016C41.1207 3.18516 41.1006 3.07516 41.1762 3.11016V3.14516L41.2671 3.11016H41.2217L41.2721 3.07016C41.2721 3.13016 41.3024 3.07016 41.3226 3.07016V3.00516H41.373V2.96016L41.4537 2.92016V2.95516L41.5294 2.90516H41.6253V2.93516L41.7413 2.91016H41.8271V2.93516C41.8624 2.99516 41.8877 2.93516 41.928 2.98516V2.95516C41.9936 2.85516 42.1298 2.98516 42.2257 2.95516V3.00516L42.2661 2.96016V3.00516L42.3367 2.94516V2.98016H42.6092V3.00516H42.6546H42.7454H43.0027L43.0784 3.04016H43.1137V3.07016L43.1642 3.01016L43.2298 3.05016C43.2953 3.05016 43.3206 3.15516 43.3811 3.11016H43.3912L43.5073 3.06516L43.6687 3.09516C43.7343 3.09516 43.7192 3.12516 43.7696 3.09516H43.81L43.8655 3.13016L43.926 3.09016V3.13516H44.0118C44.0623 3.13516 44.0118 3.19516 44.0925 3.13516V3.18516H44.2187V3.28016C44.2187 3.31516 44.2187 3.28016 44.1834 3.34016V3.41516L44.1178 3.56516V3.60016V3.64016H44.0774V3.72016L43.9967 3.78516V3.84016L43.9462 3.80016H43.9815L43.9412 3.86016H43.8958V4.06516H43.7999C43.7999 4.13516 43.7091 4.09016 43.7343 4.14516H43.6939V4.21016L43.6384 4.16516V4.23016C43.4972 4.23016 43.371 4.34016 43.2146 4.33016C43.1595 4.37785 43.0938 4.4121 43.0229 4.43016H42.9674C42.8689 4.42392 42.7703 4.44106 42.6798 4.48016C42.6293 4.56016 42.6243 4.42516 42.5738 4.48016V4.43516C42.5186 4.46724 42.4662 4.50405 42.4174 4.54516C42.4174 4.47016 42.3771 4.54516 42.3771 4.51516V4.54516L42.3064 4.50516V4.54516C42.2661 4.54516 42.1803 4.58516 42.15 4.54516C42.0308 4.59573 41.9004 4.61469 41.7716 4.60016L41.6909 4.63516L41.6556 4.60016L41.5698 4.64016H41.479L41.4235 4.59016C41.4235 4.65016 41.3528 4.59016 41.3528 4.59016H41.0804C40.8944 4.58032 40.7091 4.56029 40.5254 4.53016C40.3932 4.50537 40.2645 4.46509 40.1419 4.41016C40.0667 4.36669 40.0041 4.30468 39.9603 4.23016L39.8594 4.18516H39.7988L39.7534 4.21016L39.8039 4.28516H39.7231V4.24516H39.6828V4.28516L39.7131 4.33016C39.6475 4.33016 39.7433 4.37516 39.7131 4.40516H39.6676L39.6979 4.49516V4.52516V4.60016C39.6979 4.67516 39.7585 4.60016 39.7686 4.66016H39.7585L39.8039 4.70516H39.7484C39.8291 4.86016 39.8493 5.04016 40.0208 5.09016H39.9704C40.1016 5.11516 40.1066 5.21516 40.2126 5.25516C40.3336 5.37016 40.5153 5.36016 40.6616 5.40516L40.7423 5.37516C40.935 5.43502 41.1358 5.46537 41.3377 5.46516C41.6172 5.47014 41.8968 5.46013 42.1752 5.43516V5.40516C42.2711 5.50016 42.3165 5.37016 42.4124 5.40516C42.5638 5.35516 42.7252 5.40516 42.8564 5.31016V5.33516H42.8867C42.9472 5.33516 43.0027 5.29016 43.038 5.30016V5.24516H43.0885L43.1188 5.20516C43.1188 5.26016 43.2096 5.18016 43.2449 5.20516C43.2969 5.16561 43.3573 5.13826 43.4215 5.12516H43.5728L43.921 4.96516V4.93016H43.9513L44.0522 4.89516H44.0118V4.84516V4.81016L44.0774 4.86016C44.1733 4.79016 44.2136 4.71516 44.3196 4.65016C44.3196 4.68516 44.3852 4.59016 44.4003 4.65016C44.4457 4.59016 44.3599 4.62016 44.365 4.57016H44.4003L44.4306 4.60016L44.4659 4.57016C44.5214 4.48016 44.6274 4.47016 44.6728 4.38516H44.6173C44.6526 4.29016 44.703 4.35016 44.7384 4.26016V4.29516L44.7787 4.21016L44.8494 4.16016H44.809C44.867 4.11794 44.9167 4.06537 44.9553 4.00516C44.9906 3.93516 45.0411 3.97016 45.0814 3.89516Z" fill="white"/>
<path d="M42.5889 2.28953L42.609 2.29453L42.6191 2.26953L42.5889 2.28953Z" fill="#0F1212"/>
<path d="M40.606 2.9857L40.6261 2.9757L40.6211 2.9707L40.606 2.9857Z" fill="#0F1212"/>
<path d="M40.6565 2.88414L40.6615 2.87914V2.86914L40.6565 2.88414Z" fill="#0F1212"/>
<path d="M40.3588 3.08031L40.3638 3.07031L40.3538 3.07531L40.3588 3.08031Z" fill="#0F1212"/>
<path d="M36.9682 1.50586C38.4819 1.50586 39.6928 4.50586 39.6928 4.50586C39.6928 4.50586 36.2972 5.66086 34.4455 3.27086C34.3871 3.19758 34.3592 3.1049 34.3677 3.01189C34.3761 2.91889 34.4202 2.83263 34.4909 2.77086C34.9501 2.34086 36.0247 1.50586 36.9682 1.50586Z" fill="#66EF5B"/>
<path d="M37.9167 2.05539V2.05039L37.8865 2.02539L37.9167 2.05539Z" fill="#0F1212"/>
<path d="M36.8723 1.77523L36.9127 1.74023L36.8723 1.77523Z" fill="#0F1212"/>
<path d="M38.1792 1.76562L38.2347 1.79562L38.1792 1.76562Z" fill="#0F1212"/>
<path d="M36.8774 1.57922L36.8623 1.57422L36.8674 1.58422L36.8774 1.57922Z" fill="#0F1212"/>
<path d="M39.6627 4.73047L39.6223 4.77047L39.6627 4.73047Z" fill="#0F1212"/>
<path d="M37.1448 5.20908C37.3446 5.19159 37.5455 5.19159 37.7452 5.20908L37.8966 5.14908V5.20908H37.942C37.942 5.20908 38.0681 5.20908 37.9874 5.26408H38.1741L38.2397 5.22408V5.25408C38.381 5.28908 38.386 5.12908 38.5121 5.14408L38.5727 5.11408C38.5727 5.05408 38.5727 5.14908 38.5121 5.11408L38.5525 5.04408H38.6181L38.7644 5.07408L38.8502 5.00408L38.8956 5.04908V5.00408H38.9309L38.9965 4.94408V5.00408H39.1176L39.0873 4.95908H39.158V4.98908C39.2084 4.95908 39.158 4.94908 39.269 4.94408C39.3093 4.89408 39.39 4.90908 39.4758 4.88908L39.5212 4.84408L39.4556 4.80908C39.5414 4.80908 39.5011 4.73908 39.607 4.73908L39.5767 4.76908V4.88908H39.6524V4.81908H39.7079L39.6575 4.76408H39.718C39.7735 4.72908 39.718 4.71908 39.7836 4.70908C39.8492 4.70908 39.8946 4.66408 39.9703 4.70908V4.73408H40.046L40.1317 4.68908H40.0762C40.0762 4.60408 40.1317 4.68908 40.2024 4.68908V4.65408C40.1418 4.56908 40.2024 4.65408 40.1519 4.61908C40.1015 4.58408 40.1519 4.57408 40.1216 4.49408L40.1771 4.45408L40.0056 4.24408C40.0056 4.31408 40.0863 4.33408 40.0661 4.40908L40.0056 4.37408C39.9716 4.31922 39.9445 4.26045 39.9249 4.19908C39.8694 4.11408 39.8189 4.09408 39.7937 4.01908L39.8593 4.08408C39.8593 4.02908 39.8593 4.02908 39.8139 3.94908L39.8593 4.00408L39.8088 3.91408L39.7382 3.79908C39.6928 3.70408 39.6272 3.72908 39.5666 3.69908L39.5969 3.67408L39.6322 3.59408H39.5919L39.5616 3.53408H39.5162L39.4758 3.45908L39.4355 3.40908H39.3648V3.35908L39.3547 3.32908V3.21408H39.3194L39.2891 3.15408L39.3547 3.11408H39.279C39.3245 3.11408 39.279 3.05408 39.3396 3.05908L39.2891 2.94408V3.00408C39.2286 2.92408 39.1428 2.96908 39.1176 2.89908L39.0419 2.86908V2.70908L38.9965 2.77408V2.81408L38.946 2.73408V2.68908L38.8502 2.65408V2.54408L38.7947 2.57408V2.50408L38.7594 2.46908H38.7947L38.6786 2.42408C38.7442 2.37908 38.6433 2.38908 38.6786 2.32408H38.5676V2.23908L38.5222 2.11908H38.4869V2.04408H38.3961V2.00408L38.2851 2.05408H38.2296V2.00908H38.1791L38.1489 1.94408L38.2044 1.87408V1.79408V1.82908L38.1388 1.79908C38.1388 1.88408 38.0379 1.79908 38.0379 1.83408L38.0025 1.79908L38.0328 1.72408L37.947 1.68908L38.0227 1.65408H37.9319V1.70408H37.8865V1.61908H37.8562V1.58908H37.8411V1.54408L37.7452 1.46408H37.6897C37.6897 1.37408 37.5535 1.37408 37.4728 1.35408C37.4728 1.42408 37.4728 1.35408 37.4173 1.40408C37.3618 1.45408 37.3618 1.33408 37.4173 1.33908H37.3769C37.3769 1.29408 37.4526 1.33908 37.4223 1.27408H37.2709V1.23908H37.3365C37.2255 1.20908 37.2962 1.28908 37.2306 1.30908C37.165 1.32908 37.1852 1.26908 37.1801 1.24908H37.0338L37.0843 1.31408H36.9834C37.0742 1.37908 37.0489 1.31408 37.1297 1.38908L37.1953 1.35408V1.38908H37.2508V1.42908L37.1953 1.50408C37.2457 1.56908 37.2962 1.50408 37.3567 1.50408H37.4072L37.3769 1.55908H37.4576L37.4072 1.60408H37.4728V1.65408L37.5484 1.67908V1.72408C37.5484 1.72408 37.6897 1.72408 37.6393 1.78408C37.6954 1.78901 37.7502 1.80427 37.8007 1.82908C37.7301 1.82908 37.8007 1.91408 37.7654 1.88908H37.8411L37.7856 1.94408H37.8411V2.00408H37.8714H37.9117V2.03908L37.9622 2.07908V2.13908C37.9622 2.22408 38.0631 2.19908 38.0732 2.25408H38.0379L38.1741 2.33908V2.43908H38.2296L38.275 2.51908L38.3154 2.54408C38.3154 2.62908 38.4011 2.59908 38.391 2.67908H38.3608L38.4213 2.76908V2.73408L38.4718 2.77908C38.4112 2.77908 38.4718 2.80908 38.4718 2.83408H38.5172V2.87908H38.5676L38.6332 2.95408H38.603C38.6635 2.99908 38.603 2.98408 38.6786 3.02908H38.7089V3.07908L38.7493 3.12908H38.719C38.7695 3.17908 38.719 3.21408 38.7896 3.24908C38.8552 3.27908 38.7896 3.30908 38.8451 3.33408V3.36908C38.8048 3.42408 38.8451 3.43408 38.8451 3.49408L38.9208 3.50408C39.047 3.54408 38.9864 3.72408 39.0772 3.80908L39.168 3.85908H39.1226L39.2084 3.98908V4.03908H39.1529V4.05408H39.2034C39.1428 4.05408 39.2387 4.08408 39.2034 4.09408L39.2488 4.12408H39.2185L39.274 4.17408H39.168L39.2235 4.22908H39.0873L38.941 4.26408C38.8805 4.30408 38.8754 4.26408 38.825 4.28908H38.6988L38.6534 4.35408L38.603 4.32408H38.5172L38.4516 4.34908C38.4011 4.38908 38.381 4.30408 38.3507 4.38408L38.2851 4.35408C38.228 4.37773 38.1689 4.39614 38.1085 4.40908H38.058V4.43908C37.9672 4.43908 37.8613 4.37408 37.7604 4.38408C37.6538 4.36337 37.5459 4.35 37.4374 4.34408H37.3214C37.2431 4.35906 37.1626 4.35906 37.0843 4.34408H37.0187V4.36908L36.9531 4.33408L36.9127 4.35908V4.37408L36.832 4.40908V4.37908L36.7008 4.33908H36.6302H36.5444L36.4536 4.17408L36.3981 4.20908V4.14408L36.3274 4.10408C36.282 4.16408 36.2366 4.04408 36.2063 4.10408V4.06408L36.1508 4.10408V4.04408L36.1105 4.09408C36.0146 3.96908 35.8128 3.94408 35.7169 3.80408C35.6404 3.78277 35.5674 3.75078 35.5 3.70908V3.70908L35.4445 3.63408L35.4798 3.68908H35.4243C35.3758 3.59421 35.298 3.51715 35.2023 3.46908C35.1014 3.46908 35.2023 3.39408 35.1216 3.38908H35.1518C35.0762 3.38908 35.0509 3.33408 34.9652 3.30908C35.0257 3.26908 34.9349 3.27908 34.9652 3.25408V3.18908H34.9197L34.8592 3.12908V3.08408V3.00408H34.8945V2.95408H34.9652L35.0257 2.90908C35.0257 2.90908 35.4041 2.63408 35.833 2.37908C36.2618 2.12408 36.721 1.92408 36.9077 1.77408L36.9379 1.68908H36.9884L36.9581 1.57908V1.63408L36.9178 1.59908L36.832 1.66908L36.7916 1.62908H36.7563L36.7967 1.56908H36.7563L36.7059 1.60408C36.7059 1.54408 36.6554 1.64408 36.6201 1.60408V1.50408L36.4738 1.54908H36.393C36.3224 1.54908 36.393 1.60908 36.3174 1.60408V1.55908H36.2467V1.50408C36.0701 1.50408 35.9238 1.44408 35.7876 1.54408V1.50408C35.6968 1.59408 35.6059 1.50408 35.5151 1.56908C35.3486 1.56908 35.2225 1.69908 35.0762 1.75908L35.0257 1.83408C34.8207 1.91005 34.6285 2.01625 34.4556 2.14908L34.279 2.29908C34.1786 2.37351 34.0872 2.45907 34.0065 2.55408C33.9252 2.66072 33.8743 2.78709 33.8592 2.91993C33.8441 3.05276 33.8654 3.18718 33.9207 3.30908C33.8905 3.23408 33.9611 3.24908 33.9662 3.30908C33.9598 3.34411 33.963 3.38019 33.9754 3.41359C33.9878 3.44699 34.009 3.4765 34.0368 3.49908L34.1579 3.65908C34.3092 3.76408 34.3395 3.96908 34.5312 4.01408L34.5817 4.04408L34.7179 4.15408L34.7583 4.19908H34.8138L34.9046 4.30908L35.0963 4.40408L35.2124 4.52908C35.3083 4.58908 35.4596 4.64908 35.5858 4.71408V4.63908H35.6211L35.722 4.69908H35.7623V4.77908C35.8784 4.82408 35.9743 4.77908 36.0903 4.84908L36.1357 4.91408C36.2164 4.91408 36.1357 4.86408 36.1862 4.83908H36.2265V4.87908H36.277C36.3829 4.87908 36.4485 4.95908 36.5444 4.94908V4.91408C36.6453 4.91408 36.615 4.96908 36.7059 4.95908H36.7916L36.726 4.98908H36.8169L36.8824 5.02908V5.00408C36.9428 5.02502 37.0055 5.03845 37.0691 5.04408C37.0893 5.13408 37.0742 5.20908 37.1448 5.20908Z" fill="white"/>
<path d="M39.7585 3.88477L39.7686 3.91977L39.7989 3.92977L39.7585 3.88477Z" fill="#0F1212"/>
<path d="M38.3962 2.0293L38.4114 2.0493L38.4164 2.0443L38.3962 2.0293Z" fill="#0F1212"/>
<path d="M38.5122 2.07031V2.07531H38.5273L38.5122 2.07031Z" fill="#0F1212"/>
<path d="M38.2297 1.79516H38.2449L38.2348 1.78516L38.2297 1.79516Z" fill="#0F1212"/>
</svg>