<svg width="42" height="41" viewBox="0 0 42 41" fill="none" xmlns="http://www.w3.org/2000/svg">
<path d="M41.0447 19.9151C40.21 19.6786 39.3212 19.737 38.5234 20.0808C37.7472 20.4222 37.0211 21.0389 36.2699 21.8645C35.5188 22.6902 34.68 23.7834 33.681 25.1238C32.8372 26.2501 31.8683 27.565 30.7115 29.0786C30.3574 28.4003 29.8031 27.8521 29.1266 27.5115C28.9527 27.4253 28.7617 27.3809 28.5683 27.3815H22.6067C22.9172 24.4841 23.3303 21.7422 24.4796 19.3061C25.6914 19.8565 26.8031 20.0298 27.7996 19.8489C28.9013 19.6312 29.8794 18.993 30.5338 18.0651C31.8833 16.261 32.4366 13.3993 32.3916 10.5325C32.3869 10.2935 32.2969 10.0645 32.1384 9.88819C31.9799 9.71187 31.7637 9.6003 31.5303 9.57435C28.1376 9.2023 25.5562 10.2241 24.089 12.0079C22.6218 13.7917 22.3539 16.238 23.4155 18.4779C23.4298 18.5068 23.4457 18.5349 23.463 18.562C23.1119 19.2843 22.8139 20.0321 22.5717 20.7994C22.3489 16.2125 21.5702 12.3902 19.9352 9.4928C21.0018 7.26308 21.2647 4.93908 19.8551 3.12218C18.4454 1.30528 15.4434 0.224823 10.6436 0.173858C10.3857 0.17182 10.1376 0.273961 9.95359 0.457878C9.76959 0.641795 9.66478 0.892474 9.66214 1.15493C9.6371 5.278 10.7563 8.04794 12.6442 9.52338C14.3968 10.902 16.6928 11.0268 18.9512 10.2879C21.0619 14.1535 21.6303 19.9228 21.3248 27.3942H19.6748C18.8733 27.123 18.104 26.7614 17.3813 26.3163C16.5676 25.85 15.6512 25.297 14.6447 24.7874C12.1906 23.4827 9.43381 22.8828 6.6701 23.052C5.33057 23.1259 3.93346 23.8777 2.83179 24.6396C1.96756 25.2415 1.15281 25.9139 0.395599 26.6502C0.271054 26.7719 0.171846 26.9178 0.103883 27.0794C0.0359197 27.2409 0.00059084 27.4147 0 27.5905V33.8999C0.00130189 34.0812 0.0378359 34.2603 0.107496 34.4272C0.177156 34.594 0.278565 34.7451 0.405878 34.8718C0.53319 34.9985 0.683888 35.0984 0.849286 35.1656C1.01468 35.2327 1.19151 35.2659 1.36957 35.2632C5.57595 35.2174 9.08126 36.6826 12.2686 38.1657C13.8485 38.8996 15.3783 39.6513 16.8405 40.1915C18.3027 40.7318 19.7474 41.0732 21.2046 40.9866C23.6709 40.9866 25.7615 40.0208 29.4246 38.4384H29.4521C32.0564 37.9173 34.4217 36.5436 36.1873 34.5268C36.2636 34.4352 36.3269 34.3331 36.3751 34.2235L41.8684 21.7371C41.9523 21.5648 41.9972 21.3756 41.9999 21.1833C42.0026 20.9911 41.963 20.8006 41.884 20.626C41.805 20.4513 41.6887 20.2968 41.5434 20.1738C41.3982 20.0508 41.2278 19.9624 41.0447 19.9151ZM25.0379 12.8106C26.1446 11.4651 28.1952 10.535 31.1547 10.8001C31.1547 13.4553 30.6189 15.8685 29.5498 17.2955C29.0841 17.976 28.3781 18.4471 27.5793 18.6104C26.9058 18.7327 26.077 18.6334 25.0755 18.1925C25.9295 16.7674 27.0529 15.5288 28.3805 14.5485C28.5133 14.4495 28.602 14.3009 28.6271 14.1353C28.6523 13.9697 28.6117 13.8007 28.5144 13.6656C28.4172 13.5304 28.2711 13.4401 28.1084 13.4145C27.9457 13.389 27.7797 13.4302 27.6469 13.5292C26.3042 14.525 25.1511 15.7616 24.2442 17.1783C23.9979 16.4421 23.9416 15.6538 24.0806 14.889C24.2195 14.1242 24.5492 13.4085 25.0379 12.8106ZM19.129 8.22377C18.0604 6.74928 16.6532 5.56375 15.0303 4.7709C14.8828 4.69656 14.7125 4.68486 14.5566 4.73838C14.4007 4.79191 14.2721 4.90627 14.199 5.0563C14.126 5.20634 14.1145 5.37976 14.1671 5.53842C14.2197 5.69708 14.332 5.82798 14.4794 5.90232C15.9999 6.64176 17.3072 7.76783 18.2752 9.17172C16.3948 9.72469 14.6772 9.52338 13.3978 8.52447C11.9781 7.41598 10.9316 5.19391 10.894 1.44034C15.4409 1.52698 17.837 2.56411 18.8786 3.90449C19.7374 5.01298 19.7975 6.50116 19.129 8.22377ZM40.7317 21.1969L35.2384 33.6833C33.6585 35.4762 31.55 36.6994 29.2293 37.1693C29.1296 37.1884 29.0323 37.2183 28.9388 37.2585C25.1831 38.8919 23.3604 39.715 21.2046 39.715H21.1646C19.9352 39.7966 18.6608 39.5061 17.2611 38.9939C15.8615 38.4817 14.3993 37.7656 12.7819 37.019C9.5745 35.5283 5.85637 33.9611 1.35455 34.0019C1.32189 34.0021 1.29044 33.9893 1.26692 33.9662C1.25728 33.9576 1.2496 33.947 1.24441 33.9352C1.23922 33.9233 1.23665 33.9104 1.23687 33.8974V27.5905C1.23478 27.5804 1.23478 27.57 1.23687 27.5599C1.94521 26.8732 2.70628 26.2452 3.51282 25.6818C4.57693 24.9479 5.73619 24.3618 6.72519 24.3083C9.27439 24.1509 11.8174 24.706 14.0788 25.9137C15.0503 26.4081 15.9041 26.933 16.7629 27.4274C17.5667 27.9184 18.4226 28.3151 19.3143 28.6098C19.432 28.6459 19.5543 28.6639 19.6773 28.6633H28.5733C29.0551 28.9064 29.4423 29.3077 29.6724 29.8023C29.748 29.9597 29.8076 30.1245 29.8502 30.2942C29.8652 30.3553 29.8753 30.4012 29.8803 30.4292C29.8815 30.4377 29.8815 30.4462 29.8803 30.4547C29.8803 30.5057 29.8803 30.5796 29.8602 30.6738C29.8286 30.9182 29.7706 31.1584 29.6875 31.3899C29.5951 31.6892 29.433 31.9614 29.2151 32.1832C28.9971 32.4051 28.7297 32.57 28.4356 32.664H18.0398C17.9668 32.6645 17.8939 32.6713 17.822 32.6844L15.7313 33.0157C15.649 33.0266 15.5696 33.0543 15.498 33.0971C15.4264 33.1399 15.3639 33.1969 15.3145 33.2648C15.265 33.3327 15.2294 33.41 15.2099 33.4922C15.1905 33.5744 15.1874 33.6597 15.2011 33.7431C15.2147 33.8265 15.2447 33.9062 15.2893 33.9776C15.3338 34.0489 15.3921 34.1104 15.4605 34.1583C15.5289 34.2062 15.6061 34.2396 15.6875 34.2565C15.7688 34.2734 15.8527 34.2735 15.9341 34.2567L18.0248 33.905H28.4481C28.5735 33.9062 28.6985 33.8881 28.8187 33.8515C29.2922 33.6993 29.7237 33.4353 30.0779 33.081C30.4321 32.7267 30.699 32.2922 30.8567 31.8129C30.9761 31.4956 31.0601 31.1657 31.1071 30.8293C31.1071 30.7452 31.1272 30.6764 31.1322 30.6127C32.5543 28.7703 33.7136 27.1955 34.685 25.8959C35.6866 24.5504 36.4903 23.5082 37.1888 22.731C37.8874 21.9537 38.4733 21.4849 39.0166 21.2453C39.5644 21.0088 40.1758 20.9728 40.7467 21.1434C40.7505 21.1607 40.7479 21.1789 40.7392 21.1944L40.7317 21.1969Z" fill="#FEFEFF"/>
</svg>
