<svg width="172" height="50" viewBox="0 0 172 50" fill="none" xmlns="http://www.w3.org/2000/svg">
<path d="M2.49246 4.04584C1.91205 4.09526 1.33541 3.91557 0.888 3.54584C0.690876 3.35032 0.538068 3.1154 0.439757 2.85675C0.341446 2.5981 0.29989 2.32166 0.31786 2.04584C0.305145 1.77301 0.350707 1.50059 0.451565 1.24641C0.552423 0.992232 0.706303 0.762022 0.903136 0.570844C1.1165 0.376179 1.36708 0.225881 1.64006 0.128836C1.91304 0.0317919 2.20289 -0.0100298 2.49246 0.005844C3.07637 -0.0284838 3.65058 0.165384 4.09188 0.545844C4.29094 0.740632 4.44603 0.975049 4.54692 1.23362C4.64781 1.49218 4.6922 1.76902 4.67716 2.04584C4.6868 2.31608 4.63976 2.58536 4.53902 2.83667C4.43828 3.08797 4.28602 3.31583 4.09188 3.50584C3.87497 3.69682 3.62177 3.84295 3.34712 3.93568C3.07248 4.02841 2.78191 4.06586 2.49246 4.04584ZM0.918272 24.0458V7.67584H4.17261V24.0458H0.918272Z" fill="white"/>
<path d="M18.8751 24.3509C17.4301 24.3701 15.9964 24.0962 14.6621 23.5459C13.3966 23.0165 12.2596 22.2255 11.3271 21.2259C10.3688 20.19 9.62639 18.9768 9.14238 17.6559C8.61687 16.2134 8.35545 14.6895 8.37042 13.1559C8.36015 11.6566 8.64818 10.1699 9.21806 8.78095C9.75711 7.46788 10.543 6.26828 11.5339 5.24595C13.2609 3.47016 15.5674 2.35894 18.0434 2.10992C20.5193 1.86089 23.0041 2.49021 25.0558 3.88595C25.8369 4.41593 26.5196 5.07563 27.074 5.83595L24.8237 8.14595C24.0249 7.30866 23.0882 6.61207 22.0538 6.08595C21.1587 5.64286 20.1733 5.40855 19.1728 5.40095C18.2004 5.39097 17.2364 5.57936 16.3406 5.95439C15.4448 6.32943 14.6365 6.88309 13.9659 7.58095C13.2897 8.29461 12.7602 9.13183 12.4068 10.0459C12.0234 11.0349 11.8317 12.0866 11.8417 13.1459C11.8269 14.245 12.0132 15.3377 12.3917 16.3709C12.7293 17.3031 13.2604 18.1548 13.9507 18.8709C14.6286 19.5599 15.4475 20.097 16.3524 20.4459C17.3397 20.8199 18.3883 21.0097 19.4453 21.0059C20.8233 21.0001 22.1736 20.6215 23.3505 19.9109C23.9352 19.5633 24.4742 19.1451 24.9549 18.6659L26.6502 21.4109C26.0912 22.0226 25.4265 22.5306 24.6875 22.9109C23.8146 23.3856 22.8836 23.7469 21.9175 23.9859C20.923 24.2344 19.9007 24.3571 18.8751 24.3509Z" fill="white"/>
<path d="M54.1229 24.0459V7.67591H57.3621V11.0459L56.797 11.4209C57.0332 10.6643 57.4543 9.97726 58.0231 9.42091C58.6486 8.79252 59.3858 8.284 60.1977 7.92091C61.1003 7.51331 62.085 7.31539 63.0766 7.34225C64.0682 7.36912 65.0404 7.62005 65.9193 8.07591C66.7802 8.59159 67.4439 9.37596 67.8063 10.3059C68.2656 11.499 68.4866 12.7692 68.4571 14.0459V24.0459H65.223V14.2859C65.2467 13.4941 65.1183 12.7051 64.8446 11.9609C64.628 11.3919 64.2151 10.9172 63.6791 10.6209C63.0756 10.3259 62.4017 10.2014 61.7315 10.2609C61.141 10.2552 60.5544 10.3569 60.0009 10.5609C59.4958 10.7462 59.0316 11.0263 58.6336 11.3859C58.2509 11.7327 57.9406 12.1506 57.7204 12.6159C57.4996 13.0856 57.3859 13.5977 57.3874 14.1159V24.0459H54.1229Z" fill="white"/>
<path d="M71.4744 10.7909V7.67586H81.9791V10.7909H71.4744ZM74.9053 24.0409V3.50586H78.1445V24.0459L74.9053 24.0409Z" fill="white"/>
<path d="M84.9357 24.0455V7.67547H88.2102V12.8205L87.8923 11.5705C88.1257 10.7782 88.5284 10.0449 89.073 9.42047C89.6095 8.80371 90.2603 8.29453 90.9903 7.92047C91.6823 7.55226 92.4551 7.35824 93.2405 7.35547C93.5791 7.35712 93.9168 7.38891 94.2496 7.45047C94.5125 7.4962 94.7697 7.56996 95.0166 7.67047L94.1689 11.1705C93.8989 11.0604 93.6206 10.9718 93.3364 10.9055C93.0429 10.8314 92.7412 10.7944 92.4383 10.7955C91.8813 10.7944 91.3301 10.9067 90.8187 11.1255C90.3133 11.3357 89.854 11.6414 89.4665 12.0255C89.0788 12.4136 88.7643 12.8674 88.5381 13.3655C88.3083 13.882 88.1914 14.4409 88.1951 15.0055V24.0455H84.9357Z" fill="white"/>
<path d="M99.719 4.04415C99.1391 4.08874 98.5643 3.9096 98.1145 3.54415C97.9194 3.34744 97.7682 3.11221 97.6708 2.85377C97.5735 2.59533 97.5321 2.31948 97.5494 2.04415C97.5369 1.77327 97.5821 1.5028 97.682 1.25038C97.782 0.997956 97.9345 0.769244 98.1297 0.57915C98.343 0.383865 98.5934 0.232485 98.8662 0.133782C99.139 0.0350796 99.4289 -0.00898251 99.719 0.00414967C100.303 -0.0310616 100.878 0.158853 101.323 0.53415C101.517 0.732117 101.667 0.967544 101.764 1.22567C101.861 1.48379 101.904 1.75904 101.889 2.03415C101.9 2.30565 101.854 2.57653 101.754 2.82959C101.654 3.08265 101.503 3.31237 101.308 3.50415C100.871 3.88448 100.3 4.07852 99.719 4.04415ZM98.1448 24.0442V7.67415H101.414V24.0442H98.1448Z" fill="white"/>
<path d="M115.037 24.3501C114.315 24.3474 113.599 24.2327 112.913 24.0101C112.234 23.7924 111.589 23.4829 110.996 23.0901C110.452 22.7358 109.965 22.3045 109.548 21.8101C109.189 21.3991 108.927 20.914 108.781 20.3901L109.598 19.9551V23.9551H106.359V0.955078H109.623V11.4151L109.119 11.1351C109.237 10.6262 109.473 10.1519 109.81 9.75008C110.186 9.28172 110.633 8.87505 111.137 8.54508C111.702 8.18174 112.31 7.88949 112.948 7.67508C113.584 7.45605 114.253 7.3445 114.926 7.34508C116.327 7.3195 117.706 7.70009 118.892 8.44008C120.057 9.18011 121.002 10.216 121.626 11.4401C122.316 12.7973 122.663 14.3006 122.636 15.8201C122.657 17.3438 122.311 18.8507 121.626 20.2151C121.013 21.4529 120.074 22.5033 118.907 23.2551C117.751 23.9842 116.407 24.3647 115.037 24.3501ZM114.502 21.4201C115.416 21.4346 116.313 21.1806 117.08 20.6901C117.844 20.1888 118.463 19.4996 118.877 18.6901C119.328 17.7952 119.555 16.8055 119.538 15.8051C119.552 14.8179 119.331 13.8413 118.892 12.9551C118.498 12.1385 117.883 11.4462 117.116 10.9551C116.533 10.5901 115.878 10.3516 115.195 10.2551C114.513 10.1586 113.817 10.2064 113.154 10.3952C112.491 10.5841 111.876 10.9099 111.349 11.3511C110.823 11.7922 110.396 12.3389 110.098 12.9551C109.648 13.8383 109.422 14.8161 109.437 15.8051C109.419 16.8055 109.646 17.7952 110.098 18.6901C110.511 19.4996 111.13 20.1888 111.894 20.6901C112.671 21.1832 113.579 21.4372 114.502 21.4201Z" fill="white"/>
<path d="M131.96 24.3508C130.881 24.3758 129.817 24.0967 128.892 23.5458C128.013 22.9949 127.313 22.2052 126.874 21.2708C126.379 20.1706 126.137 18.975 126.167 17.7708V7.67578H129.407V16.9008C129.331 18.1162 129.688 19.3193 130.416 20.3008C130.761 20.7168 131.201 21.0462 131.699 21.2625C132.196 21.4788 132.739 21.5759 133.282 21.5458C133.85 21.5517 134.415 21.4516 134.947 21.2508C135.431 21.0608 135.875 20.7807 136.253 20.4258C136.626 20.0617 136.919 19.6262 137.116 19.1458C137.332 18.6327 137.44 18.0816 137.434 17.5258V7.67578H140.673V24.0458H137.434V20.6108L137.999 20.2358C137.742 21.0184 137.309 21.733 136.733 22.3258C136.135 22.9611 135.414 23.4712 134.614 23.8258C133.777 24.1877 132.872 24.3667 131.96 24.3508Z" fill="white"/>
<path d="M143.796 10.7909V7.67586H154.301V10.7909H143.796ZM147.227 24.0409V3.50586H150.472V24.0459L147.227 24.0409Z" fill="white"/>
<path d="M164.826 24.3496C163.254 24.3793 161.701 24.0092 160.315 23.2746C159.036 22.5902 157.97 21.5717 157.232 20.3296C156.47 19.0246 156.082 17.5374 156.112 16.0296C156.102 14.8343 156.315 13.6474 156.743 12.5296C157.138 11.5072 157.731 10.5713 158.489 9.77463C159.241 8.99084 160.152 8.37395 161.163 7.96463C162.236 7.53096 163.385 7.31339 164.543 7.32463C165.565 7.31864 166.576 7.52651 167.51 7.93463C168.424 8.3276 169.248 8.9002 169.932 9.61781C170.617 10.3354 171.147 11.1831 171.491 12.1096C171.859 13.1236 172.03 14.1975 171.996 15.2746L171.965 16.6446H158.504L157.782 14.0446H169.2L168.726 14.5746V13.8446C168.665 13.1779 168.419 12.5409 168.015 12.0046C167.612 11.4618 167.087 11.0208 166.48 10.7176C165.873 10.4143 165.203 10.2574 164.523 10.2596C163.53 10.2293 162.546 10.4496 161.662 10.8996C160.904 11.3279 160.302 11.9823 159.942 12.7696C159.515 13.7258 159.31 14.7646 159.341 15.8096C159.31 16.8559 159.56 17.8916 160.068 18.8096C160.538 19.6464 161.25 20.3253 162.111 20.7596C163.049 21.2286 164.088 21.4637 165.139 21.4446C165.918 21.4508 166.691 21.3135 167.419 21.0396C168.265 20.6838 169.044 20.1866 169.72 19.5696L171.355 21.8446C170.811 22.3704 170.19 22.8121 169.513 23.1546C168.784 23.541 168.014 23.8478 167.217 24.0696C166.436 24.2661 165.632 24.3603 164.826 24.3496Z" fill="white"/>
<path d="M51.1864 18.7345C51.1864 23.4795 46.7969 26.1945 42.0087 26.1945C37.2205 26.1945 33.8502 23.5045 33.8502 18.7345C33.8502 16.4563 34.7634 14.2714 36.389 12.6605C38.0146 11.0495 40.2194 10.1445 42.5183 10.1445C44.8172 10.1445 47.022 11.0495 48.6476 12.6605C50.2732 14.2714 51.1864 16.4563 51.1864 18.7345Z" fill="#FCB614"/>
<path d="M41.3124 24.0459L41.373 24.0059L41.3124 24.0459Z" fill="#0F1212"/>
<path d="M46.923 21.5059L47.029 21.3809L46.923 21.5059Z" fill="#0F1212"/>
<path d="M33.941 21.8145L33.9763 21.8445L33.941 21.8145Z" fill="#0F1212"/>
<path d="M48.3862 20.8945L48.2903 20.9295L48.3862 20.8945Z" fill="#0F1212"/>
<path d="M47.9321 17.1152C47.9445 17.1826 47.976 17.245 48.0229 17.2952L47.9321 17.1152Z" fill="#0F1212"/>
<path d="M47.705 22.1855C47.705 22.2855 47.5486 22.3705 47.589 22.4055C47.6344 22.3355 47.7404 22.2655 47.705 22.1855Z" fill="#0F1212"/>
<path d="M48.4467 17.1741L48.4619 17.1191L48.4316 17.1341L48.4467 17.1741Z" fill="#0F1212"/>
<path d="M37.7301 10.3398L37.72 10.3548L37.7301 10.3398Z" fill="#0F1212"/>
<path d="M38.1338 10.3359L38.0581 10.3759L38.1338 10.3359Z" fill="#0F1212"/>
<path d="M48.0129 17.2949L48.0633 17.3999L48.0129 17.2949Z" fill="#0F1212"/>
<path d="M34.8441 24.5752C34.8117 24.5604 34.7764 24.5527 34.7407 24.5527C34.705 24.5527 34.6697 24.5604 34.6373 24.5752C34.7039 24.6002 34.7775 24.6002 34.8441 24.5752Z" fill="#0F1212"/>
<path d="M37.9067 25.6495V25.6445L37.9017 25.6495H37.9067Z" fill="#0F1212"/>
<path d="M37.1549 25.5448L37.1045 25.5098L37.1549 25.5448Z" fill="#0F1212"/>
<path d="M30.1065 16.3798C30.0989 17.2061 30.1545 18.0318 30.273 18.8498C30.399 19.0316 30.485 19.2378 30.5252 19.4548L30.3739 19.5098L30.4697 19.6948C30.4395 19.7848 30.4041 19.5498 30.3789 19.6948L30.495 19.7448C30.4395 19.7748 30.5807 20.2448 30.389 19.9598C30.445 20.2196 30.5244 20.474 30.6261 20.7198C30.6816 20.8848 30.7825 20.7698 30.8128 20.9648H30.7119C30.833 21.5598 31.2669 21.4648 31.4586 21.9648L31.4284 21.9198C31.5141 21.9798 31.605 22.1298 31.6251 22.1198C31.7261 21.9748 31.499 22.0798 31.4889 21.8948C31.6151 21.8398 31.6605 22.0298 31.7462 21.9648C31.7462 22.0948 31.8774 22.1148 31.938 22.1998C31.938 22.4048 32.1801 22.5698 32.1801 22.7448C32.271 22.7898 32.4375 22.7848 32.5636 22.9248C32.5636 23.0998 32.4627 22.9748 32.5636 23.1348L32.6443 23.0998C32.7402 23.2198 32.7099 23.2148 32.6796 23.2398C32.7957 23.3598 32.8512 23.2398 32.9672 23.4398H32.831C32.9463 23.5241 33.0527 23.6196 33.1489 23.7248C33.1186 23.7548 33.048 23.7248 33.0127 23.6448C33.0127 23.8148 33.1993 23.7348 33.2397 23.7848C33.2397 23.7498 33.1438 23.6448 33.2397 23.6298C33.3154 23.7098 33.4819 23.6848 33.4819 23.8048H33.3457C33.5525 23.8898 33.497 23.8048 33.6736 23.9748L33.6383 24.0048C33.8199 24.0048 33.941 24.1998 34.1428 24.3348H34.3093C34.2236 24.2298 34.269 24.2248 34.3093 24.1548C34.3901 24.3548 34.602 24.1798 34.8139 24.3598C34.8054 24.3686 34.7952 24.3755 34.784 24.3803C34.7727 24.3851 34.7606 24.3875 34.7483 24.3875C34.736 24.3875 34.7239 24.3851 34.7126 24.3803C34.7014 24.3755 34.6912 24.3686 34.6827 24.3598C34.5313 24.4348 34.4658 24.5198 34.2841 24.4848C34.3951 24.5148 34.5112 24.5648 34.4607 24.5998L34.5112 24.5048C34.5615 24.5285 34.6104 24.5552 34.6575 24.5848C34.718 24.5248 34.602 24.4098 34.7584 24.4348C34.9148 24.4598 34.7584 24.5848 34.829 24.5498C35.0611 24.6048 34.9753 24.4698 35.157 24.6048H35.0712C35.1873 24.7298 35.4294 24.7548 35.4193 24.8998L35.3083 24.9298C35.1015 24.9648 35.4597 24.9298 35.3538 25.0598C35.3538 24.9798 35.5758 25.0598 35.6666 25.1298V25.0348C36.0753 24.8998 35.5858 25.1948 35.9138 25.2848C36.1358 25.2848 35.8432 25.2348 35.9895 25.2148C36.1358 25.1948 36.1509 25.3648 36.3629 25.3848C36.4083 25.4348 36.5142 25.5148 36.494 25.6148C36.6303 25.6148 36.8674 25.7648 36.9633 25.6748C36.7665 25.5548 36.7211 25.7348 36.5041 25.5348L36.6 25.4598C36.7665 25.5198 36.9986 25.5098 37.1045 25.5698V25.5048C37.3568 25.5048 37.4426 25.4298 37.6747 25.5048C37.6747 25.5998 37.5536 25.5598 37.4527 25.5498C37.594 25.6448 37.6091 25.5948 37.8462 25.6498C37.8462 25.7248 37.6848 25.6498 37.6444 25.6948H37.9169C37.9724 25.5648 38.1187 25.7298 38.2852 25.6948C38.6737 25.7398 38.7443 25.5498 38.9562 25.4548L38.9865 25.5448C38.8957 25.4848 38.9108 25.5448 38.8755 25.5448C39.0067 25.5448 39.153 25.6848 39.0773 25.7348C39.2892 25.7048 39.0067 25.6648 39.1328 25.6248H39.4154C39.3851 25.5548 39.2842 25.5348 39.4154 25.4898C39.5466 25.4448 39.597 25.4898 39.7534 25.4898C39.7534 25.5248 39.8039 25.5898 39.6878 25.5898C39.7635 25.5898 39.8846 25.5898 39.93 25.5448C39.7534 25.4898 40.2126 25.4748 40.0763 25.3748L40.2529 25.4298C40.2126 25.4298 40.2126 25.4748 40.152 25.4648C40.2075 25.5648 40.2933 25.4298 40.3488 25.4198C40.4043 25.4098 40.5708 25.4198 40.5859 25.4698H40.8079C40.8836 25.4398 40.8079 25.3998 40.8079 25.3648H41.0804V25.5998C41.1813 25.5348 41.0804 25.4298 41.257 25.4148C41.1813 25.5398 41.479 25.4748 41.368 25.6248C41.5362 25.6703 41.7152 25.6543 41.8725 25.5798C41.9432 25.4798 41.706 25.5798 41.701 25.4698C42.0945 25.3598 42.0693 25.1298 42.3619 25.0948H42.2812C42.4477 24.9998 42.4326 25.0148 42.5133 24.9148C42.5133 25.0348 42.7908 25.1548 43.0834 25.0548C43.0834 24.9948 42.8867 24.9948 42.9119 24.8948C42.9784 24.8848 43.0421 24.861 43.0986 24.8248V24.8748C43.255 24.7798 43.4619 24.9048 43.4669 24.7648L43.699 24.8598L43.6031 24.8148C43.6031 24.7548 43.7949 24.6748 43.8251 24.6398C43.8755 24.5926 43.937 24.5588 44.004 24.5413C44.071 24.5238 44.1413 24.5233 44.2086 24.5398C44.1581 24.5398 44.037 24.4548 44.1783 24.3698C44.2489 24.5398 44.5164 24.2948 44.5517 24.3698C44.6072 24.3398 44.7434 24.3698 44.7131 24.2748L44.7535 24.3798C44.698 24.2348 44.9099 24.1248 45.0562 24.0098C45.1269 24.2198 45.2278 23.8998 45.3993 24.0098C45.3539 23.8748 45.6516 23.7948 45.6062 23.6648C45.7222 23.5798 45.7828 23.6998 45.8383 23.7198V23.6398C46.0152 23.602 46.1853 23.5379 46.3428 23.4498L46.3781 23.2548H46.4589C46.4589 23.2148 46.5396 23.1198 46.4589 23.1298H46.5547C46.469 23.0198 46.6153 23.0298 46.701 22.8848L46.7465 22.9448C46.807 22.8948 46.8272 22.9698 46.8928 22.9748C46.8322 22.9748 46.9281 22.5948 46.7313 22.6948C46.6859 22.6648 46.7313 22.5498 46.812 22.5098L46.9331 22.5698L46.9231 22.4248C46.9937 22.3248 47.0845 22.3448 47.1652 22.2848C47.1047 22.3598 47.1652 22.6148 47.3671 22.4198C47.3146 22.5064 47.2771 22.601 47.2561 22.6998C47.2964 22.6648 47.3267 22.6498 47.3015 22.7498C47.4226 22.5748 47.3015 22.6498 47.4326 22.4898C47.5033 22.5698 47.579 22.5548 47.7303 22.4448L47.5739 22.4898V22.4498H47.4276C47.4629 22.4198 47.4881 22.1848 47.5588 22.1948C47.2964 22.2448 47.6698 21.8298 47.5083 21.8648L47.6294 21.7348C47.5941 21.9198 47.8111 21.7348 47.8615 21.7798C47.8615 21.7098 47.7101 21.8348 47.7253 21.7448C47.7845 21.6804 47.8618 21.6351 47.9473 21.6148V21.6598L48.0785 21.5598C48.0431 21.5048 47.917 21.6348 47.9675 21.4948L48.0936 21.3648C48.1239 21.4648 48.2399 21.4798 48.1895 21.5948C48.2349 21.4998 48.4014 21.2098 48.2399 21.2698L48.3055 21.1648C48.2248 21.2098 48.0381 21.3448 48.1542 21.1298V20.9398L48.2399 20.9048V20.8048H48.3509C48.4266 20.6348 48.3509 20.6248 48.3509 20.5898C48.3509 20.5548 48.4216 20.4698 48.4619 20.5398C48.5376 20.4198 48.6234 20.1898 48.7192 20.1248C48.7192 19.9298 48.6839 20.1548 48.6486 20.0198C48.8757 19.9348 48.9211 19.4548 48.9564 19.1548C48.7747 19.1948 48.9564 19.0648 48.805 18.9798C48.8504 19.0548 48.9917 18.7248 48.9917 18.9798V18.8148C49.1077 18.7248 48.9917 19.0948 49.1733 18.9548C49.2036 18.7698 49.0371 18.6198 49.138 18.4148C49.2541 18.5048 49.138 18.2448 49.2389 18.3148C49.3398 18.3848 49.2389 18.4248 49.2389 18.4848L49.2692 18.4498C49.3449 18.0498 49.138 18.3198 49.0674 18.0998C48.9967 17.8798 49.1784 17.9148 49.2339 17.9048C49.2894 17.8948 49.2339 17.7448 49.2339 17.6748C49.2995 17.8298 49.138 17.9498 49.0623 17.8748C49.2137 17.7748 49.0977 17.5148 49.0623 17.4548C48.8908 17.7898 49.0623 17.6948 48.8605 17.9998C48.9059 18.0448 49.0321 18.0498 48.9665 18.2348C48.911 18.1098 48.8958 18.2348 48.8757 18.2698C48.9513 18.2398 48.8757 18.4048 48.911 18.4648C48.8403 18.5098 48.7647 18.3348 48.6991 18.5148L48.8605 18.5748C48.8252 18.6448 48.7445 18.5248 48.7546 18.6898C48.6839 18.5898 48.6183 18.6898 48.6284 18.4798C48.4367 18.7048 48.6284 18.8698 48.6587 19.0848V19.0448C48.6839 19.1057 48.6839 19.1739 48.6587 19.2348C48.583 19.3498 48.6133 19.1148 48.5527 19.1348C48.4922 19.1548 48.5174 19.2698 48.5023 19.3398C48.5023 19.3998 48.5023 19.4548 48.4619 19.4598C48.4296 19.4034 48.3925 19.3499 48.3509 19.2998L48.3963 19.5398C48.3509 19.4998 48.25 19.6798 48.2601 19.5398L48.1895 19.8498H48.0734C48.0734 19.9248 48.0734 19.9348 48.1289 19.8498C48.0734 19.9398 48.1289 20.3498 47.9372 20.2248C47.9153 20.4413 47.852 20.6518 47.7505 20.8448C47.7505 20.5998 47.4932 21.0048 47.579 20.7748C47.4629 20.8698 47.579 20.9548 47.5134 21.0648C47.4478 21.1748 47.3469 21.0248 47.3671 20.9098V21.0498V21.1848C47.246 21.2448 47.2561 21.1398 47.1652 21.2298L47.2359 21.3098L47.135 21.3398C47.1905 21.3398 47.135 21.4148 47.135 21.4898L47.0845 21.5898C47.0845 21.4648 47.0038 21.6548 46.9786 21.5898C46.922 21.6582 46.8697 21.73 46.8221 21.8048H46.9231C46.8121 22.0048 46.8423 21.7398 46.7111 21.8648L46.7767 21.9098C46.4992 21.9998 46.5295 22.2898 46.3226 22.3498C46.3933 22.2648 46.3226 22.2148 46.3226 22.2348C46.166 22.3681 46.0315 22.525 45.924 22.6998C45.8746 22.6726 45.8191 22.6584 45.7626 22.6584C45.7061 22.6584 45.6505 22.6726 45.6011 22.6998C45.5002 22.7748 45.4952 22.7948 45.4952 22.8698C45.369 22.9048 45.2177 23.0898 45.1672 23.0198C45.1672 23.0948 45.0714 23.0748 45.036 23.1498H45.0058L45.0562 23.2098C44.7787 23.1648 44.7787 23.4798 44.5113 23.4498V23.4098L44.4457 23.4848V23.3798C44.3196 23.4448 44.1834 23.4898 44.0522 23.5448H44.1531C44.0724 23.5898 44.0471 23.6848 43.9361 23.6798C44.0421 23.4998 43.7999 23.7348 43.7394 23.6798L43.81 23.6148C43.699 23.6698 43.699 23.6698 43.7394 23.7398C43.5981 23.8298 43.5779 23.6398 43.4669 23.7698L43.5729 23.7398C43.6183 23.7698 43.5729 23.8598 43.4972 23.8798L43.4669 23.8298C43.3559 23.8998 43.1591 23.9248 43.1137 23.9748C43.0683 24.0248 43.0431 23.9148 43.0733 23.8798C42.8362 24.0348 42.9523 23.9098 42.705 24.0448V24.0048L42.6293 24.0848L42.4578 24.0048L42.5234 24.0498C42.4482 24.0897 42.366 24.1152 42.2812 24.1248V24.0498C42.039 24.1548 41.9684 24.0048 41.7767 24.1448L41.7111 24.0298C41.5092 24.1748 41.5244 23.9448 41.3226 24.1098V24.0448L41.2267 24.1048V24.0148L41.1662 24.1548L41.0905 24.0698L41.0552 24.1198C40.924 23.9598 40.7877 24.1198 40.6263 23.9898L40.6616 24.0998C40.5712 24.1591 40.4682 24.1972 40.3607 24.211C40.2531 24.2249 40.1438 24.2142 40.041 24.1798C39.8152 24.1237 39.5814 24.1068 39.3498 24.1298V24.0548L39.1631 24.1548C39.0672 24.0798 39.2236 24.0798 39.1934 24.0298C38.9966 24.0748 39.1076 24.1648 38.8755 24.1798C38.7595 24.1148 38.9209 24.1148 38.9764 24.0848C38.75 24.1448 38.5116 24.1448 38.2852 24.0848V24.1198C38.1149 24.1252 37.9448 24.1049 37.7806 24.0598L37.8664 24.0198L37.6898 24.0048L37.7605 23.9398C37.6444 23.8998 37.4022 23.9398 37.3972 23.8348C37.3972 23.8698 37.3972 23.9348 37.2811 23.9098C37.2811 23.7748 36.9986 23.9098 36.8573 23.7798H36.9683C36.8977 23.7248 36.8119 23.7798 36.7261 23.7798L36.7665 23.7348C36.634 23.7416 36.5013 23.7281 36.3729 23.6948C36.3729 23.5398 36.0299 23.5798 36.0904 23.4998C35.9693 23.4448 36.1762 23.5948 36.0097 23.5498C36.0097 23.4798 35.8533 23.5198 35.8936 23.4398L35.7826 23.3998L35.8886 23.3498C35.8456 23.3372 35.7996 23.3381 35.7572 23.3524C35.7147 23.3668 35.6778 23.3938 35.6514 23.4298C35.5859 23.3398 35.4446 23.3148 35.4395 23.2248H35.4849C35.2125 23.1398 35.2226 22.7998 34.9804 22.8198H35.0157L34.8795 22.7298L34.9501 22.6948C34.8558 22.6791 34.763 22.6557 34.6726 22.6248L34.7029 22.5898C34.5868 22.4598 34.3346 22.3298 34.1983 22.1698H34.2387C34.0167 22.0448 34.1025 21.9748 33.936 21.8848L33.83 21.7648H33.8855C33.7342 21.7348 33.7745 21.4248 33.7543 21.5348C33.6787 21.5348 33.5626 21.4548 33.5071 21.4698C33.3961 21.3348 33.5071 21.3998 33.5071 21.2898C33.5071 21.1798 33.3709 21.2048 33.3103 21.0398H33.3507C33.3053 20.9748 33.2447 20.9548 33.1842 20.8598H33.2195C33.053 20.7348 33.2195 20.5948 32.9975 20.5548C32.9975 20.4698 32.9067 20.3498 32.9975 20.3198C32.8769 20.1406 32.7658 19.9554 32.6645 19.7648C32.7907 19.6848 32.6342 19.7198 32.6645 19.5598L32.5888 19.5898C32.5577 19.425 32.5442 19.2574 32.5485 19.0898C32.5788 18.9077 32.5788 18.7219 32.5485 18.5398H32.6292L32.5283 18.4798C32.52 18.0744 32.5335 17.6688 32.5687 17.2648C32.4964 17.1352 32.4648 16.9873 32.4778 16.8398C32.459 16.5405 32.4966 16.2404 32.5888 15.9548L32.6595 15.9948C32.5888 15.9048 32.6998 15.8198 32.72 15.7548L32.6393 15.8148C32.5888 15.7148 32.6948 15.6098 32.7604 15.5798L32.7099 15.4248H32.7503L32.715 15.3848L32.8361 15.3498C32.8361 15.3098 32.8663 15.1298 32.7907 15.0398C32.831 15.0398 32.9017 14.9298 32.8865 15.0398C32.9468 14.882 33.0176 14.7283 33.0984 14.5798L33.0278 14.6348C32.9521 14.6348 32.9723 14.4548 33.0278 14.3948C33.0278 14.5198 33.1287 14.4498 33.1993 14.4398C33.27 14.4298 33.1085 14.4398 33.0833 14.4098C33.078 14.2993 33.1139 14.1907 33.1842 14.1048V14.0598C33.1842 13.9398 33.3507 13.9498 33.4112 13.8548C33.4718 13.7598 33.5021 13.6948 33.3709 13.6448C33.4264 13.4998 33.4819 13.6448 33.5172 13.6098C33.5525 13.5748 33.6484 13.3548 33.719 13.3698C33.5929 13.1848 34.0218 13.0898 33.9007 12.9648L34.052 12.9198C34.022 12.8959 34.0005 12.8631 33.9905 12.8263C33.9806 12.7894 33.9827 12.7504 33.9965 12.7148C34.0924 12.6698 34.1378 12.7148 34.1933 12.7448L34.1075 12.5898C34.6121 12.2998 35.0359 11.6998 35.6212 11.4848C35.8244 11.2559 36.0628 11.0601 36.3275 10.9048V10.9398C36.4234 10.8998 36.5294 10.8798 36.6252 10.8448L36.3881 10.8698C36.4288 10.821 36.4784 10.7803 36.5344 10.7498C36.7059 10.7098 36.8977 10.6498 37.0944 10.5848C37.3023 10.5371 37.5014 10.4578 37.6848 10.3498C37.8916 10.0848 37.9068 10.4648 38.1187 10.2648L38.0884 10.3398L38.7595 10.0048C38.7595 10.1998 38.9411 9.97479 38.931 10.0798V9.99479C38.9966 10.0348 39.148 10.0298 39.1328 10.0898L39.2438 9.97479V10.0548C39.4053 10.0548 39.7484 9.96979 39.8493 10.1248C40.353 10.0311 40.8721 10.0585 41.3629 10.2048C41.4487 10.1448 41.595 10.1798 41.706 10.2048L41.8069 10.3248C41.923 10.3248 42.0794 10.2448 42.1702 10.3248C42.2913 10.3248 42.3821 10.4298 42.5183 10.3848C42.6394 10.4348 42.7403 10.5248 42.6697 10.5948C42.7454 10.4498 42.927 10.7048 42.9169 10.7148L43.1743 10.8548C43.4054 10.9679 43.6265 11.1 43.8352 11.2498C44.5161 11.6965 45.128 12.2388 45.6516 12.8598C46.2367 13.5662 46.716 14.3527 47.0744 15.1948C47.4024 15.9798 47.6395 16.6948 47.8565 17.1148C47.9372 17.1698 47.9977 17.3298 48.0886 17.2648C48.1239 17.3898 47.9876 17.4498 48.0886 17.4748C48.134 17.2998 48.2954 17.5298 48.3862 17.3548V17.4648C48.4417 17.4648 48.3156 17.3148 48.4165 17.3398L48.2702 17.3148C48.272 17.2809 48.281 17.2478 48.2967 17.2176C48.3123 17.1875 48.3343 17.1609 48.361 17.1398C48.3005 17.0548 48.0986 17.0148 48.1743 16.8098V16.8648C48.1743 16.6998 48.2601 16.7548 48.2853 16.7198V16.7548L48.3509 16.6098C48.3055 16.7198 48.4367 16.8848 48.4216 16.7948C48.4518 16.5898 48.3913 16.8498 48.3661 16.6998C48.3408 16.5498 48.4317 16.6298 48.4771 16.6298L48.4367 16.4398C48.5073 16.4398 48.4367 16.5548 48.5124 16.4748L48.4064 16.2748C48.5729 16.2098 48.2904 16.0598 48.4367 15.9398C48.4972 16.0848 48.4922 15.9398 48.5477 15.9398C48.531 15.8145 48.504 15.6907 48.467 15.5698L48.5225 15.5998C48.5225 15.5198 48.4518 15.4948 48.4417 15.4548C48.4317 15.4148 48.3661 15.1798 48.4821 15.1598C48.4821 14.8898 48.3156 15.0948 48.3106 14.8448C48.3711 14.7898 48.3812 15.0248 48.4216 14.8998C48.3914 14.8209 48.356 14.7441 48.3156 14.6698C48.3319 14.667 48.3486 14.6675 48.3647 14.6713C48.3808 14.6751 48.3959 14.6821 48.4092 14.692C48.4224 14.7018 48.4335 14.7143 48.4417 14.7285C48.4499 14.7427 48.4551 14.7585 48.4569 14.7748C48.4064 14.4724 48.3811 14.1663 48.3812 13.8598C48.391 13.5767 48.3267 13.2959 48.1945 13.0448C48.1945 12.9248 48.2803 13.0748 48.3509 13.1098C48.023 12.7498 48.1642 12.4348 47.9271 12.1098L47.8666 12.1398C47.7767 11.8387 47.6275 11.5583 47.4276 11.3148C47.2056 11.0698 46.9836 10.8148 46.7616 10.5548V10.6448C46.6404 10.6166 46.5246 10.5693 46.4185 10.5048C46.4185 10.4698 46.5749 10.4498 46.4185 10.3448V10.4698C46.136 9.93479 45.1117 9.24979 44.2843 8.77979C43.09 8.20034 41.792 7.86049 40.4648 7.77979C40.6616 7.77979 40.5657 7.94479 40.4245 7.89979C40.0309 7.58479 39.7383 7.93979 39.3246 7.76479C38.6031 7.89979 37.8916 7.76479 37.2761 8.18479L37.2408 8.10979C37.1298 8.10979 37.1146 8.15979 37.0188 8.20479V8.16479C36.7665 8.22479 36.5142 8.40479 36.3477 8.41979V8.50479C36.2115 8.56479 36.2468 8.45979 36.1257 8.56979V8.50479L35.9945 8.65979C35.9441 8.50979 35.606 8.82979 35.49 8.81979C35.264 9.00382 35.0245 9.17094 34.7735 9.31979C34.6777 9.27479 34.3749 9.47979 34.1681 9.58979C33.8048 9.86479 33.3305 10.3148 32.9067 10.7048L32.9925 10.7698L32.8916 10.8848L32.8613 10.8498C32.6998 10.8498 32.6544 11.1248 32.5232 11.1698C32.6443 11.1698 32.604 11.0998 32.6645 11.0398C32.7251 10.9798 32.7755 11.1348 32.6292 11.2198L32.5939 11.3348C32.5232 11.2948 32.4274 11.3348 32.3618 11.3098C32.0742 11.7248 31.9682 12.0548 31.6857 12.4748C31.6352 12.3848 31.5141 12.7948 31.4334 12.6348C31.3275 12.9248 31.5696 12.6348 31.5949 12.8248C31.5444 12.8948 31.5444 12.9948 31.4839 12.9798C31.4233 12.9648 31.3729 12.9798 31.388 12.9298L31.3123 13.1148V13.0548C31.2114 13.4648 30.8885 13.6748 30.8532 14.0548L30.9591 13.9698C30.9591 14.3548 30.7523 14.2448 30.7069 14.5998L30.6564 14.5098C30.6564 14.6298 30.727 14.6998 30.616 14.8598C30.5202 14.8598 30.5858 14.6848 30.5706 14.5848C30.5303 14.7098 30.4697 15.0298 30.5706 14.9598C30.5706 15.1148 30.4697 15.1448 30.4243 15.2198C30.3789 15.2948 30.5202 15.0948 30.5404 15.2198C30.4235 15.4677 30.3485 15.7328 30.3184 16.0048H30.273C30.3234 16.1448 30.1216 16.0948 30.1065 16.3798Z" fill="white"/>
<path d="M38.0026 25.6754L37.9067 25.6504L37.8462 25.7104L38.0026 25.6754Z" fill="#0F1212"/>
<path d="M32.6292 23.3102C32.7048 23.3552 32.6695 23.3102 32.6292 23.2402V23.3102Z" fill="#0F1212"/>
<path d="M46.7616 22.9609L46.7061 23.0459L46.7616 22.9609Z" fill="#0F1212"/>
<path d="M46.6556 23.0859L46.5698 23.1459L46.5799 23.1609L46.6556 23.0859Z" fill="#0F1212"/>
<path d="M47.2509 22.6992L47.15 22.7842L47.2509 22.6992Z" fill="#0F1212"/>
<path d="M43.144 24.8906C43.0733 24.9556 43.1137 24.9256 43.144 24.8906V24.8906Z" fill="#0F1212"/>
<path d="M46.4084 23.4941L46.3983 23.4991L46.3882 23.5341L46.4084 23.4941Z" fill="#0F1212"/>
<path d="M47.584 22.4004L47.5638 22.4504L47.6092 22.4154L47.584 22.4004Z" fill="#0F1212"/>
<path d="M43.9513 17.8093C44.5643 17.8093 45.0613 17.2429 45.0613 16.5443C45.0613 15.8457 44.5643 15.2793 43.9513 15.2793C43.3382 15.2793 42.8412 15.8457 42.8412 16.5443C42.8412 17.2429 43.3382 17.8093 43.9513 17.8093Z" fill="white"/>
<path d="M36.1055 17.8093C36.7185 17.8093 37.2155 17.2429 37.2155 16.5443C37.2155 15.8457 36.7185 15.2793 36.1055 15.2793C35.4924 15.2793 34.9955 15.8457 34.9955 16.5443C34.9955 17.2429 35.4924 17.8093 36.1055 17.8093Z" fill="white"/>
<path d="M39.6878 4.52563L39.6827 4.53063L39.6777 4.51562L39.6878 4.52563Z" fill="#0F1212"/>
<path d="M40.157 8.8557L40.152 8.8457L40.1621 8.8507L40.157 8.8557Z" fill="#0F1212"/>
<path d="M39.4254 6.58016C39.4254 6.52016 39.4658 6.43516 39.4254 6.38016L39.4759 6.32516H39.3548V6.26516H39.3851L39.4607 6.16516H39.5263V6.14016L39.486 6.09516L39.5566 6.00516H39.491V5.97516H39.4607V5.94016H39.486V5.91016V5.86516H39.5717V5.81516L39.4607 5.85516H39.5717L39.602 5.82516L39.5516 5.80016H39.491H39.5263C39.6222 5.75516 39.4557 5.80016 39.4658 5.80016H39.4961V5.77016H39.4254H39.4607V5.73016H39.491L39.5213 5.68016V5.65016V5.62016L39.6172 5.54516V5.51516H39.5566L39.6121 5.49016H39.5263L39.5818 5.46016H39.5062V5.42516H39.5566L39.6323 5.35016L39.6727 5.31516H39.5617L39.491 5.12016H39.4406L39.4708 5.09016L39.4406 5.00516H39.5011C39.4355 5.00516 39.4708 4.98016 39.4355 5.00516H39.3952C39.4507 5.00516 39.4456 4.97016 39.4507 4.95016H39.38L39.4406 4.90516H39.3548L39.2993 4.87516H39.3397H39.375L39.4052 4.84516H39.3548L39.4708 4.80516H39.3548L39.3195 4.83516L39.3548 4.76016V4.73016C39.4254 4.73016 39.3952 4.69016 39.4406 4.69016H39.4052L39.3397 4.72016L39.3548 4.68516L39.3195 4.65516H39.3548C39.2791 4.65516 39.3144 4.61516 39.3144 4.59016C39.3144 4.56516 39.3144 4.59016 39.3699 4.55516H39.3043L39.2337 4.58516L39.2539 4.50516H39.2186L39.2892 4.45016V4.41016C39.3497 4.41016 39.2892 4.41016 39.3598 4.41016L39.3245 4.44516H39.3548V4.50516H39.4052L39.4557 4.47016C39.5162 4.47016 39.4557 4.51016 39.4254 4.53516H39.4658L39.5162 4.50516H39.486H39.5364V4.55516H39.5768C39.5768 4.55516 39.5213 4.62016 39.5768 4.59016V4.65516H39.6424V4.69016H39.713H39.7786V4.74516H39.8089V4.81516H39.8896V4.84516H39.9199C39.9905 4.84516 39.8947 4.89016 39.9552 4.89516H39.9956V4.93516V4.96016V5.00516H40.0359V5.05016V5.10016V5.14016C40.1066 5.14016 40.0359 5.14016 40.1116 5.16516H40.0662C39.9855 5.21516 40.1318 5.23516 40.1015 5.29016H40.1419L40.0914 5.33016H40.1268V5.40016V5.45016V5.50516H40.0965V5.53016V5.57516L40.1318 5.60516H40.1015H40.1419L40.1873 5.67016L40.152 5.70516V5.78016V5.82516L40.0965 5.85516H40.1368V5.89516V6.00516C40.1066 6.00516 40.1923 6.00516 40.1368 6.05016H40.1772L40.1419 6.12516L40.2176 6.23016L40.263 6.35516L40.2277 6.40516V6.55516H40.2579V6.58516L40.2024 6.62016H40.2327V6.67516L40.1974 6.70516V6.74016H40.2378L40.1873 6.76516H40.2277V6.79516C40.157 6.79516 40.263 6.83516 40.1974 6.84516C40.2731 6.90016 40.2327 6.98016 40.2933 7.03516V7.13516V7.16516H40.263L40.2983 7.29016C40.2327 7.32516 40.3639 7.29016 40.2983 7.33516L40.2277 7.41516H40.2731C40.2731 7.41516 40.2731 7.47016 40.3185 7.47516V7.67516H40.3639L40.3336 7.71016V7.75016H40.3891C40.3891 7.75016 40.5657 8.46016 40.2478 8.64516H40.0612L40.1268 8.61016H40.041C39.9754 8.61016 40.0713 8.61016 40.0107 8.58016H39.9703V8.54516H39.93V8.50516H39.8593C39.824 8.44516 39.6878 8.42016 39.7181 8.36516H39.6777L39.6121 8.28016C39.5314 8.23516 39.5768 8.18016 39.5415 8.12516L39.5818 8.10016C39.5162 8.06016 39.5263 7.96016 39.491 7.89016C39.4557 7.82016 39.491 7.68516 39.4557 7.58016H39.5011C39.3952 7.58016 39.5011 7.52516 39.4406 7.50016C39.4708 7.44016 39.375 7.39516 39.4406 7.33516H39.4103V7.37516H39.4759C39.4153 7.37516 39.4759 7.34016 39.4406 7.33516V7.26516L39.3952 7.22016V7.10516H39.4305V7.07016H39.491L39.5213 6.96016C39.491 6.96016 39.5213 6.93016 39.4708 6.96016H39.5162V6.87516V6.82516H39.486V6.79516L39.4406 6.82016L39.4759 6.78516V6.61016L39.4254 6.58016Z" fill="white"/>
<path d="M39.4456 5.5L39.4506 5.51L39.4254 5.515L39.4456 5.5Z" fill="#0F1212"/>
<path d="M39.38 4.73438L39.3901 4.73937H39.38V4.73438Z" fill="#0F1212"/>
<path d="M39.3346 4.7793L39.3396 4.7843H39.3295L39.3346 4.7793Z" fill="#0F1212"/>
<path d="M39.2993 4.66016L39.2942 4.66516L39.2892 4.66016H39.2993Z" fill="#0F1212"/>
<path d="M39.7181 4.04517C40.298 3.30856 41.1281 2.80573 42.0541 2.63017C43.482 2.43517 44.7131 2.86517 44.7131 3.33517C44.7131 3.80517 44.1177 5.04517 41.045 5.04517C39.3548 5.04517 39.7181 4.04517 39.7181 4.04517Z" fill="#66EF5B"/>
<path d="M40.5606 3.44055V3.43555L40.5253 3.45555L40.5606 3.44055Z" fill="#0F1212"/>
<path d="M40.3286 3.13094L40.3639 3.08594L40.3286 3.13094Z" fill="#0F1212"/>
<path d="M39.7836 4.15039L39.7736 4.16039L39.7836 4.15539V4.15039Z" fill="#0F1212"/>
<path d="M42.6898 4.4757H42.6949V4.4707L42.6898 4.4757Z" fill="#0F1212"/>
<path d="M45.0814 3.89516C45.1261 3.7694 45.1532 3.63819 45.1621 3.50516C45.1716 3.34697 45.1475 3.18857 45.0915 3.04016C45.0245 2.99071 44.962 2.9355 44.9048 2.87516L44.9502 2.83016L44.9048 2.78516C44.9048 2.78516 44.7736 2.65516 44.9048 2.70016C44.846 2.64917 44.7836 2.60238 44.7181 2.56016H44.6576C44.5466 2.45016 44.4557 2.56016 44.3498 2.51016H44.2993C44.2993 2.57016 44.3296 2.51016 44.3548 2.51016L44.2892 2.55516H44.2186L44.0773 2.50516L43.9764 2.54516V2.47016H43.8352V2.50516H43.5879L43.5425 2.53516V2.60516C43.5072 2.55016 43.4769 2.65016 43.4164 2.60516H43.4517L43.5324 2.50516H43.487V2.55016H43.4517V2.58516H43.3912C43.3558 2.58516 43.3054 2.58516 43.3003 2.53016V2.50516H43.2297C43.149 2.60016 43.2297 2.44016 43.1641 2.44516V2.50516L43.0783 2.48016L43.038 2.41016V2.44516H42.8866L42.7857 2.50516L42.8311 2.47516H42.7403L42.7806 2.44516H42.6394C42.5536 2.44516 42.5435 2.52016 42.4981 2.56016V2.50516L42.4476 2.44016V2.50516H42.3821V2.56016H42.3316V2.50516H42.2761V2.57016H42.0844V2.61016H42.0238V2.50516L41.9885 2.57516L41.9532 2.50516H41.8321L41.8775 2.54516C41.7867 2.58516 41.8069 2.67516 41.7362 2.67516L41.6908 2.73516C41.6878 2.72235 41.6824 2.71025 41.6747 2.69954C41.667 2.68884 41.6572 2.67975 41.646 2.67278C41.6347 2.66582 41.6222 2.66112 41.6091 2.65895C41.596 2.65678 41.5827 2.65719 41.5697 2.66016L41.6202 2.72016H41.494L41.4335 2.67516L41.373 2.75516H41.272V2.81516C41.272 2.75516 41.1913 2.81516 41.1812 2.81516H41.1409V2.80016L41.0803 2.90016C41.0803 2.82516 41.045 2.93016 40.9945 2.90016L40.9542 3.00516L40.8684 2.95516V3.00516H40.7675V3.06516V3.10516L40.7372 3.16516H40.6969L40.7473 3.27016V3.32016L40.712 3.28516V3.34016H40.6464L40.5859 3.27516L40.4496 3.09516L40.4194 3.16016L40.3235 3.09516H40.3941L40.3639 3.10016C40.4395 3.10016 40.3336 3.19016 40.3639 3.20516H40.3285L40.263 3.15516L40.3033 3.18516H40.2024L40.2327 3.22016H40.1923L40.2327 3.25516V3.30516V3.33016H40.1974V3.38516H40.162L39.9955 3.50516V3.55516C39.9148 3.52516 39.8744 3.63016 39.8341 3.68516C39.8946 3.71516 39.8341 3.68516 39.8341 3.75016L39.7836 3.71016V3.74016C39.7382 3.74016 39.7836 3.68016 39.7433 3.67516L39.7029 3.79016H39.6575V3.74516C39.5869 3.80516 39.6827 3.80016 39.6575 3.85516H39.5869V3.90016H39.6575L39.6121 4.00516C39.7029 3.97016 39.6474 3.96016 39.7382 3.94016V3.84516H39.7735V3.79516L39.8391 3.83016L39.7988 3.78516H39.8593V3.85516C39.935 3.85516 39.8946 3.77516 39.9098 3.72516L39.94 3.69016L39.9804 3.72516L40.0258 3.66516L40.0611 3.69016C40.0611 3.69016 40.0914 3.56016 40.1368 3.63016C40.1368 3.56516 40.1822 3.56016 40.2226 3.50016C40.2226 3.56516 40.2983 3.50016 40.268 3.55016L40.2983 3.48016L40.3336 3.54516V3.50516V3.47016H40.3639V3.43516H40.495V3.39516H40.5253L40.5707 3.35016H40.6313C40.712 3.35016 40.6969 3.27016 40.7524 3.27016V3.30516L40.8684 3.20016L40.9592 3.23516V3.18516H41.045V3.15016C41.1207 3.18516 41.1005 3.07516 41.1762 3.11016V3.14516L41.267 3.11016H41.2216L41.272 3.07016C41.272 3.13016 41.3023 3.07016 41.3225 3.07016V3.00516H41.373V2.96016L41.4537 2.92016V2.95516L41.5294 2.90516H41.6252V2.93516L41.7413 2.91016H41.8271V2.93516C41.8624 2.99516 41.8876 2.93516 41.928 2.98516V2.95516C41.9935 2.85516 42.1298 2.98516 42.2256 2.95516V3.00516L42.266 2.96016V3.00516L42.3366 2.94516V2.98016H42.6091V3.00516H42.6545H42.7453H43.0026L43.0783 3.04016H43.1136V3.07016L43.1641 3.01016L43.2297 3.05016C43.2953 3.05016 43.3205 3.15516 43.3811 3.11016H43.3912L43.5072 3.06516L43.6687 3.09516C43.7342 3.09516 43.7191 3.12516 43.7696 3.09516H43.8099L43.8654 3.13016L43.926 3.09016V3.13516H44.0117C44.0622 3.13516 44.0117 3.19516 44.0925 3.13516V3.18516H44.2186V3.28016C44.2186 3.31516 44.2186 3.28016 44.1833 3.34016V3.41516L44.1177 3.56516V3.60016V3.64016H44.0773V3.72016L43.9966 3.78516V3.84016L43.9462 3.80016H43.9815L43.9411 3.86016H43.8957V4.06516H43.7998C43.7998 4.13516 43.709 4.09016 43.7342 4.14516H43.6939V4.21016L43.6384 4.16516V4.23016C43.4971 4.23016 43.371 4.34016 43.2146 4.33016C43.1594 4.37785 43.0937 4.4121 43.0228 4.43016H42.9673C42.8688 4.42392 42.7702 4.44106 42.6797 4.48016C42.6293 4.56016 42.6242 4.42516 42.5738 4.48016V4.43516C42.5185 4.46724 42.4662 4.50405 42.4174 4.54516C42.4174 4.47016 42.377 4.54516 42.377 4.51516V4.54516L42.3064 4.50516V4.54516C42.266 4.54516 42.1802 4.58516 42.15 4.54516C42.0308 4.59573 41.9004 4.61469 41.7715 4.60016L41.6908 4.63516L41.6555 4.60016L41.5697 4.64016H41.4789L41.4234 4.59016C41.4234 4.65016 41.3528 4.59016 41.3528 4.59016H41.0803C40.8943 4.58032 40.7091 4.56029 40.5253 4.53016C40.3931 4.50537 40.2644 4.46509 40.1419 4.41016C40.0667 4.36669 40.0041 4.30468 39.9602 4.23016L39.8593 4.18516H39.7988L39.7534 4.21016L39.8038 4.28516H39.7231V4.24516H39.6827V4.28516L39.713 4.33016C39.6474 4.33016 39.7433 4.37516 39.713 4.40516H39.6676L39.6979 4.49516V4.52516V4.60016C39.6979 4.67516 39.7584 4.60016 39.7685 4.66016H39.7584L39.8038 4.70516H39.7483C39.829 4.86016 39.8492 5.04016 40.0208 5.09016H39.9703C40.1015 5.11516 40.1065 5.21516 40.2125 5.25516C40.3336 5.37016 40.5152 5.36016 40.6615 5.40516L40.7423 5.37516C40.9349 5.43502 41.1357 5.46537 41.3376 5.46516C41.6172 5.47014 41.8968 5.46013 42.1752 5.43516V5.40516C42.2711 5.50016 42.3165 5.37016 42.4123 5.40516C42.5637 5.35516 42.7251 5.40516 42.8563 5.31016V5.33516H42.8866C42.9471 5.33516 43.0026 5.29016 43.038 5.30016V5.24516H43.0884L43.1187 5.20516C43.1187 5.26016 43.2095 5.18016 43.2448 5.20516C43.2968 5.16561 43.3572 5.13826 43.4214 5.12516H43.5728L43.9209 4.96516V4.93016H43.9512L44.0521 4.89516H44.0117V4.84516V4.81016L44.0773 4.86016C44.1732 4.79016 44.2136 4.71516 44.3195 4.65016C44.3195 4.68516 44.3851 4.59016 44.4002 4.65016C44.4457 4.59016 44.3599 4.62016 44.3649 4.57016H44.4002L44.4305 4.60016L44.4658 4.57016C44.5213 4.48016 44.6273 4.47016 44.6727 4.38516H44.6172C44.6525 4.29016 44.703 4.35016 44.7383 4.26016V4.29516L44.7787 4.21016L44.8493 4.16016H44.8089C44.867 4.11794 44.9166 4.06537 44.9553 4.00516C44.9906 3.93516 45.041 3.97016 45.0814 3.89516Z" fill="white"/>
<path d="M42.5889 2.28953L42.6091 2.29453L42.6192 2.26953L42.5889 2.28953Z" fill="#0F1212"/>
<path d="M40.6061 2.9857L40.6263 2.9757L40.6212 2.9707L40.6061 2.9857Z" fill="#0F1212"/>
<path d="M40.6565 2.88414L40.6615 2.87914V2.86914L40.6565 2.88414Z" fill="#0F1212"/>
<path d="M40.3588 3.08031L40.3638 3.07031L40.3538 3.07531L40.3588 3.08031Z" fill="#0F1212"/>
<path d="M36.9682 1.50586C38.4819 1.50586 39.6928 4.50586 39.6928 4.50586C39.6928 4.50586 36.2972 5.66086 34.4455 3.27086C34.3871 3.19758 34.3592 3.1049 34.3677 3.01189C34.3761 2.91889 34.4202 2.83263 34.4909 2.77086C34.9501 2.34086 36.0247 1.50586 36.9682 1.50586Z" fill="#66EF5B"/>
<path d="M37.9168 2.05539V2.05039L37.8865 2.02539L37.9168 2.05539Z" fill="#0F1212"/>
<path d="M36.8724 1.77523L36.9127 1.74023L36.8724 1.77523Z" fill="#0F1212"/>
<path d="M38.1792 1.76562L38.2347 1.79562L38.1792 1.76562Z" fill="#0F1212"/>
<path d="M36.8775 1.57922L36.8624 1.57422L36.8674 1.58422L36.8775 1.57922Z" fill="#0F1212"/>
<path d="M39.6626 4.73047L39.6222 4.77047L39.6626 4.73047Z" fill="#0F1212"/>
<path d="M37.1448 5.20908C37.3446 5.19159 37.5455 5.19159 37.7452 5.20908L37.8966 5.14908V5.20908H37.942C37.942 5.20908 38.0681 5.20908 37.9874 5.26408H38.1741L38.2397 5.22408V5.25408C38.381 5.28908 38.386 5.12908 38.5121 5.14408L38.5727 5.11408C38.5727 5.05408 38.5727 5.14908 38.5121 5.11408L38.5525 5.04408H38.6181L38.7644 5.07408L38.8502 5.00408L38.8956 5.04908V5.00408H38.9309L38.9965 4.94408V5.00408H39.1176L39.0873 4.95908H39.158V4.98908C39.2084 4.95908 39.158 4.94908 39.269 4.94408C39.3093 4.89408 39.39 4.90908 39.4758 4.88908L39.5212 4.84408L39.4556 4.80908C39.5414 4.80908 39.5011 4.73908 39.607 4.73908L39.5767 4.76908V4.88908H39.6524V4.81908H39.7079L39.6575 4.76408H39.718C39.7735 4.72908 39.718 4.71908 39.7836 4.70908C39.8492 4.70908 39.8946 4.66408 39.9703 4.70908V4.73408H40.046L40.1317 4.68908H40.0762C40.0762 4.60408 40.1317 4.68908 40.2024 4.68908V4.65408C40.1418 4.56908 40.2024 4.65408 40.1519 4.61908C40.1015 4.58408 40.1519 4.57408 40.1216 4.49408L40.1771 4.45408L40.0056 4.24408C40.0056 4.31408 40.0863 4.33408 40.0661 4.40908L40.0056 4.37408C39.9716 4.31922 39.9445 4.26045 39.9249 4.19908C39.8694 4.11408 39.8189 4.09408 39.7937 4.01908L39.8593 4.08408C39.8593 4.02908 39.8593 4.02908 39.8139 3.94908L39.8593 4.00408L39.8088 3.91408L39.7382 3.79908C39.6928 3.70408 39.6272 3.72908 39.5666 3.69908L39.5969 3.67408L39.6322 3.59408H39.5919L39.5616 3.53408H39.5162L39.4758 3.45908L39.4355 3.40908H39.3648V3.35908L39.3547 3.32908V3.21408H39.3194L39.2891 3.15408L39.3547 3.11408H39.279C39.3245 3.11408 39.279 3.05408 39.3396 3.05908L39.2891 2.94408V3.00408C39.2286 2.92408 39.1428 2.96908 39.1176 2.89908L39.0419 2.86908V2.70908L38.9965 2.77408V2.81408L38.946 2.73408V2.68908L38.8502 2.65408V2.54408L38.7947 2.57408V2.50408L38.7594 2.46908H38.7947L38.6786 2.42408C38.7442 2.37908 38.6433 2.38908 38.6786 2.32408H38.5676V2.23908L38.5222 2.11908H38.4869V2.04408H38.3961V2.00408L38.2851 2.05408H38.2296V2.00908H38.1791L38.1489 1.94408L38.2044 1.87408V1.79408V1.82908L38.1388 1.79908C38.1388 1.88408 38.0379 1.79908 38.0379 1.83408L38.0025 1.79908L38.0328 1.72408L37.947 1.68908L38.0227 1.65408H37.9319V1.70408H37.8865V1.61908H37.8562V1.58908H37.8411V1.54408L37.7452 1.46408H37.6897C37.6897 1.37408 37.5535 1.37408 37.4728 1.35408C37.4728 1.42408 37.4728 1.35408 37.4173 1.40408C37.3618 1.45408 37.3618 1.33408 37.4173 1.33908H37.3769C37.3769 1.29408 37.4526 1.33908 37.4223 1.27408H37.2709V1.23908H37.3365C37.2255 1.20908 37.2962 1.28908 37.2306 1.30908C37.165 1.32908 37.1852 1.26908 37.1801 1.24908H37.0338L37.0843 1.31408H36.9834C37.0742 1.37908 37.0489 1.31408 37.1297 1.38908L37.1953 1.35408V1.38908H37.2508V1.42908L37.1953 1.50408C37.2457 1.56908 37.2962 1.50408 37.3567 1.50408H37.4072L37.3769 1.55908H37.4576L37.4072 1.60408H37.4728V1.65408L37.5484 1.67908V1.72408C37.5484 1.72408 37.6897 1.72408 37.6393 1.78408C37.6954 1.78901 37.7502 1.80427 37.8007 1.82908C37.7301 1.82908 37.8007 1.91408 37.7654 1.88908H37.8411L37.7856 1.94408H37.8411V2.00408H37.8714H37.9117V2.03908L37.9622 2.07908V2.13908C37.9622 2.22408 38.0631 2.19908 38.0732 2.25408H38.0379L38.1741 2.33908V2.43908H38.2296L38.275 2.51908L38.3154 2.54408C38.3154 2.62908 38.4011 2.59908 38.391 2.67908H38.3608L38.4213 2.76908V2.73408L38.4718 2.77908C38.4112 2.77908 38.4718 2.80908 38.4718 2.83408H38.5172V2.87908H38.5676L38.6332 2.95408H38.603C38.6635 2.99908 38.603 2.98408 38.6786 3.02908H38.7089V3.07908L38.7493 3.12908H38.719C38.7695 3.17908 38.719 3.21408 38.7896 3.24908C38.8552 3.27908 38.7896 3.30908 38.8451 3.33408V3.36908C38.8048 3.42408 38.8451 3.43408 38.8451 3.49408L38.9208 3.50408C39.047 3.54408 38.9864 3.72408 39.0772 3.80908L39.168 3.85908H39.1226L39.2084 3.98908V4.03908H39.1529V4.05408H39.2034C39.1428 4.05408 39.2387 4.08408 39.2034 4.09408L39.2488 4.12408H39.2185L39.274 4.17408H39.168L39.2235 4.22908H39.0873L38.941 4.26408C38.8805 4.30408 38.8754 4.26408 38.825 4.28908H38.6988L38.6534 4.35408L38.603 4.32408H38.5172L38.4516 4.34908C38.4011 4.38908 38.381 4.30408 38.3507 4.38408L38.2851 4.35408C38.228 4.37773 38.1689 4.39614 38.1085 4.40908H38.058V4.43908C37.9672 4.43908 37.8613 4.37408 37.7604 4.38408C37.6538 4.36337 37.5459 4.35 37.4374 4.34408H37.3214C37.2431 4.35906 37.1626 4.35906 37.0843 4.34408H37.0187V4.36908L36.9531 4.33408L36.9127 4.35908V4.37408L36.832 4.40908V4.37908L36.7008 4.33908H36.6302H36.5444L36.4536 4.17408L36.3981 4.20908V4.14408L36.3274 4.10408C36.282 4.16408 36.2366 4.04408 36.2063 4.10408V4.06408L36.1508 4.10408V4.04408L36.1105 4.09408C36.0146 3.96908 35.8128 3.94408 35.7169 3.80408C35.6404 3.78277 35.5674 3.75078 35.5 3.70908L35.4445 3.63408L35.4798 3.68908H35.4243C35.3758 3.59421 35.298 3.51715 35.2023 3.46908C35.1014 3.46908 35.2023 3.39408 35.1216 3.38908H35.1518C35.0762 3.38908 35.0509 3.33408 34.9652 3.30908C35.0257 3.26908 34.9349 3.27908 34.9652 3.25408V3.18908H34.9197L34.8592 3.12908V3.08408V3.00408H34.8945V2.95408H34.9652L35.0257 2.90908C35.0257 2.90908 35.4041 2.63408 35.833 2.37908C36.2618 2.12408 36.721 1.92408 36.9077 1.77408L36.9379 1.68908H36.9884L36.9581 1.57908V1.63408L36.9178 1.59908L36.832 1.66908L36.7916 1.62908H36.7563L36.7967 1.56908H36.7563L36.7059 1.60408C36.7059 1.54408 36.6554 1.64408 36.6201 1.60408V1.50408L36.4738 1.54908H36.393C36.3224 1.54908 36.393 1.60908 36.3174 1.60408V1.55908H36.2467V1.50408C36.0701 1.50408 35.9238 1.44408 35.7876 1.54408V1.50408C35.6968 1.59408 35.6059 1.50408 35.5151 1.56908C35.3486 1.56908 35.2225 1.69908 35.0762 1.75908L35.0257 1.83408C34.8207 1.91005 34.6285 2.01625 34.4556 2.14908L34.279 2.29908C34.1786 2.37351 34.0872 2.45907 34.0065 2.55408C33.9252 2.66072 33.8743 2.78709 33.8592 2.91993C33.8441 3.05277 33.8654 3.18718 33.9207 3.30908C33.8905 3.23408 33.9611 3.24908 33.9662 3.30908C33.9598 3.34411 33.963 3.38019 33.9754 3.41359C33.9878 3.44699 34.009 3.4765 34.0368 3.49908L34.1579 3.65908C34.3092 3.76408 34.3395 3.96908 34.5312 4.01408L34.5817 4.04408L34.7179 4.15408L34.7583 4.19908H34.8138L34.9046 4.30908L35.0963 4.40408L35.2124 4.52908C35.3083 4.58908 35.4596 4.64908 35.5858 4.71408V4.63908H35.6211L35.722 4.69908H35.7623V4.77908C35.8784 4.82408 35.9743 4.77908 36.0903 4.84908L36.1357 4.91408C36.2164 4.91408 36.1357 4.86408 36.1862 4.83908H36.2265V4.87908H36.277C36.3829 4.87908 36.4485 4.95908 36.5444 4.94908V4.91408C36.6453 4.91408 36.615 4.96908 36.7059 4.95908H36.7916L36.726 4.98908H36.8169L36.8824 5.02908V5.00408C36.9428 5.02502 37.0055 5.03845 37.0691 5.04408C37.0893 5.13408 37.0742 5.20908 37.1448 5.20908Z" fill="white"/>
<path d="M39.7584 3.88477L39.7685 3.91977L39.7988 3.92977L39.7584 3.88477Z" fill="#0F1212"/>
<path d="M38.3961 2.0293L38.4113 2.0493L38.4163 2.0443L38.3961 2.0293Z" fill="#0F1212"/>
<path d="M38.5121 2.07031V2.07531H38.5273L38.5121 2.07031Z" fill="#0F1212"/>
<path d="M38.2297 1.79516H38.2448L38.2347 1.78516L38.2297 1.79516Z" fill="#0F1212"/>
</svg>
