<svg width="41" height="41" viewBox="0 0 41 41" fill="none" xmlns="http://www.w3.org/2000/svg">
<circle cx="20.5" cy="20.5" r="20.5" fill="#FEFEFF"/>
<path fill-rule="evenodd" clip-rule="evenodd" d="M13.7445 24.6663L14.9737 23.4351C15.3675 23.0413 15.5841 22.5184 15.5841 21.9622V17.0903C15.5841 15.6768 16.1987 14.3257 17.2716 13.3861C18.3529 12.4382 19.73 12.0216 21.1643 12.2101C23.5883 12.532 25.4164 14.7236 25.4164 17.3091V21.9622C25.4164 22.5184 25.6331 23.0413 26.0258 23.4341L27.256 24.6663H13.7445ZM22.5833 27.1052C22.5833 28.0416 21.6291 28.8333 20.4999 28.8333C19.3708 28.8333 18.4166 28.0416 18.4166 27.1052V26.75H22.5833V27.1052ZM29.3754 23.8416L27.4994 21.9624V17.3093C27.4994 13.6833 24.8931 10.6031 21.4369 10.1458C19.4348 9.87912 17.414 10.4906 15.8983 11.8197C14.3733 13.1552 13.5004 15.076 13.5004 17.0906L13.4994 21.9624L11.6233 23.8416C11.1348 24.3312 10.99 25.0593 11.2546 25.6979C11.5202 26.3375 12.1379 26.75 12.8296 26.75H16.3327V27.1052C16.3327 29.2072 18.2015 30.9166 20.4994 30.9166C22.7973 30.9166 24.666 29.2072 24.666 27.1052V26.75H28.1692C28.8608 26.75 29.4775 26.3375 29.7421 25.6989C30.0077 25.0593 29.864 24.3302 29.3754 23.8416Z" fill="#2836D1"/>
</svg>
