<svg width="495" height="291.5" viewBox="0 0 643 379" fill="none" xmlns="http://www.w3.org/2000/svg">
    <ellipse cx="406.797" cy="225.149" rx="59.9883" ry="60.0396" fill="#2AB036"/>
    <path fill-rule="evenodd" clip-rule="evenodd" d="M398.788 245.787C397.753 245.787 396.763 245.377 396.055 244.654L377.822 226.03C376.401 224.584 376.48 222.308 377.987 220.949C379.498 219.589 381.871 219.661 383.285 221.107L398.751 236.898L430.274 203.806C431.677 202.335 434.046 202.238 435.576 203.576C437.102 204.913 437.207 207.19 435.812 208.653L401.555 244.615C400.854 245.356 399.857 245.78 398.814 245.787H398.788Z" fill="#FEFEFF"/>
    <path fill-rule="evenodd" clip-rule="evenodd" d="M298.84 61.5213C295.644 56.7921 293.608 51.178 294.311 45.1754C296.337 27.8803 318.285 33.847 322.134 43.0464C325.983 52.2458 324.306 74.4763 318.656 75.5086C316.403 75.9203 311.752 73.93 307.104 70.2912L308.903 93.9671L291.06 92.2445L298.84 61.5213Z" fill="#915B3C"/>
    <path fill-rule="evenodd" clip-rule="evenodd" d="M287.385 38.6924C286.852 38.0177 286.592 37.0986 286.372 36.2282C286.143 35.3241 285.922 34.4115 285.789 33.4796C285.523 31.6177 285.638 29.5135 286.894 28.1962C287.902 27.1399 289.347 26.7533 290.659 26.757C291.534 26.7594 292.42 26.9732 293.238 27.3508C294.049 27.7254 294.728 28.3898 295.51 28.8337C295.652 26.8649 296.072 24.8287 297.069 23.2245C298.028 21.681 299.462 20.8936 301.051 20.7915C302.682 20.6868 304.255 21.2468 305.654 22.2423C306.004 22.4916 306.35 22.7509 306.679 23.039C306.954 23.2802 307.239 23.5665 307.571 23.684C307.942 23.8151 308.142 23.5903 308.404 23.3072C308.711 22.9753 309.052 22.6892 309.409 22.4404C310.99 21.3405 313.002 21.0079 314.712 21.9006C315.5 22.3119 316.252 22.959 316.754 23.8037C317.202 24.5567 317.487 25.7138 318.132 26.2677C318.406 26.5028 318.624 26.2423 318.896 26.0595C319.304 25.7848 319.696 25.4766 320.109 25.2107C320.688 24.8372 321.308 24.5741 321.961 24.4654C322.918 24.3062 324.218 24.4774 324.411 25.8715C324.483 26.3951 324.374 26.9388 324.312 27.4546C324.227 28.1628 324.14 28.8706 324.044 29.5768C323.972 30.1131 323.889 30.6298 323.767 31.152C323.702 31.4303 323.519 31.9437 323.612 32.2364C323.729 32.6021 324.37 32.4563 324.639 32.4923C325.169 32.5634 325.697 32.7137 326.175 33.0089C326.545 33.2378 326.929 33.5603 327.063 34.0589C327.145 34.3652 327.101 34.6686 327.037 34.9707C326.961 35.3332 327.014 35.5337 327.035 35.9082C327.771 35.5808 330.294 34.9314 330.526 36.3785C330.603 36.8604 330.336 37.3738 330.134 37.7567C329.779 38.4283 329.328 39.031 328.871 39.6034C327.916 40.7974 326.799 41.8016 325.612 42.6399C326.904 43.4121 327.142 45.3761 325.927 46.427C325.39 46.891 324.7 46.9442 324.061 46.8554C323.827 46.8229 323.495 46.6931 323.308 46.7222C323.207 46.7379 323.095 46.8219 322.957 46.8203C322.049 46.8095 321.041 46.4781 320.17 46.1778C318.617 45.6426 317.172 44.6836 316.025 43.3154C315.73 42.9645 315.483 42.7555 315.062 42.7234C314.693 42.6951 314.325 42.7755 313.957 42.7535C312.981 42.6955 312.132 42.09 311.247 41.6589C311.116 43.0098 310.683 44.4724 310.115 45.6482C309.651 46.607 308.791 46.6768 307.95 46.6906C305.259 46.7348 302.592 46.1874 299.913 45.9563C302.47 46.8342 305.134 47.3375 307.66 48.3283C308.803 48.7761 307.867 49.5667 307.336 50.1252C306.462 51.0448 305.785 52.2199 305.29 53.477C304.125 51.5314 301.951 50.1259 299.933 50.5149C297.704 50.9447 295.973 54.1013 297.243 56.5916C297.98 58.0372 299.421 58.6969 300.612 59.3948C299.595 60.4125 299.272 62.0191 298.62 63.339C298.299 63.9899 297.858 64.7191 297.21 64.8989C296.971 64.9655 296.695 64.9488 296.498 65.1446C296.254 65.3871 296.183 65.676 295.878 65.876C294.659 66.6744 292.838 66.4446 291.869 65.1779C290.992 64.0323 291.331 62.3711 292.174 61.3617C290.961 60.6767 288.735 59.7372 289.351 57.6292C286.665 57.1936 280.389 51.7652 284.21 48.5369C282.293 47.1166 280.639 43.912 282.067 41.3405C283.166 39.3603 285.504 38.6373 287.385 38.6924Z" fill="#191847"/>
    <path fill-rule="evenodd" clip-rule="evenodd" d="M276.703 164.597L330.989 266.892L371.688 353.373H380.454L312.263 164.597L276.703 164.597Z" fill="#784931"/>
    <path fill-rule="evenodd" clip-rule="evenodd" d="M366.324 349.381C365.506 351.84 365.098 353.68 365.098 354.901C365.098 356.386 365.317 358.553 365.756 361.402C367.284 361.402 381.02 361.402 406.962 361.402C408.032 357.412 407.414 355.258 405.107 354.94C402.8 354.622 400.884 354.334 399.358 354.078L380.206 344.454C379.837 344.269 379.405 344.456 379.241 344.871C379.238 344.878 379.236 344.885 379.233 344.893L378.002 348.259C375.866 349.382 374.131 349.943 372.795 349.943C371.711 349.943 370.212 349.449 368.301 348.462L368.301 348.462C367.567 348.083 366.7 348.446 366.364 349.273C366.349 349.308 366.336 349.344 366.324 349.381Z" fill="#E4E4E4"/>
    <path fill-rule="evenodd" clip-rule="evenodd" d="M360.381 339.525L377.286 333.761C369.879 308.804 360.801 281.339 350.052 251.367C339.303 221.396 327.758 192.472 315.419 164.597H267.672C281.391 199.858 295.934 231.897 311.303 260.714C326.672 289.532 343.031 315.802 360.381 339.525Z" fill="#EDECFF"/>
    <path fill-rule="evenodd" clip-rule="evenodd" d="M273.132 164.597C268.009 200.544 258.127 246.471 257.194 247.888C256.572 248.833 234.19 257.286 190.047 273.249L191.94 281.962C244.581 273.401 272.318 266.759 275.152 262.036C279.402 254.952 300.625 198.987 308.845 164.597H273.132Z" fill="#915B3C"/>
    <path fill-rule="evenodd" clip-rule="evenodd" d="M205.566 265.717L208.902 279.75C248.274 283.642 272.398 280.83 281.274 271.313C290.15 261.796 300.267 226.224 311.623 164.597H266.093C258.898 215.061 254.876 241.352 254.026 243.471C253.176 245.589 237.023 253.005 205.566 265.717Z" fill="#EDECFF"/>
    <path fill-rule="evenodd" clip-rule="evenodd" d="M192.564 269.709C190.208 269.285 188.478 269.191 187.374 269.427C186.031 269.714 184.106 270.376 181.601 271.411C181.847 273.095 184.063 288.231 188.248 316.82C192.03 317.227 193.878 316.129 193.794 313.525C193.709 310.921 193.66 308.753 193.646 307.022L199.259 284.054C199.367 283.612 199.129 283.172 198.727 283.071C198.72 283.07 198.713 283.068 198.706 283.066L195.463 282.361C194.103 280.225 193.315 278.422 193.1 276.95C192.925 275.755 193.13 274.008 193.714 271.71L193.714 271.71C193.939 270.828 193.471 269.943 192.669 269.732C192.634 269.723 192.599 269.716 192.564 269.709Z" fill="#E4E4E4"/>
    <path fill-rule="evenodd" clip-rule="evenodd" d="M341.93 158.283L362.358 181.271C368.36 184.399 373.264 187.75 377.072 191.324C377.923 192.5 378.833 194.709 374.763 193.501C370.693 192.293 366.368 191.217 365.577 192.596C364.786 193.975 367.013 196.295 365.564 198.075C364.598 199.262 361.48 195.116 356.209 185.637L334.822 170.678L341.93 158.283ZM238.45 128.654L250.846 133.813C231.385 162.039 220.994 176.942 219.672 178.521C216.698 182.075 218.01 189.887 218.342 193.931C212.882 194.23 216.084 186.134 209.161 186.623C202.841 187.07 197.117 190.231 192.16 183.534C191.55 182.71 191.321 180.458 193.853 179.812C200.162 178.201 209.625 174.735 211.312 173.008C213.614 170.653 222.66 155.868 238.45 128.654Z" fill="#915B3C"/>
    <path fill-rule="evenodd" clip-rule="evenodd" d="M347.633 159.714C350.675 160.128 353.867 161.377 357.188 163.423C358.822 164.429 359.454 166.668 358.599 168.423C358.102 169.443 357.213 170.075 356.235 170.229C356.829 170.908 357.429 171.584 358.036 172.26L350.231 184.107C327.373 165.263 305.524 150.06 298.13 125.503C295.648 117.26 300.544 92.1409 301.546 82.8341L309.893 81.0234C317.242 107.995 328.598 134.801 347.633 159.714Z" fill="#A6D4FF"/>
    <path fill-rule="evenodd" clip-rule="evenodd" d="M262.042 163.517C284.754 171.269 302.947 175.194 316.622 175.292C318.316 175.304 319.367 167.57 318.911 165.297C311.809 129.906 307.492 104.189 310.808 81.3867C308.449 82.156 304.609 81.5191 299.287 79.4759C281.229 99.8157 270.578 125.326 262.042 163.517Z" fill="#191847"/>
    <path fill-rule="evenodd" clip-rule="evenodd" d="M257.208 167.629C256.539 166.654 256.305 165.358 256.687 164.158L257.416 161.872C257.909 160.323 259.277 159.413 260.719 159.535C261.141 158.385 261.528 157.237 261.877 156.089C264.822 146.392 263.71 136.022 265.233 126.403C251.785 134.847 238.393 151.546 225.058 176.501L211.791 169.047C212.634 167.015 213.492 165.014 214.366 163.043C212.904 161.704 211.69 156.75 213.151 156.279C214.661 155.794 216.219 155.559 217.823 155.568C236.667 116.506 261.982 90.4245 293.768 77.3232L296.331 77.8756L302.148 79.1292C294.515 114.094 317.312 198.935 295.848 262.569C273.205 263.169 244.39 239.907 212.076 246.565C217.086 220.156 244.295 193.727 257.208 167.628L257.208 167.629Z" fill="#A6D4FF"/>
    <path fill-rule="evenodd" clip-rule="evenodd" d="M296.872 77.427L291.163 89.3755L297.495 100.605L289.405 106.632L301.731 141.561L285.628 105.888L293.602 99.7716L287.976 89.8411L296.872 77.427Z" fill="black" fill-opacity="0.1"/>
    <path fill-rule="evenodd" clip-rule="evenodd" d="M294.1 152.805C292.441 152.452 291.309 150.721 291.572 148.939C291.834 147.157 293.391 145.999 295.05 146.352C296.708 146.704 297.84 148.435 297.578 150.217C297.315 151.999 295.758 153.157 294.1 152.805ZM295.122 172.155C293.463 171.802 292.332 170.072 292.594 168.29C292.856 166.508 294.414 165.349 296.072 165.702C297.73 166.055 298.862 167.785 298.6 169.567C298.337 171.349 296.78 172.508 295.122 172.155ZM293.141 190.867C291.483 190.514 290.351 188.784 290.613 187.002C290.876 185.22 292.433 184.061 294.091 184.414C295.75 184.767 296.881 186.497 296.619 188.279C296.357 190.061 294.8 191.22 293.141 190.867Z" fill="black" fill-opacity="0.4"/>
</svg>