<svg width="41" height="41" viewBox="0 0 41 41" fill="none" xmlns="http://www.w3.org/2000/svg">
<circle cx="20.5" cy="20.5" r="20.5" fill="#C5C2FF"/>
<path fill-rule="evenodd" clip-rule="evenodd" d="M22.5829 15.2918C22.5829 14.1429 21.6485 13.2085 20.4996 13.2085C19.3506 13.2085 18.4162 14.1429 18.4162 15.2918C18.4162 16.4408 19.3506 17.3752 20.4996 17.3752C21.6485 17.3752 22.5829 16.4408 22.5829 15.2918ZM24.666 15.2919C24.666 17.5898 22.7972 19.4586 20.4993 19.4586C18.2014 19.4586 16.3326 17.5898 16.3326 15.2919C16.3326 12.994 18.2014 11.1252 20.4993 11.1252C22.7972 11.1252 24.666 12.994 24.666 15.2919ZM13.208 28.8334C13.208 24.8126 16.4799 21.5417 20.4997 21.5417C24.5195 21.5417 27.7913 24.8126 27.7913 28.8334C27.7913 29.4084 27.3257 29.8751 26.7497 29.8751C26.1736 29.8751 25.708 29.4084 25.708 28.8334C25.708 25.9615 23.3716 23.6251 20.4997 23.6251C17.6278 23.6251 15.2913 25.9615 15.2913 28.8334C15.2913 29.4084 14.8257 29.8751 14.2497 29.8751C13.6736 29.8751 13.208 29.4084 13.208 28.8334Z" fill="#151F8E"/>
</svg>
