<svg width="41" height="41" viewBox="0 0 41 41" fill="none" xmlns="http://www.w3.org/2000/svg">
<circle cx="20.5" cy="20.5" r="20.5" fill="#FEFEFF"/>
<path fill-rule="evenodd" clip-rule="evenodd" d="M22.5828 15.2918C22.5828 14.1429 21.6484 13.2085 20.4995 13.2085C19.3505 13.2085 18.4161 14.1429 18.4161 15.2918C18.4161 16.4408 19.3505 17.3752 20.4995 17.3752C21.6484 17.3752 22.5828 16.4408 22.5828 15.2918ZM24.6662 15.2919C24.6662 17.5898 22.7975 19.4586 20.4995 19.4586C18.2016 19.4586 16.3329 17.5898 16.3329 15.2919C16.3329 12.994 18.2016 11.1252 20.4995 11.1252C22.7975 11.1252 24.6662 12.994 24.6662 15.2919ZM13.208 28.8334C13.208 24.8126 16.4799 21.5417 20.4997 21.5417C24.5195 21.5417 27.7913 24.8126 27.7913 28.8334C27.7913 29.4084 27.3257 29.8751 26.7497 29.8751C26.1736 29.8751 25.708 29.4084 25.708 28.8334C25.708 25.9615 23.3716 23.6251 20.4997 23.6251C17.6278 23.6251 15.2913 25.9615 15.2913 28.8334C15.2913 29.4084 14.8257 29.8751 14.2497 29.8751C13.6736 29.8751 13.208 29.4084 13.208 28.8334Z" fill="#2836D1"/>
</svg>
