<?xml version="1.0" standalone="no"?>
<!DOCTYPE svg PUBLIC "-//W3C//DTD SVG 20010904//EN"
 "http://www.w3.org/TR/2001/REC-SVG-20010904/DTD/svg10.dtd">
<svg version="1.0" xmlns="http://www.w3.org/2000/svg"
 width="1152.000000pt" height="1152.000000pt" viewBox="0 0 1152.000000 1152.000000"
 preserveAspectRatio="xMidYMid meet">
<metadata>
Created by potrace 1.14, written by Peter Selinger 2001-2017
</metadata>
<g transform="translate(0.000000,1152.000000) scale(0.100000,-0.100000)"
fill="#000000" stroke="none">
<path d="M4067 11497 c-17 -17 -43 -15 -32 2 2 5 -7 6 -20 3 -14 -2 -28 -8
-31 -13 -6 -10 43 -24 69 -20 9 1 17 -3 17 -9 0 -6 5 -8 10 -5 6 3 10 -1 10
-10 0 -11 5 -15 14 -12 10 4 13 1 9 -9 -6 -17 3 -15 -148 -18 -66 -2 -131 -6
-145 -10 -14 -3 -50 -8 -80 -11 -30 -2 -55 -5 -55 -5 0 -1 -10 -3 -22 -4 -13
-2 -23 1 -23 5 0 6 -29 9 -112 11 -13 0 -41 -3 -63 -6 -22 -4 -62 -9 -90 -12
-27 -4 -55 -10 -60 -15 -6 -4 -24 -10 -40 -13 -15 -3 -32 -11 -37 -18 -4 -7
-8 -10 -8 -5 0 10 -101 -48 -102 -59 0 -17 -20 -33 -34 -27 -8 3 -14 0 -14 -6
0 -6 -6 -11 -14 -11 -12 0 -84 -34 -135 -65 -56 -34 -178 -131 -234 -187 -15
-16 -31 -28 -35 -28 -5 0 -15 -12 -22 -27 -8 -16 -19 -35 -26 -43 -19 -25 -35
-86 -38 -146 -4 -65 15 -149 33 -149 15 0 30 -25 24 -41 -6 -16 10 -45 44 -81
28 -28 49 -55 88 -110 42 -60 159 -160 216 -186 21 -10 39 -22 39 -27 0 -5 26
-23 58 -39 31 -16 71 -44 88 -63 30 -32 154 -106 154 -92 0 4 8 0 18 -9 11
-11 22 -13 32 -7 9 5 19 5 27 -2 9 -7 13 -7 13 1 0 17 38 -9 43 -29 3 -11 16
-17 42 -18 48 -2 100 -19 115 -38 16 -18 31 -18 24 0 -3 7 2 16 10 19 11 4 16
1 16 -11 0 -13 9 -18 32 -20 17 -2 36 -6 42 -11 19 -15 55 -19 59 -7 3 8 10 7
28 -2 14 -7 33 -14 43 -16 10 -1 22 -9 27 -17 7 -11 9 -11 9 0 0 10 3 11 13 2
8 -6 16 -8 19 -5 14 13 84 -19 100 -46 l16 -27 143 2 c79 1 157 7 172 14 37
15 47 14 47 -4 0 -9 6 -12 15 -9 8 4 23 3 33 -2 9 -4 20 -8 25 -9 4 -2 10 -4
15 -5 21 -7 39 -4 54 8 10 8 18 10 22 3 9 -15 46 -4 73 21 13 12 31 23 40 24
8 2 21 8 27 14 8 8 6 9 -9 4 -20 -7 -20 -7 0 15 17 20 27 22 67 19 32 -4 49
-1 52 8 3 9 24 12 65 10 55 -2 60 0 66 21 5 22 25 33 25 14 0 -5 14 -3 31 6
16 8 47 16 67 18 20 1 29 1 20 -2 -15 -4 -14 -7 7 -27 14 -13 25 -29 25 -35 0
-7 5 -9 11 -5 7 4 7 -1 -1 -16 -10 -18 -9 -24 1 -31 11 -7 9 -9 -6 -10 -18 -1
-17 -2 3 -7 l23 -7 -21 -23 c-12 -13 -28 -21 -36 -18 -7 3 -16 1 -19 -4 -6 -9
16 -15 39 -11 31 6 42 -69 13 -92 -10 -8 -12 -18 -7 -32 5 -12 9 -14 9 -6 1 8
4 11 7 8 4 -4 1 -13 -5 -21 -17 -20 1 -53 31 -59 l23 -4 -23 -8 c-18 -6 -20
-10 -10 -16 8 -6 9 -9 1 -9 -6 0 -10 -11 -8 -26 1 -16 -2 -23 -9 -21 -7 3 -13
-4 -13 -14 -1 -11 5 -19 14 -19 12 0 13 -3 4 -13 -7 -10 -7 -17 0 -24 8 -8 5
-14 -10 -22 -12 -7 -21 -18 -21 -25 0 -8 -7 -17 -16 -20 -8 -3 -13 -9 -10 -14
2 -4 1 -14 -4 -22 -7 -11 -1 -18 23 -28 20 -8 27 -16 20 -20 -16 -10 -29 -112
-14 -112 6 0 22 -10 36 -22 19 -16 22 -24 13 -30 -10 -6 -10 -8 0 -8 15 0 16
-47 1 -52 -8 -3 -6 -10 5 -21 13 -13 15 -21 6 -37 -8 -15 -8 -20 1 -20 8 0 7
-6 -3 -17 -17 -20 -17 -65 0 -86 7 -8 9 -17 5 -20 -6 -6 -10 -25 -17 -82 -1
-11 2 -33 7 -50 12 -41 15 -95 6 -101 -4 -2 -4 -18 1 -34 5 -17 9 -33 9 -35 1
-3 1 -6 2 -7 0 -2 2 -10 4 -18 2 -8 7 -25 11 -37 7 -25 5 -26 -66 -23 -112 5
-110 5 -293 -16 -50 -6 -90 -10 -187 -19 -30 -2 -93 -12 -140 -21 -47 -9 -94
-18 -106 -20 -12 -2 -40 -10 -63 -19 -23 -8 -43 -14 -46 -14 -3 -1 -20 -7 -38
-14 -82 -35 -108 -42 -115 -30 -5 8 -20 7 -52 -6 -25 -10 -63 -24 -85 -31 -37
-11 -82 -30 -160 -65 -16 -7 -43 -17 -59 -21 -16 -4 -31 -15 -33 -25 -3 -11
-10 -19 -17 -20 -6 -1 -24 -2 -39 -4 -16 -1 -33 -8 -38 -16 -5 -8 -9 -10 -9
-5 0 5 -11 -1 -25 -14 -13 -12 -37 -24 -53 -25 -15 -1 -62 -21 -105 -43 -43
-23 -81 -42 -85 -43 -13 -3 -57 -23 -62 -29 -3 -3 -34 -25 -70 -49 -36 -25
-67 -47 -70 -50 -18 -20 -136 -81 -185 -96 -24 -7 -58 -24 -77 -39 -19 -14
-38 -23 -41 -19 -4 3 -7 1 -7 -5 0 -7 -7 -12 -15 -12 -8 0 -15 -4 -15 -10 0
-5 -6 -10 -13 -10 -7 0 -23 -9 -35 -20 -12 -11 -23 -20 -26 -20 -3 0 -18 -11
-33 -25 -15 -14 -62 -53 -103 -88 -94 -78 -83 -68 -181 -157 -171 -155 -211
-198 -205 -218 4 -12 -1 -25 -14 -37 -11 -10 -20 -15 -20 -11 0 4 -13 0 -28
-9 -32 -19 -66 -72 -50 -77 12 -4 -3 -39 -30 -67 -9 -10 -21 -25 -27 -34 -6
-9 -27 -18 -47 -20 -40 -4 -68 -22 -68 -43 0 -8 -4 -14 -10 -14 -5 0 -10 -4
-10 -9 0 -6 -13 -29 -29 -53 -16 -24 -39 -61 -51 -83 -12 -22 -32 -58 -46 -80
-13 -22 -33 -57 -45 -78 -33 -62 -89 -147 -97 -147 -4 0 -20 -20 -35 -45 -16
-25 -32 -43 -37 -40 -13 8 -33 -23 -26 -41 5 -14 9 -14 22 -3 27 22 35 -9 14
-52 -14 -26 -25 -36 -41 -35 -16 1 -29 -13 -54 -59 -17 -33 -33 -63 -33 -68
-1 -4 -27 -53 -59 -110 -67 -119 -106 -211 -100 -235 3 -14 6 -12 15 8 7 17
11 20 11 8 1 -29 -29 -107 -60 -156 -16 -25 -29 -53 -29 -62 0 -9 -5 -21 -12
-28 -7 -7 -13 -22 -13 -35 -2 -38 -17 -97 -26 -103 -5 -3 -9 0 -9 7 0 7 -3 9
-7 5 -10 -10 -12 -66 -2 -66 10 0 -7 -60 -21 -74 -13 -13 -13 -39 -1 -31 20
12 20 -15 0 -71 -24 -71 -39 -131 -54 -224 -4 -24 -15 -50 -24 -57 -9 -7 -11
-12 -4 -13 14 0 -1 -54 -22 -80 -32 -40 -37 -106 -32 -407 3 -164 8 -314 11
-333 2 -19 7 -73 11 -120 4 -47 8 -107 10 -135 4 -48 11 -107 19 -171 2 -17
18 -63 35 -103 16 -39 31 -75 31 -79 0 -4 5 -25 11 -47 19 -68 19 -74 -2 -80
-20 -7 -25 -31 -9 -55 5 -9 5 -19 -1 -26 -7 -9 -5 -15 7 -22 9 -5 18 -24 20
-43 2 -19 6 -49 9 -66 5 -32 -8 -46 -18 -20 -13 31 -5 -22 9 -68 9 -27 17 -57
19 -65 1 -8 7 -28 14 -43 6 -16 11 -32 11 -36 0 -25 48 -121 77 -154 33 -37
37 -62 7 -50 -12 4 -10 -6 7 -53 28 -75 47 -101 139 -196 42 -42 92 -105 113
-139 20 -35 37 -56 37 -46 0 9 3 17 6 17 13 0 94 -64 94 -74 0 -6 14 -24 31
-41 17 -16 39 -48 49 -70 9 -22 35 -67 57 -100 22 -33 43 -69 47 -81 3 -12 24
-29 45 -39 60 -27 115 -79 109 -102 -7 -26 9 -53 31 -53 10 0 26 -16 37 -37
11 -21 33 -45 49 -53 49 -25 77 -60 38 -46 -10 4 6 -17 36 -45 37 -36 50 -54
41 -59 -14 -8 -2 -19 27 -25 10 -2 26 -7 37 -11 16 -6 17 -5 6 15 -13 26 -8
37 12 25 7 -5 15 -9 18 -9 3 0 22 -10 43 -22 44 -26 49 -46 10 -38 -20 4 -15
-1 16 -16 24 -12 54 -30 65 -41 30 -28 103 -78 114 -78 6 0 12 -4 14 -8 1 -4
24 -23 50 -41 26 -19 45 -38 42 -42 -3 -5 1 -9 8 -9 7 0 23 -3 34 -6 19 -5 21
-2 17 20 -5 27 11 37 20 13 3 -8 36 -22 74 -32 37 -10 82 -25 98 -34 29 -15
30 -15 6 -19 -13 -2 -27 1 -31 7 -4 8 -17 8 -46 -2 -21 -8 -49 -13 -61 -12
-29 2 -29 -6 -2 -23 16 -11 24 -11 36 -1 11 10 16 10 22 1 4 -7 20 -15 34 -18
22 -3 27 -1 27 16 0 20 15 25 44 14 26 -10 19 -34 -11 -34 -53 0 -12 -13 49
-15 81 -4 88 -6 114 -32 11 -13 36 -29 55 -37 38 -16 79 -51 79 -68 0 -6 -14
-8 -37 -4 l-38 6 35 -17 c19 -9 37 -17 40 -18 32 -8 88 -30 98 -38 10 -8 14
-5 18 9 4 15 13 20 35 18 38 -3 43 -8 30 -32 -8 -15 -6 -23 12 -39 12 -11 34
-23 50 -25 23 -5 25 -3 15 10 -7 8 -8 13 -3 11 6 -3 36 -17 68 -32 32 -15 66
-28 75 -30 28 -4 92 -48 92 -62 0 -16 12 -25 40 -30 29 -6 25 4 -7 16 -26 10
-26 10 -6 24 15 11 28 12 49 5 61 -20 179 -38 191 -28 6 5 55 7 109 4 78 -4
104 -9 126 -26 15 -11 34 -20 43 -20 8 0 15 -5 15 -10 0 -6 6 -10 13 -9 6 1
42 -11 78 -28 234 -108 594 -220 899 -277 14 -3 36 -7 50 -10 37 -7 101 -17
135 -21 17 -2 48 -7 70 -10 22 -4 58 -8 80 -10 22 -3 60 -6 85 -9 265 -27 903
-28 1060 -2 14 3 54 7 90 11 105 11 143 15 170 20 14 3 44 8 66 11 23 2 53 7
65 10 13 3 40 7 59 10 19 2 42 7 50 9 8 2 31 7 50 10 19 3 55 11 80 16 25 6
53 12 64 14 43 9 192 47 206 52 8 3 20 7 25 8 16 2 68 16 85 22 8 3 20 7 25 8
6 2 55 18 110 36 55 18 102 33 105 34 3 0 10 3 15 6 6 3 31 12 58 20 26 7 47
17 47 21 0 4 6 8 14 8 8 0 51 16 96 35 45 19 88 35 96 35 8 0 14 5 14 10 0 6
6 10 14 10 16 0 317 153 404 205 102 61 148 90 150 97 2 4 8 8 14 8 5 0 24 11
42 25 18 14 38 25 44 25 6 0 12 3 14 8 2 4 55 46 118 94 269 203 444 377 674
668 6 8 22 32 35 53 12 20 28 37 33 37 6 0 9 3 5 6 -3 3 -1 11 4 18 16 18 100
149 110 171 5 11 21 40 35 65 32 54 107 201 110 215 1 6 16 40 33 77 17 37 32
76 34 85 2 10 8 27 14 38 18 34 99 301 109 365 3 14 7 33 10 42 7 25 14 59 19
98 2 19 7 46 10 60 3 14 8 45 11 70 3 25 7 56 9 70 14 75 19 201 19 420 0 225
-3 294 -21 435 -3 28 -7 64 -9 80 -4 42 -12 92 -19 123 -3 15 -7 41 -10 57 -8
57 -47 235 -70 315 -9 30 -18 66 -21 79 -3 14 -7 28 -10 33 -3 4 -7 16 -9 25
-3 18 -31 105 -42 133 -3 8 -7 20 -8 25 -3 12 -49 132 -72 185 -38 90 -53 123
-122 264 -40 83 -79 158 -86 166 -8 8 -13 17 -12 20 1 5 -11 24 -60 102 -12
21 -23 42 -23 48 0 5 -4 10 -8 10 -5 0 -14 11 -20 25 -7 14 -16 31 -22 38 -6
7 -41 57 -80 112 -68 99 -91 129 -127 172 -10 12 -27 34 -38 49 -22 31 -84
101 -132 152 -18 18 -33 35 -33 38 0 6 -192 194 -261 256 -86 76 -118 103
-189 158 -25 19 -47 37 -50 40 -3 3 -22 16 -42 30 -21 14 -38 28 -38 33 0 4
-6 7 -14 7 -8 0 -16 3 -18 8 -5 11 -95 72 -107 72 -6 0 -11 4 -11 8 0 5 -18
19 -40 31 -49 27 -65 43 -150 141 -146 168 -169 192 -182 184 -7 -4 -85 38
-118 63 -2 2 2 8 9 12 11 7 11 13 -4 32 l-17 24 7 -25 c5 -20 -1 -17 -32 20
-76 88 -202 202 -358 323 -67 51 -104 75 -109 70 -3 -4 -6 -2 -6 4 0 6 -33 30
-72 54 -40 24 -74 47 -76 51 -2 5 -9 8 -16 8 -7 0 -21 9 -31 20 -10 11 -21 17
-25 15 -5 -3 -10 -2 -12 2 -4 11 -124 83 -136 83 -6 0 -12 3 -14 8 -8 19 -458
221 -458 205 0 -3 -6 -1 -12 4 -7 6 -38 18 -68 28 -30 10 -64 21 -75 25 -58
22 -175 58 -210 64 -11 1 -27 6 -35 9 -16 7 -238 60 -305 72 -46 9 -55 11
-110 19 -22 3 -56 9 -75 12 -19 3 -51 7 -70 9 -19 2 -53 6 -75 9 -22 3 -76 8
-120 12 -84 7 -95 13 -95 56 0 15 -7 33 -15 42 -11 10 -15 33 -13 79 1 46 -3
72 -15 90 -10 16 -13 28 -7 32 14 9 12 61 -2 87 -7 12 -23 31 -36 41 -16 13
-20 25 -16 42 7 27 -13 95 -27 95 -6 0 -6 8 1 19 13 26 13 58 -1 63 -11 4 -20
80 -18 138 4 77 1 91 -18 112 -15 17 -19 32 -16 61 4 25 1 37 -7 37 -9 0 -9 4
-2 13 6 7 7 18 3 25 -4 7 -6 32 -4 56 3 36 0 46 -15 50 -14 5 -18 18 -19 68
-3 86 -5 98 -17 98 -7 0 -6 3 1 8 13 8 7 52 -7 52 -16 0 -18 29 -2 35 9 3 14
3 10 0 -3 -4 12 -23 34 -43 23 -20 41 -35 42 -33 1 2 20 -6 42 -17 23 -12 57
-24 75 -27 19 -3 49 -10 67 -15 17 -4 32 -5 32 0 0 4 9 10 20 13 11 3 20 2 20
-2 0 -7 78 -25 155 -37 33 -5 358 -4 415 1 19 1 45 3 58 4 13 1 21 4 18 9 -2
4 26 8 62 8 114 2 201 13 232 29 19 10 30 11 30 5 0 -7 5 -8 13 -3 6 4 15 8
20 9 4 1 8 2 10 4 1 1 11 3 21 5 10 2 23 10 27 17 5 7 9 9 9 4 0 -5 6 -4 13 2
6 5 28 13 47 17 19 4 46 13 60 20 14 7 48 14 75 16 48 2 113 25 126 42 3 5 8
8 10 7 11 -5 59 25 59 37 0 7 4 13 9 13 5 0 11 10 14 21 4 14 11 20 20 16 8
-3 29 8 46 24 54 49 95 77 109 72 6 -3 12 0 12 6 0 6 -4 11 -10 11 -5 0 -10 7
-10 15 0 8 7 15 16 15 8 0 12 -5 9 -10 -4 -6 5 -5 19 2 14 6 26 15 26 19 0 5
14 15 30 24 20 10 30 23 30 39 0 14 9 28 25 36 14 7 25 19 25 27 0 7 7 13 16
13 9 0 12 -5 8 -12 -5 -10 -3 -10 7 0 11 10 11 14 1 21 -9 5 -4 14 19 32 18
13 43 33 55 44 12 11 31 26 42 34 20 14 32 48 38 111 3 32 9 67 14 80 7 19 -3
124 -15 168 -11 38 -27 63 -56 89 -28 25 -37 39 -29 47 7 7 1 18 -20 37 -16
15 -28 34 -25 41 6 16 -56 58 -85 58 -12 0 -18 5 -15 10 9 15 -36 29 -62 19
-12 -4 -36 -4 -55 2 -46 13 -55 11 -32 -6 10 -8 15 -15 9 -16 -51 -7 -73 -3
-96 18 -22 21 -28 22 -38 9 -14 -17 -41 -11 -41 10 0 8 -6 11 -15 8 -8 -4 -15
-2 -15 3 0 10 -40 15 -40 5 0 -4 -4 -13 -9 -21 -7 -11 -13 -12 -23 -4 -7 6
-34 14 -60 17 -38 5 -48 4 -48 -8 0 -15 -30 -26 -75 -26 -36 0 -60 14 -51 29
11 16 -22 25 -39 11 -12 -10 -15 -10 -15 0 0 7 -16 28 -35 47 -19 19 -35 38
-35 44 0 6 -7 6 -20 -1 -11 -6 -20 -8 -20 -4 0 3 -10 0 -22 -8 -39 -25 -58
-29 -51 -11 5 12 2 13 -13 5 -10 -5 -32 -10 -48 -10 -15 0 -31 -3 -35 -8 -11
-16 -45 -40 -37 -26 4 6 4 12 -1 13 -4 0 -16 2 -25 4 -9 2 -19 -3 -22 -11 -7
-17 -33 -18 -39 -1 -3 8 -11 4 -26 -12 -14 -16 -32 -24 -54 -24 -17 0 -35 -4
-38 -10 -9 -12 -59 21 -59 39 0 15 -10 17 -34 8 -13 -5 -14 -9 -5 -20 9 -11 8
-14 -5 -14 -9 0 -16 -4 -16 -9 0 -4 -9 -20 -21 -35 -18 -23 -23 -24 -42 -14
-41 23 -62 17 -35 -10 9 -9 9 -12 -3 -13 -7 -1 -18 -1 -23 0 -16 4 -86 -31
-86 -42 0 -6 -3 -8 -6 -4 -3 3 -17 2 -30 -3 -16 -7 -24 -6 -24 2 0 6 -9 -1
-20 -15 -13 -17 -26 -24 -37 -20 -9 4 -21 -1 -29 -12 -12 -16 -28 -21 -87 -24
-11 -1 -20 -12 -24 -32 -4 -24 -10 -29 -24 -26 -24 6 -26 -28 -3 -37 14 -5 14
-8 0 -21 -8 -8 -19 -15 -25 -15 -16 0 -33 39 -26 58 5 13 2 13 -12 -3 -11 -10
-18 -31 -17 -46 2 -26 0 -27 -34 -22 -25 4 -33 3 -28 -5 4 -7 3 -12 -3 -12 -5
0 -14 7 -19 16 -7 13 -11 14 -17 4 -4 -7 -3 -15 2 -19 11 -7 12 -81 2 -81 -4
0 -10 -9 -14 -20 -3 -11 -9 -19 -13 -17 -12 3 -112 -72 -113 -85 -1 -7 -1 -19
0 -25 1 -7 -7 -13 -19 -13 -11 0 -20 7 -20 15 0 9 -6 12 -16 8 -8 -3 -13 -11
-10 -18 2 -7 -2 -22 -9 -33 -8 -10 -11 -23 -7 -27 4 -5 1 -5 -6 -1 -7 4 -10
11 -7 16 3 5 -16 19 -42 31 -33 15 -43 23 -30 26 20 5 20 8 7 33 -6 11 -17 17
-25 14 -14 -6 -20 9 -16 41 0 6 -9 15 -21 20 -12 6 -23 17 -24 25 -7 38 -13
60 -23 78 -11 21 -4 63 13 74 7 5 5 13 -6 25 -13 13 -21 14 -29 6 -8 -8 -20
-6 -45 8 -19 10 -36 19 -39 19 -3 0 -10 0 -15 0 -7 0 -8 6 -2 16 5 9 7 25 4
36 -4 15 -7 16 -19 6 -12 -10 -14 -9 -12 7 3 27 -21 75 -38 75 -7 0 -13 7 -13
16 0 9 -6 14 -13 11 -10 -4 -14 4 -13 26 1 26 -4 34 -28 44 -16 8 -26 18 -23
26 4 11 -20 57 -26 49 -1 -2 -9 -1 -18 3 -10 4 -15 15 -13 31 1 13 -2 22 -7
18 -5 -3 -9 6 -9 20 0 21 -6 25 -40 31 -30 5 -40 12 -40 25 0 13 -5 17 -20 13
-11 -3 -20 -12 -20 -19 0 -18 -24 -18 -39 0 -16 19 -3 45 28 53 l26 6 -31 13
c-21 9 -42 10 -62 5 -25 -8 -30 -6 -27 7 4 27 -16 61 -31 55 -8 -3 -14 0 -14
6 0 7 7 14 16 18 12 4 13 8 3 14 -7 4 -18 4 -24 0 -13 -11 -45 -10 -45 1 0 5
-4 6 -10 3 -5 -3 -10 -2 -10 4 0 14 -43 59 -61 63 -7 2 -21 10 -29 18 -24 24
-74 33 -103 18 -22 -11 -35 15 -18 36 15 18 -6 27 -31 15 -11 -6 -21 -4 -30 4
-11 10 -16 9 -31 -6z m108 -96 c-3 -6 3 -15 12 -21 19 -12 20 -12 -47 5 -8 2
-17 4 -20 5 -8 2 33 18 48 19 7 1 11 -3 7 -8z m1145 -1079 c0 -5 -12 -22 -27
-39 -28 -31 -28 -31 -28 -7 0 17 7 27 23 31 12 3 22 9 22 14 0 5 2 9 5 9 3 0
5 -4 5 -8z m-170 -423 c0 -14 -16 -11 -29 5 -10 12 -8 13 8 9 12 -3 21 -9 21
-14z m-32 -2248 c100 7 171 2 188 -12 6 -5 29 -7 50 -3 90 15 359 8 479 -12
17 -3 44 -7 60 -9 17 -2 30 -4 30 -5 0 -1 9 -3 20 -5 11 -2 34 -6 50 -10 17
-3 64 -7 105 -9 89 -4 117 -11 147 -39 18 -15 38 -20 95 -22 40 -1 80 -4 88
-8 37 -17 108 -39 135 -43 47 -8 88 -23 113 -42 23 -18 19 -19 -170 -20 -206
-2 -242 -4 -453 -26 -57 -6 -136 -17 -165 -22 -14 -3 -38 -7 -55 -10 -16 -2
-50 -9 -75 -14 -25 -5 -56 -12 -70 -14 -14 -2 -32 -7 -40 -10 -8 -3 -27 -8
-42 -11 -69 -13 -86 -17 -125 -30 -23 -8 -53 -16 -67 -19 -83 -15 -369 -121
-539 -200 -42 -20 -82 -36 -87 -36 -6 0 -10 -4 -10 -10 0 -6 -3 -9 -7 -8 -5 1
-33 -11 -63 -26 -30 -16 -68 -36 -85 -44 -16 -9 -33 -20 -36 -25 -3 -5 -9 -8
-13 -7 -4 0 -33 -15 -65 -34 -32 -20 -63 -36 -69 -36 -6 0 -12 -3 -14 -7 -4
-11 -65 -53 -75 -53 -5 0 -24 -13 -43 -30 -19 -16 -41 -29 -48 -30 -7 0 -15
-7 -18 -15 -4 -8 -10 -15 -16 -15 -10 0 -153 -107 -182 -135 -9 -9 -16 -14
-16 -11 0 3 -13 -7 -28 -22 -16 -15 -43 -38 -60 -51 -85 -64 -290 -268 -423
-421 -134 -155 -339 -433 -339 -460 0 -5 -4 -10 -9 -10 -5 0 -13 -10 -17 -22
-4 -13 -10 -25 -14 -28 -4 -3 -22 -32 -40 -65 -18 -33 -41 -71 -51 -84 -11
-13 -19 -32 -19 -42 0 -9 -4 -19 -8 -21 -11 -4 -102 -188 -102 -205 0 -7 -4
-13 -9 -13 -5 0 -11 -10 -15 -23 -3 -13 -15 -44 -26 -70 -11 -26 -21 -49 -21
-52 0 -2 -11 -28 -24 -57 -14 -29 -25 -58 -25 -64 0 -6 -7 -28 -15 -48 -8 -20
-15 -38 -15 -41 0 -3 -6 -20 -14 -39 -19 -45 -105 -354 -111 -396 -1 -8 -8
-42 -15 -74 -6 -33 -14 -71 -16 -85 -5 -28 -6 -38 -18 -121 -5 -30 -10 -64
-12 -75 -7 -36 -16 -139 -19 -206 -1 -36 -4 -70 -7 -75 -6 -11 -2 -441 6 -549
9 -131 40 -359 62 -455 3 -14 7 -32 8 -40 1 -8 6 -31 10 -50 4 -19 8 -42 10
-50 5 -27 18 -75 23 -90 4 -8 7 -19 7 -25 8 -56 134 -418 156 -450 4 -5 13
-27 19 -48 7 -20 17 -37 23 -37 6 0 9 -3 5 -6 -6 -6 32 -86 69 -145 13 -20 20
-40 17 -43 -4 -3 -2 -6 3 -6 6 0 16 -16 24 -35 8 -19 17 -35 22 -35 4 0 8 -6
8 -13 0 -7 9 -23 20 -35 11 -12 20 -24 20 -27 0 -9 78 -124 130 -190 26 -33
53 -71 59 -85 11 -24 11 -24 -3 -6 -9 11 -16 23 -16 28 0 4 -12 14 -27 22 -16
8 -55 40 -88 73 -33 32 -76 66 -96 75 -19 10 -44 26 -54 38 -10 11 -37 29 -59
39 -23 10 -60 36 -83 57 -47 44 -46 44 -125 103 -32 24 -58 48 -58 53 0 5 -5
6 -10 3 -6 -3 -10 -1 -10 5 0 6 -19 30 -42 53 -64 65 -127 139 -145 172 -9 17
-25 48 -36 69 -20 41 -40 66 -54 67 -4 1 -25 10 -45 20 -34 17 -38 24 -38 58
0 26 -7 44 -21 57 -28 25 -60 71 -63 89 -1 8 -9 22 -18 32 -33 37 -78 118 -78
140 0 12 -13 37 -30 56 -16 19 -35 56 -41 83 -7 27 -43 110 -80 185 -42 87
-64 141 -59 150 5 7 4 21 -1 30 -5 10 -9 28 -9 40 0 18 -2 19 -15 9 -13 -11
-15 -8 -17 16 -2 33 -5 57 -8 64 -9 19 -19 140 -21 247 -1 60 -4 113 -8 118
-9 17 -7 60 4 68 6 4 5 10 -4 16 -7 5 -14 29 -16 54 -2 25 -6 50 -9 56 -4 6
-4 11 1 11 4 0 9 80 9 178 1 97 2 206 4 242 1 36 -2 85 -6 110 -17 86 -5 394
16 450 1 3 2 9 1 13 -3 19 31 117 41 117 6 0 9 3 5 6 -3 3 3 27 14 52 13 33
14 41 4 28 -11 -14 -15 -16 -15 -5 0 32 22 89 34 89 7 0 13 6 14 13 7 76 12
96 28 115 10 13 20 27 20 32 1 6 3 13 4 18 1 4 2 30 1 59 -1 43 3 54 19 63 11
6 20 17 20 24 0 7 6 26 14 42 38 79 57 126 52 132 -3 3 -6 -1 -7 -9 0 -8 -4
-5 -8 6 -5 11 -6 25 -3 30 4 6 8 19 9 29 4 26 12 33 22 18 5 -9 12 -9 27 3 11
8 14 15 7 15 -7 0 -13 9 -13 21 0 22 40 122 47 116 7 -8 102 96 114 126 11 26
10 31 -5 42 -15 12 -16 14 -1 29 9 9 21 14 26 10 11 -7 34 15 43 41 3 11 19
35 35 54 17 19 27 39 25 43 -7 12 14 43 65 97 22 24 41 51 41 60 0 9 10 21 23
26 17 8 22 18 22 48 0 42 22 63 56 54 16 -4 18 -1 13 19 -5 20 2 31 37 62 24
20 75 67 114 104 105 100 165 154 260 233 33 28 62 53 65 56 10 12 161 108
180 114 11 4 20 11 20 16 0 5 6 9 13 9 6 0 35 22 64 48 84 76 268 203 303 209
21 3 90 32 90 38 0 2 -12 0 -26 -5 -31 -12 -34 -12 -34 -2 0 12 243 113 305
126 44 9 273 111 285 127 15 19 75 40 99 34 42 -10 81 -13 81 -6 0 3 12 7 28
8 15 0 56 14 92 31 90 41 142 63 164 67 10 3 24 9 31 15 10 8 16 7 22 -5 9
-15 13 -15 58 1 30 10 66 14 92 11 27 -3 49 0 60 9 14 10 20 11 26 1 6 -9 33
-10 95 -6z m-2808 -6391 c0 -5 -2 -10 -4 -10 -3 0 -8 5 -11 10 -3 6 -1 10 4
10 6 0 11 -4 11 -10z"/>
<path d="M4570 11260 c0 -5 5 -10 11 -10 5 0 7 5 4 10 -3 6 -8 10 -11 10 -2 0
-4 -4 -4 -10z"/>
<path d="M6906 10953 c-6 -14 -5 -15 5 -6 7 7 10 15 7 18 -3 3 -9 -2 -12 -12z"/>
<path d="M2093 6864 c-13 -14 -18 -24 -11 -22 10 4 45 48 37 48 -2 0 -14 -12
-26 -26z"/>
<path d="M1620 2020 c0 -6 4 -10 9 -10 5 0 13 -9 16 -20 8 -26 24 -26 22 -1 0
11 -5 17 -9 15 -4 -3 -8 -1 -8 4 0 6 -7 12 -15 16 -8 3 -15 1 -15 -4z"/>
<path d="M2096 1445 c4 -8 10 -15 15 -15 4 0 6 7 3 15 -4 8 -10 15 -15 15 -4
0 -6 -7 -3 -15z"/>
<path d="M3888 419 c12 -4 44 -11 70 -13 26 -3 39 -3 30 0 -10 3 -18 9 -18 12
0 4 -24 8 -53 9 -39 1 -46 -1 -29 -8z"/>
<path d="M4260 426 c0 -2 7 -6 15 -10 8 -3 15 -1 15 4 0 6 -7 10 -15 10 -8 0
-15 -2 -15 -4z"/>
</g>
</svg>
